<svg width="156" height="246" viewBox="0 0 156 246" fill="none" xmlns="http://www.w3.org/2000/svg">
<path fill-rule="evenodd" clip-rule="evenodd" d="M81.4207 198.089C64.9601 187.762 44.7056 181.679 35.8636 164.052C26.3719 145.13 20.8439 119.558 32.4874 100.539C44.1472 81.4941 71.0914 83.4673 90.932 74.1019C104.579 67.6599 115.87 56.8877 130.473 54.287C146.541 51.4256 162.568 52.6964 177.224 58.7344C194.68 65.9262 215.742 73.261 221.357 91.7306C226.969 110.189 211.751 129.081 204.268 147.685C197.496 164.524 192.643 182.099 179.831 194.982C165.818 209.074 149.515 214.452 130.473 215.053C111.592 215.649 97.0687 207.906 81.4207 198.089Z" fill="#FBCFD8"/>
</svg>
