<svg width="28" height="28" viewBox="0 0 28 28" fill="none" xmlns="http://www.w3.org/2000/svg">
<path d="M14.0216 26.3867C20.9584 26.3867 26.5819 20.7632 26.5819 13.8263C26.5819 6.88941 20.9584 1.26595 14.0216 1.26595C7.08465 1.26595 1.46118 6.88941 1.46118 13.8263C1.46118 20.7632 7.08465 26.3867 14.0216 26.3867Z" fill="#41B4E6" stroke="#ECEFF1" stroke-width="2"/>
<g clip-path="url(#clip0)">
<path d="M14.0216 25.3867C20.4062 25.3867 25.5819 20.2109 25.5819 13.8263C25.5819 7.4417 20.4062 2.26595 14.0216 2.26595C7.63693 2.26595 2.46118 7.4417 2.46118 13.8263C2.46118 20.2109 7.63693 25.3867 14.0216 25.3867Z" fill="#F0F0F0"/>
<path d="M4.85112 6.78813C3.94304 7.96959 3.25832 9.33132 2.85962 10.8106H8.87363L4.85112 6.78813Z" fill="#0052B4"/>
<path d="M25.1838 10.8106C24.7851 9.33136 24.1004 7.96963 23.1923 6.78817L19.1699 10.8106H25.1838Z" fill="#0052B4"/>
<path d="M2.85962 16.8421C3.25836 18.3214 3.94309 19.6831 4.85112 20.8645L8.8735 16.8421H2.85962Z" fill="#0052B4"/>
<path d="M21.0598 4.65574C19.8784 3.74766 18.5167 3.06293 17.0374 2.66419V8.67816L21.0598 4.65574Z" fill="#0052B4"/>
<path d="M6.98364 22.9969C8.1651 23.905 9.52683 24.5897 11.0061 24.9884V18.9745L6.98364 22.9969Z" fill="#0052B4"/>
<path d="M11.0061 2.66419C9.52679 3.06293 8.16506 3.74766 6.98364 4.65569L11.0061 8.67811V2.66419Z" fill="#0052B4"/>
<path d="M17.0376 24.9884C18.5169 24.5897 19.8786 23.905 21.06 22.9969L17.0376 18.9745V24.9884Z" fill="#0052B4"/>
<path d="M19.1699 16.8421L23.1923 20.8646C24.1004 19.6832 24.7851 18.3214 25.1838 16.8421H19.1699Z" fill="#0052B4"/>
<path d="M25.4841 12.3185H15.5295H15.5295V2.3638C15.0358 2.29954 14.5326 2.26595 14.0216 2.26595C13.5104 2.26595 13.0073 2.29954 12.5137 2.3638V12.3184V12.3184H2.55904C2.49478 12.812 2.46118 13.3153 2.46118 13.8263C2.46118 14.3375 2.49478 14.8406 2.55904 15.3342H12.5136H12.5136V25.2888C13.0073 25.3531 13.5104 25.3867 14.0216 25.3867C14.5326 25.3867 15.0358 25.3531 15.5294 25.2888V15.3343V15.3342H25.4841C25.5483 14.8406 25.5819 14.3375 25.5819 13.8263C25.5819 13.3153 25.5483 12.812 25.4841 12.3185Z" fill="#D80027"/>
<path d="M17.0374 16.8421L22.196 22.0008C22.4332 21.7636 22.6596 21.5156 22.8755 21.2586L18.459 16.8421H17.0374V16.8421Z" fill="#D80027"/>
<path d="M11.0058 16.8421H11.0058L5.84717 22.0007C6.08434 22.238 6.3323 22.4643 6.58933 22.6802L11.0058 18.2636V16.8421Z" fill="#D80027"/>
<path d="M11.0056 10.8106V10.8105L5.84701 5.65187C5.60976 5.88904 5.38342 6.137 5.16748 6.39404L9.58404 10.8106H11.0056V10.8106Z" fill="#D80027"/>
<path d="M17.0374 10.8106L22.196 5.65192C21.9589 5.41466 21.7109 5.18833 21.4539 4.97243L17.0374 9.38899V10.8106Z" fill="#D80027"/>
</g>
<defs>
<clipPath id="clip0">
<rect width="23.1207" height="23.1207" fill="white" transform="translate(2.46118 2.26595)"/>
</clipPath>
</defs>
</svg>
