<svg width="76" height="174" viewBox="0 0 76 174" fill="none" xmlns="http://www.w3.org/2000/svg">
<g clip-path="url(#clip0)">
<path opacity="0.2" d="M62.4755 172.636L90.6212 157.189C92.8844 155.847 92.6181 153.498 89.9556 151.955L42.0956 124.441C39.433 122.898 35.4391 122.763 33.1094 124.038L4.96372 139.486C2.70052 140.828 2.96678 143.176 5.62937 144.72L53.4893 172.233C56.1519 173.844 60.1458 173.978 62.4755 172.636Z" fill="#92B4D1"/>
<path d="M57.7494 169.818L13.6837 144.184C8.69131 141.298 4.69743 133.514 4.69743 126.803V8.36061C4.69743 4.93819 1.90172 4.20002 3.6324 2.99211C3.69896 2.925 7.55971 1.18024 7.62628 1.11313C9.42352 0.442067 11.3539 0.106535 13.6837 1.44866L57.7494 27.0833C62.7418 29.9688 66.7356 37.7532 66.7356 44.4638V162.839C66.7356 166.396 65.604 168.946 63.8068 170.087C63.6737 170.154 59.0142 172.368 58.881 172.435C57.2835 173.039 59.9461 171.026 57.7494 169.818Z" fill="#516372"/>
<path d="M54.2881 171.361L10.2223 145.726C5.22996 142.841 1.23608 135.057 1.23608 128.346V9.97044C1.23608 3.25981 5.22996 0.24003 10.2223 3.1256L54.2881 28.7602C59.2804 31.6458 63.2743 39.4301 63.2743 46.1407V164.516C63.3409 171.16 59.2804 174.247 54.2881 171.361Z" fill="white"/>
<path d="M53.5558 171.764L9.49004 146.129C4.4977 143.244 0.437256 135.459 0.437256 128.749V10.3731C0.437256 3.72956 4.4977 0.642666 9.42348 3.52824L53.4892 29.1628C58.4816 32.0484 62.4755 39.8327 62.4755 46.5434V164.919C62.542 171.629 58.4816 174.716 53.5558 171.764Z" fill="#6A737B"/>
<path d="M56.5511 170.489C55.6858 170.489 54.7539 170.22 53.7554 169.616L9.88932 144.116C5.76231 141.7 2.43408 135.191 2.43408 129.554V11.0441C2.43408 7.28619 3.96507 4.80325 6.42796 4.80325C7.2933 4.80325 8.2252 5.07168 9.22367 5.67563L53.0898 31.176C57.2168 33.5919 60.6116 40.1012 60.6116 45.7381V164.315C60.545 168.073 59.014 170.489 56.5511 170.489Z" fill="#B0BCC8"/>
<path d="M3.43262 130.292V12.3863C3.43262 7.4875 6.36146 5.20589 10.0225 7.35329L52.9567 32.3168C56.6177 34.4642 59.5466 40.1683 59.5466 45.067V162.973C59.5466 167.872 56.6177 170.153 52.9567 168.006L10.0225 143.042C6.36146 140.895 3.43262 135.191 3.43262 130.292Z" fill="#A5A9AD"/>
<path d="M4.2981 129.621L58.6814 161.295V60.5015L4.2981 28.8944V129.621Z" fill="#F5FBFF"/>
<path d="M49.0959 38.6919L54.5542 41.8459C54.7539 41.9801 54.9536 41.8459 54.9536 41.6446C54.9536 41.3762 54.7539 41.1078 54.5542 40.9735L49.0959 37.8196C48.8962 37.6853 48.6965 37.8196 48.6965 38.0209C48.7631 38.2893 48.8962 38.5577 49.0959 38.6919ZM54.5542 42.9867L49.0959 39.8327C48.8962 39.6985 48.6965 39.8327 48.6965 40.0341C48.6965 40.3025 48.8962 40.5709 49.0959 40.7051L54.5542 43.8591C54.7539 43.9933 54.9536 43.8591 54.9536 43.6578C54.9536 43.3894 54.7539 43.0538 54.5542 42.9867ZM54.5542 44.9328L49.0959 41.7788C48.8962 41.6446 48.6965 41.7788 48.6965 41.9801C48.6965 42.2486 48.8962 42.517 49.0959 42.6512L54.5542 45.8052C54.7539 45.9394 54.9536 45.8052 54.9536 45.6039C54.9536 45.3355 54.7539 45.067 54.5542 44.9328Z" fill="white"/>
<path d="M15.7471 19.768C15.7471 20.3719 15.3477 20.5732 14.8152 20.3048C14.2827 20.0364 13.8833 19.2982 13.8833 18.7614C13.8833 18.1574 14.2827 17.9561 14.8152 18.2245C15.3477 18.4929 15.7471 19.164 15.7471 19.768Z" fill="white"/>
<path d="M13.0181 18.1574C13.0181 18.7614 12.6187 18.9627 12.0862 18.6943C11.5537 18.4258 11.1543 17.6877 11.1543 17.1508C11.1543 16.5469 11.5537 16.3456 12.0862 16.614C12.6187 16.8824 13.0181 17.5535 13.0181 18.1574Z" fill="white"/>
<path d="M10.2889 16.5469C10.2889 17.1508 9.88947 17.3521 9.35695 17.0837C8.82444 16.8153 8.42505 16.0771 8.42505 15.5403C8.42505 14.9363 8.82444 14.735 9.35695 15.0034C9.88947 15.2718 10.2889 15.9429 10.2889 16.5469Z" fill="white"/>
<path d="M33.387 109.892C33.387 104.792 29.7925 98.5507 25.3992 95.9336C23.2692 94.7257 21.3388 94.5244 19.8744 95.2625L17.8774 96.4033L18.4765 97.4099C18.2103 98.1481 18.0771 99.0876 18.0771 100.094C18.0771 105.194 21.6716 111.435 26.0649 114.052C26.9968 114.589 27.8621 114.925 28.6609 115.059L29.26 116.065L30.8575 115.193C32.3885 114.388 33.387 112.576 33.387 109.892Z" fill="#C5C5C5"/>
<path d="M29.3777 115.994C32.4879 114.161 32.4523 108.266 29.2981 102.827C26.1439 97.3874 21.0656 94.4641 17.9553 96.2972C14.8451 98.1303 14.8807 104.026 18.0349 109.465C21.1891 114.904 26.2674 117.827 29.3777 115.994Z" fill="white"/>
<path d="M14.4825 111.1C14.3494 111.1 14.2828 111.033 14.2162 110.898C14.0165 110.496 13.8168 110.093 13.6171 109.69C13.5506 109.556 13.6171 109.355 13.7503 109.221C13.8834 109.154 14.0831 109.221 14.2162 109.355C14.4159 109.757 14.6156 110.16 14.8153 110.563C14.8819 110.697 14.8153 110.898 14.6822 111.033C14.549 111.1 14.549 111.1 14.4825 111.1ZM13.0846 108.08C12.9515 108.08 12.8184 108.013 12.7518 107.879C12.6187 107.476 12.419 107.006 12.3524 106.604C12.2858 106.402 12.419 106.268 12.5521 106.201C12.7518 106.134 12.8849 106.268 12.9515 106.402C13.0846 106.805 13.2178 107.207 13.3509 107.677C13.4174 107.879 13.3509 108.013 13.1512 108.08C13.1512 108.08 13.1512 108.08 13.0846 108.08ZM12.2193 104.859C12.0862 104.859 11.953 104.725 11.8865 104.59C11.8199 104.121 11.7533 103.651 11.6868 103.248C11.6868 103.047 11.8199 102.913 11.953 102.913C12.1527 102.913 12.2858 103.047 12.2858 103.181C12.3524 103.584 12.419 104.053 12.4855 104.456C12.5521 104.59 12.419 104.792 12.2193 104.859Z" fill="#A8CFF0"/>
<path d="M29.2568 116.101C32.3671 114.268 32.3314 108.372 29.1772 102.933C26.023 97.4937 20.9447 94.5704 17.8345 96.4035C14.7242 98.2366 14.7599 104.132 17.9141 109.571C21.0683 115.01 26.1466 117.934 29.2568 116.101Z" fill="#3F92D1"/>
<path d="M23.269 99.8258C20.5399 98.2152 18.3433 99.4902 18.3433 102.644C18.3433 105.664 20.3402 109.288 22.9362 110.965V113.784L25.0663 111.838C26.9301 112.106 28.1948 110.764 28.1948 108.348C28.1948 105.194 25.9982 101.369 23.269 99.8258ZM21.2721 104.926C21.0058 105.127 20.4733 104.792 20.2071 104.322C19.9408 103.785 19.9408 103.248 20.2071 103.047C20.4733 102.846 21.0058 103.181 21.2721 103.651C21.6049 104.188 21.6049 104.792 21.2721 104.926ZM23.8016 106.402C23.5353 106.604 23.0028 106.268 22.7365 105.798C22.4703 105.261 22.4703 104.725 22.7365 104.523C23.0028 104.322 23.5353 104.657 23.8016 105.127C24.0678 105.664 24.0678 106.201 23.8016 106.402ZM26.2645 107.811C25.9982 108.013 25.4657 107.677 25.1994 107.207C24.9332 106.671 24.9332 106.134 25.1994 105.932C25.4657 105.731 25.9982 106.067 26.2645 106.536C26.5973 107.14 26.5973 107.677 26.2645 107.811Z" fill="white"/>
<path d="M50.0279 78.8886C50.0279 73.7885 46.4334 67.5477 42.0401 64.9305C39.91 63.7226 37.9797 63.5213 36.5152 64.2594L34.5183 65.4002L35.1174 66.4068C34.8511 67.145 34.718 68.0845 34.718 69.0911C34.718 74.1912 38.3125 80.432 42.7058 83.0492C43.6377 83.586 44.503 83.9216 45.3018 84.0558L45.9009 85.0624L47.4984 84.19C49.0294 83.4518 50.0279 81.5728 50.0279 78.8886Z" fill="#C5C5C5"/>
<path d="M46.0376 85.0495C49.1478 83.2164 49.1122 77.321 45.958 71.8818C42.8038 66.4426 37.7255 63.5193 34.6152 65.3524C31.505 67.1855 31.5406 73.0808 34.6948 78.5201C37.849 83.9593 42.9274 86.8826 46.0376 85.0495Z" fill="white"/>
<path d="M43.7708 89.5585C43.3048 89.5585 42.8389 89.4914 42.3729 89.4243C42.1732 89.4243 42.0401 89.223 42.1067 89.0217C42.1067 88.8203 42.3064 88.6861 42.5061 88.7532C42.9054 88.8203 43.3714 88.8203 43.7708 88.8203C43.9705 88.8203 44.1036 88.9545 44.1036 89.1559C44.1036 89.3572 43.9039 89.5585 43.7708 89.5585ZM40.5091 89.0217C40.4425 89.0217 40.4425 89.0217 40.376 89.0217C39.9766 88.8874 39.5106 88.6861 39.1113 88.4848C38.9781 88.4177 38.845 88.2164 38.9781 88.0151C39.0447 87.8808 39.2444 87.7466 39.4441 87.8809C39.8435 88.0822 40.2429 88.2164 40.6422 88.4177C40.8419 88.4848 40.9085 88.6861 40.8419 88.8203C40.7754 88.8874 40.6422 89.0217 40.5091 89.0217ZM37.5137 87.4782C37.4471 87.4782 37.3806 87.4782 37.314 87.4111C36.9146 87.1427 36.5818 86.8743 36.249 86.6058C36.1159 86.4716 36.0493 86.2703 36.1824 86.1361C36.3155 86.0019 36.5152 85.9348 36.6484 86.069C36.9812 86.3374 37.3806 86.6058 37.7134 86.8743C37.8465 87.0085 37.9131 87.2098 37.78 87.344C37.7134 87.4111 37.6468 87.4782 37.5137 87.4782ZM34.9843 85.3308C34.9177 85.3308 34.7846 85.3308 34.718 85.2637C34.3852 84.9282 34.1189 84.5926 33.7861 84.2571C33.653 84.1229 33.653 83.9216 33.7861 83.7874C33.9192 83.6532 34.1189 83.6532 34.252 83.7874C34.5183 84.1229 34.8511 84.4584 35.1839 84.7269C35.3171 84.8611 35.3171 85.0624 35.1839 85.1966C35.1174 85.3308 35.0508 85.3308 34.9843 85.3308ZM32.7876 82.7808C32.6545 82.7808 32.5879 82.7137 32.5214 82.6466C32.2551 82.311 31.9888 81.9084 31.7226 81.5057C31.5895 81.3715 31.656 81.1702 31.7892 81.036C31.9223 80.9689 32.122 80.9689 32.2551 81.1031C32.5214 81.5057 32.7211 81.8413 32.9873 82.1768C33.1204 82.311 33.0539 82.5123 32.9208 82.6466C32.9208 82.7808 32.8542 82.7808 32.7876 82.7808ZM30.9904 79.9623C30.8573 79.9623 30.7241 79.8952 30.7241 79.761C30.5244 79.3583 30.3247 78.9557 30.125 78.5531C30.0585 78.3518 30.125 78.2175 30.2582 78.0833C30.4579 78.0162 30.591 78.0833 30.7241 78.2175C30.9238 78.6202 31.1235 79.0228 31.3232 79.4255C31.3898 79.5597 31.3232 79.761 31.1901 79.8952C31.1235 79.9623 31.0569 79.9623 30.9904 79.9623ZM29.6591 76.8754C29.526 76.8754 29.3928 76.8083 29.3263 76.6741C29.1931 76.2715 29.06 75.8017 28.9269 75.3991C28.8603 75.1978 28.9934 75.0635 29.1266 74.9964C29.3263 74.9293 29.4594 75.0635 29.526 75.1978C29.6591 75.6004 29.7922 76.0701 29.9253 76.4728C29.9919 76.6741 29.9253 76.8083 29.7257 76.8754C29.7257 76.8754 29.7257 76.8754 29.6591 76.8754ZM28.7937 73.6543C28.6606 73.6543 28.5275 73.5201 28.4609 73.3859C28.3944 72.9161 28.3278 72.4464 28.2612 72.0438C28.2612 71.8424 28.3944 71.7082 28.5941 71.7082C28.7937 71.7082 28.9269 71.8424 28.9269 72.0438C28.9934 72.4464 28.9934 72.9161 29.1266 73.3188C29.1266 73.453 29.06 73.6543 28.7937 73.6543C28.8603 73.6543 28.7937 73.6543 28.7937 73.6543Z" fill="#A8CFF0"/>
<path d="M45.8833 85.0977C48.9935 83.2646 48.9579 77.3692 45.8037 71.93C42.6495 66.4908 37.5712 63.5674 34.4609 65.4005C31.3507 67.2336 31.3863 73.129 34.5405 78.5682C37.6947 84.0074 42.7731 86.9308 45.8833 85.0977Z" fill="#3F92D1"/>
<path d="M40.1097 77.4794C41.3744 78.2175 42.3729 77.6136 42.3729 76.1373V72.0438C42.3729 70.5674 41.3078 68.7556 40.1097 68.0845C38.8449 67.3463 37.8465 67.9503 37.8465 69.4266V73.5201C37.7799 74.9964 38.8449 76.7412 40.1097 77.4794Z" fill="white"/>
<path d="M43.438 75.332C43.2383 75.1978 43.0386 75.332 43.0386 75.5333V76.5399C43.0386 78.4189 41.7073 79.2241 40.0432 78.2176C38.3791 77.2781 37.0478 74.9293 37.0478 73.0504V72.0438C37.0478 71.7754 36.8481 71.5069 36.6484 71.3727C36.4487 71.2385 36.249 71.3727 36.249 71.574V72.5806C36.249 74.728 37.6469 77.3452 39.4441 78.6873V80.6334C38.9782 80.5663 38.7119 80.8347 38.7119 81.3715L41.3745 82.915C41.3745 82.3781 41.0417 81.7742 40.6423 81.3044V79.3584C42.4395 80.0965 43.8374 79.0899 43.8374 76.9425V75.9359C43.8374 75.7346 43.6377 75.4662 43.438 75.332Z" fill="white"/>
<path d="M28.9936 67.4805L20.7395 55.0659L20.3402 55.5356L20.7395 59.6962L9.42356 53.1198L9.02417 53.5895L9.35699 59.0251L20.673 65.6016V70.2319L28.5942 67.8832L28.9936 67.4805Z" fill="#0091C8"/>
<path d="M28.5942 67.8832L20.3402 55.4685V60.0988L9.02417 53.5224V59.4278L20.3402 66.0042V70.6345L28.5942 67.8832Z" fill="#41B4E6"/>
<g opacity="0.5">
<path opacity="0.5" d="M28.5275 67.9503L28.5941 67.8832L20.3401 55.4685V55.6698L28.5275 67.9503Z" fill="white"/>
<path opacity="0.5" d="M20.3402 60.2331V60.0988L9.02417 53.5224V53.6566L20.3402 60.2331Z" fill="white"/>
</g>
<path d="M34.9175 111.569L34.5847 112.039L42.7722 124.32L43.1715 123.984V119.354L54.1547 126.4L54.5541 125.997V120.025L43.2381 113.448V108.818L34.9175 111.569Z" fill="#0091C8"/>
<path d="M34.5183 111.972L42.7723 124.387V119.756L54.0883 126.333V120.427L42.7723 113.851V109.221L34.5183 111.972Z" fill="#41B4E6"/>
<g opacity="0.5">
<path opacity="0.5" d="M42.7723 113.851V109.221L34.5183 111.972L34.5849 112.106L42.7723 109.355V113.985L54.0883 120.562V126.333V120.427L42.7723 113.851Z" fill="white"/>
</g>
<path d="M25.0662 130.024C25.0662 133.714 27.6622 138.278 30.8573 140.157C31.7226 140.693 32.588 140.962 33.3867 140.962C35.184 140.962 36.3156 139.486 36.3156 137.07C36.3156 133.379 33.7196 128.816 30.5245 126.937C29.6591 126.4 28.7938 126.131 27.995 126.131C26.1978 126.131 25.0662 127.608 25.0662 130.024Z" fill="white"/>
<path d="M30.9241 140.559C27.5293 138.546 24.4673 133.379 24.4673 129.42C24.4673 126.601 26.7305 124.924 28.9937 124.924C29.9256 124.924 30.8575 125.192 31.856 125.796C35.2507 127.809 38.0465 132.641 38.0465 136.533C38.0465 139.351 35.7167 141.566 33.5201 141.566C32.5882 141.566 31.9225 141.096 30.9241 140.559ZM25.4658 129.755C25.4658 133.446 28.0618 138.009 31.2569 139.888C32.1222 140.425 32.9876 140.693 33.7863 140.693C35.5836 140.693 36.7152 139.217 36.7152 136.801C36.7152 133.11 34.1192 128.547 30.9241 126.668C30.0587 126.131 29.1934 125.863 28.3946 125.863C26.5974 125.863 25.4658 127.339 25.4658 129.755Z" fill="#C5C5C5"/>
<path d="M30.5911 140.761C27.1963 138.747 24.4006 133.916 24.4006 130.024C24.4006 127.205 25.8651 125.393 28.0617 125.393C28.9936 125.393 29.9255 125.662 30.924 126.266C34.3188 128.279 37.1145 133.11 37.1145 137.003C37.1145 139.821 35.6501 141.633 33.4534 141.633C32.5881 141.633 31.5896 141.365 30.5911 140.761ZM25.1328 130.024C25.1328 133.714 27.7289 138.278 30.924 140.157C31.7893 140.694 32.6546 140.962 33.4534 140.962C35.2507 140.962 36.3823 139.486 36.3823 137.07C36.3823 133.379 33.7862 128.816 30.5911 126.937C29.7258 126.4 28.8605 126.131 28.0617 126.131C26.2644 126.064 25.1328 127.608 25.1328 130.024Z" fill="white"/>
<path d="M30.5245 140.828C27.1297 138.815 24.334 133.983 24.334 130.091C24.334 127.272 25.7984 125.46 27.995 125.46C28.9269 125.46 29.8588 125.729 30.8573 126.333C34.2521 128.346 37.0478 133.178 37.0478 137.07C37.0478 139.888 35.5834 141.7 33.3868 141.7C32.4549 141.7 31.523 141.432 30.5245 140.828ZM25.0662 130.024C25.0662 133.714 27.6622 138.278 30.8573 140.157C31.7227 140.693 32.588 140.962 33.3868 140.962C35.184 140.962 36.3156 139.486 36.3156 137.07C36.3156 133.379 33.7196 128.816 30.5245 126.937C29.6592 126.4 28.7938 126.131 27.995 126.131C26.1978 126.131 25.0662 127.608 25.0662 130.024Z" fill="#F47892"/>
<path d="M27.5292 131.903L29.7924 136.868L34.0525 132.372C34.1856 132.238 34.1191 131.835 33.8528 131.567L32.5881 130.359C32.3884 130.225 32.2553 130.158 32.1221 130.292L29.8589 134.184L28.8605 131.768C28.7939 131.567 28.5942 131.366 28.3945 131.366L27.7289 131.231C27.5292 131.366 27.396 131.634 27.5292 131.903Z" fill="#C5C5C5"/>
<path d="M27.3295 132.037L29.5927 137.003L33.8528 132.507C33.986 132.372 33.9194 131.97 33.6531 131.701L32.3884 130.493C32.1887 130.359 32.0556 130.292 31.9225 130.426L29.6593 134.318L28.6608 131.903C28.5942 131.701 28.3945 131.5 28.1948 131.5L27.5292 131.366C27.2629 131.433 27.1964 131.768 27.3295 132.037Z" fill="#F47892"/>
</g>
<defs>
<clipPath id="clip0">
<rect width="97" height="173" fill="white" transform="translate(0.582031 0.649582)"/>
</clipPath>
</defs>
</svg>
