<svg width="28" height="28" viewBox="0 0 28 28" fill="none" xmlns="http://www.w3.org/2000/svg">
<path d="M14.1424 26.1569C21.0793 26.1569 26.7028 20.5334 26.7028 13.5965C26.7028 6.65965 21.0793 1.03618 14.1424 1.03618C7.2055 1.03618 1.58203 6.65965 1.58203 13.5965C1.58203 20.5334 7.2055 26.1569 14.1424 26.1569Z" fill="#41B4E6" stroke="#ECEFF1" stroke-width="2"/>
<g clip-path="url(#clip0)">
<path d="M14.1424 25.1569C20.527 25.1569 25.7028 19.9812 25.7028 13.5965C25.7028 7.21193 20.527 2.03618 14.1424 2.03618C7.75778 2.03618 2.58203 7.21193 2.58203 13.5965C2.58203 19.9812 7.75778 25.1569 14.1424 25.1569Z" fill="#F0F0F0"/>
<path d="M24.9837 17.6175C25.4484 16.3652 25.7028 15.0106 25.7028 13.5965C25.7028 12.1825 25.4484 10.8279 24.9837 9.57557H3.30108C2.8364 10.8279 2.58203 12.1825 2.58203 13.5965C2.58203 15.0106 2.8364 16.3652 3.30108 17.6175L14.1424 18.6228L24.9837 17.6175Z" fill="#0052B4"/>
<path d="M14.1426 25.1569C19.1131 25.1569 23.3505 22.0197 24.9839 17.6175H3.30127C4.93467 22.0197 9.17204 25.1569 14.1426 25.1569Z" fill="#D80027"/>
</g>
<defs>
<clipPath id="clip0">
<rect width="23.1207" height="23.1207" fill="white" transform="translate(2.58203 2.03618)"/>
</clipPath>
</defs>
</svg>
