<svg width="155" height="46" viewBox="0 0 155 46" fill="none" xmlns="http://www.w3.org/2000/svg">
<rect x="37.5322" y="7.35545" width="117.343" height="28.533" rx="6" fill="#41B4E6"/>
<path d="M65.0054 26.2643H63.686V17.3912H58.7778V26.2643H57.4653V16.3111H65.0054V26.2643ZM66.8647 22.4977C66.8647 21.773 67.006 21.1213 67.2886 20.5426C67.5757 19.9638 67.9722 19.5172 68.478 19.2027C68.9884 18.8883 69.5695 18.731 70.2212 18.731C71.2284 18.731 72.0418 19.0797 72.6616 19.7769C73.286 20.4742 73.5981 21.4016 73.5981 22.5592V22.648C73.5981 23.3681 73.4591 24.0152 73.1812 24.5894C72.9077 25.1591 72.5135 25.6034 71.9985 25.9225C71.4881 26.2415 70.9002 26.401 70.2349 26.401C69.2323 26.401 68.4188 26.0523 67.7944 25.3551C67.1746 24.6578 66.8647 23.735 66.8647 22.5865V22.4977ZM68.1362 22.648C68.1362 23.4684 68.3254 24.1269 68.7036 24.6236C69.0864 25.1204 69.5968 25.3687 70.2349 25.3687C70.8774 25.3687 71.3879 25.1181 71.7661 24.6168C72.1444 24.1109 72.3335 23.4046 72.3335 22.4977C72.3335 21.6865 72.1398 21.0302 71.7524 20.5289C71.3696 20.023 70.8592 19.7701 70.2212 19.7701C69.5968 19.7701 69.0933 20.0185 68.7104 20.5152C68.3276 21.012 68.1362 21.7229 68.1362 22.648ZM81.2339 26.2643H79.9692V19.9137H76.5649V26.2643H75.2935V18.8678H81.2339V26.2643ZM89.5122 22.648C89.5122 23.7737 89.2547 24.6806 88.7397 25.3687C88.2248 26.0569 87.5275 26.401 86.6479 26.401C85.7502 26.401 85.0438 26.1161 84.5288 25.5465V29.108H83.2642V18.8678H84.4194L84.481 19.6881C84.9959 19.0501 85.7114 18.731 86.6274 18.731C87.5161 18.731 88.2179 19.066 88.7329 19.7359C89.2524 20.4059 89.5122 21.3378 89.5122 22.5318V22.648ZM88.2476 22.5045C88.2476 21.6705 88.0698 21.012 87.7144 20.5289C87.3589 20.0458 86.8713 19.8043 86.2515 19.8043C85.4858 19.8043 84.9116 20.1438 84.5288 20.8228V24.357C84.9071 25.0315 85.4858 25.3687 86.2651 25.3687C86.8713 25.3687 87.3521 25.1295 87.7075 24.651C88.0675 24.1679 88.2476 23.4524 88.2476 22.5045ZM90.7905 22.4977C90.7905 21.773 90.9318 21.1213 91.2144 20.5426C91.5015 19.9638 91.8979 19.5172 92.4038 19.2027C92.9142 18.8883 93.4953 18.731 94.147 18.731C95.1541 18.731 95.9676 19.0797 96.5874 19.7769C97.2118 20.4742 97.5239 21.4016 97.5239 22.5592V22.648C97.5239 23.3681 97.3849 24.0152 97.1069 24.5894C96.8335 25.1591 96.4393 25.6034 95.9243 25.9225C95.4139 26.2415 94.826 26.401 94.1606 26.401C93.158 26.401 92.3446 26.0523 91.7202 25.3551C91.1004 24.6578 90.7905 23.735 90.7905 22.5865V22.4977ZM92.062 22.648C92.062 23.4684 92.2511 24.1269 92.6294 24.6236C93.0122 25.1204 93.5226 25.3687 94.1606 25.3687C94.8032 25.3687 95.3136 25.1181 95.6919 24.6168C96.0701 24.1109 96.2593 23.4046 96.2593 22.4977C96.2593 21.6865 96.0656 21.0302 95.6782 20.5289C95.2954 20.023 94.785 19.7701 94.147 19.7701C93.5226 19.7701 93.019 20.0185 92.6362 20.5152C92.2534 21.012 92.062 21.7229 92.062 22.648ZM102.357 19.2916C103.287 19.2916 104.029 19.6038 104.585 20.2281C105.146 20.8479 105.426 21.6659 105.426 22.6822V22.7984C105.426 23.4957 105.292 24.12 105.023 24.6715C104.754 25.2184 104.367 25.6445 103.861 25.9498C103.36 26.2506 102.781 26.401 102.125 26.401C101.131 26.401 100.331 26.0706 99.7251 25.4098C99.119 24.7444 98.8159 23.8534 98.8159 22.7369V22.1217C98.8159 20.5676 99.103 19.3326 99.6772 18.4166C100.256 17.5006 101.108 16.9423 102.234 16.7418C102.872 16.6279 103.303 16.4889 103.526 16.3248C103.749 16.1607 103.861 15.9352 103.861 15.648H104.9C104.9 16.2177 104.77 16.662 104.51 16.981C104.255 17.3001 103.845 17.5256 103.28 17.6578L102.336 17.8697C101.584 18.0475 101.019 18.3482 100.641 18.7721C100.267 19.1913 100.024 19.7519 99.9097 20.4537C100.58 19.679 101.395 19.2916 102.357 19.2916ZM102.111 20.3307C101.491 20.3307 100.999 20.5403 100.634 20.9596C100.27 21.3743 100.087 21.9508 100.087 22.6891V22.7984C100.087 23.5914 100.27 24.2203 100.634 24.6852C101.003 25.1454 101.5 25.3756 102.125 25.3756C102.753 25.3756 103.25 25.1432 103.615 24.6783C103.979 24.2135 104.162 23.5344 104.162 22.6412C104.162 21.9439 103.977 21.3857 103.608 20.9664C103.243 20.5426 102.744 20.3307 102.111 20.3307ZM106.513 22.4977C106.513 21.773 106.654 21.1213 106.937 20.5426C107.224 19.9638 107.621 19.5172 108.126 19.2027C108.637 18.8883 109.218 18.731 109.87 18.731C110.877 18.731 111.69 19.0797 112.31 19.7769C112.934 20.4742 113.247 21.4016 113.247 22.5592V22.648C113.247 23.3681 113.108 24.0152 112.83 24.5894C112.556 25.1591 112.162 25.6034 111.647 25.9225C111.137 26.2415 110.549 26.401 109.883 26.401C108.881 26.401 108.067 26.0523 107.443 25.3551C106.823 24.6578 106.513 23.735 106.513 22.5865V22.4977ZM107.785 22.648C107.785 23.4684 107.974 24.1269 108.352 24.6236C108.735 25.1204 109.245 25.3687 109.883 25.3687C110.526 25.3687 111.036 25.1181 111.415 24.6168C111.793 24.1109 111.982 23.4046 111.982 22.4977C111.982 21.6865 111.788 21.0302 111.401 20.5289C111.018 20.023 110.508 19.7701 109.87 19.7701C109.245 19.7701 108.742 20.0185 108.359 20.5152C107.976 21.012 107.785 21.7229 107.785 22.648ZM114.949 26.2643V18.8678H117.833C118.818 18.8678 119.572 19.0409 120.096 19.3873C120.625 19.7291 120.889 20.2327 120.889 20.898C120.889 21.2398 120.787 21.5497 120.582 21.8277C120.376 22.1012 120.073 22.3108 119.672 22.4566C120.119 22.5615 120.477 22.7665 120.746 23.0719C121.019 23.3772 121.156 23.7418 121.156 24.1656C121.156 24.8447 120.905 25.3642 120.404 25.7242C119.907 26.0842 119.203 26.2643 118.292 26.2643H114.949ZM116.213 23.0172V25.2457H118.305C118.834 25.2457 119.228 25.1477 119.488 24.9518C119.752 24.7558 119.884 24.4801 119.884 24.1246C119.884 23.3863 119.342 23.0172 118.257 23.0172H116.213ZM116.213 22.0055H117.847C119.032 22.0055 119.625 21.6591 119.625 20.9664C119.625 20.2737 119.064 19.9159 117.943 19.8932H116.213V22.0055ZM127.397 26.2643C127.324 26.1184 127.265 25.8587 127.219 25.485C126.631 26.0956 125.93 26.401 125.114 26.401C124.385 26.401 123.785 26.1959 123.316 25.7857C122.851 25.371 122.619 24.8469 122.619 24.2135C122.619 23.4433 122.91 22.8463 123.494 22.4225C124.082 21.9941 124.906 21.7799 125.968 21.7799H127.199V21.1988C127.199 20.7568 127.067 20.4059 126.802 20.1461C126.538 19.8818 126.148 19.7496 125.633 19.7496C125.182 19.7496 124.804 19.8635 124.499 20.0914C124.193 20.3193 124.041 20.595 124.041 20.9185H122.769C122.769 20.5494 122.899 20.1939 123.159 19.8521C123.423 19.5058 123.778 19.2324 124.225 19.0318C124.676 18.8313 125.171 18.731 125.708 18.731C126.561 18.731 127.228 18.9452 127.711 19.3736C128.194 19.7975 128.445 20.3831 128.463 21.1305V24.5348C128.463 25.2138 128.55 25.7538 128.723 26.1549V26.2643H127.397ZM125.298 25.3004C125.695 25.3004 126.071 25.1978 126.426 24.9928C126.782 24.7877 127.039 24.5211 127.199 24.193V22.6754H126.208C124.658 22.6754 123.883 23.1288 123.883 24.0357C123.883 24.4322 124.015 24.7421 124.28 24.9654C124.544 25.1887 124.884 25.3004 125.298 25.3004ZM135.833 19.8932H133.351V26.2643H132.086V19.8932H129.653V18.8678H135.833V19.8932ZM138.444 21.4176H140.365C141.203 21.4267 141.866 21.6454 142.354 22.0738C142.842 22.5022 143.085 23.0833 143.085 23.817C143.085 24.5553 142.835 25.1477 142.333 25.5943C141.832 26.0409 141.158 26.2643 140.31 26.2643H137.179V18.8678H138.444V21.4176ZM138.444 22.4498V25.232H140.324C140.798 25.232 141.165 25.1113 141.424 24.8697C141.684 24.6236 141.814 24.2887 141.814 23.8648C141.814 23.4547 141.686 23.1197 141.431 22.86C141.181 22.5956 140.827 22.4589 140.372 22.4498H138.444Z" fill="white"/>
<path d="M23.1926 43.2633C34.4047 43.2633 43.494 34.174 43.494 22.9618C43.494 11.7497 34.4047 2.6604 23.1926 2.6604C11.9804 2.6604 2.89111 11.7497 2.89111 22.9618C2.89111 34.174 11.9804 43.2633 23.1926 43.2633Z" fill="#41B4E6" stroke="#ECEFF1" stroke-width="4"/>
<path d="M41.4948 22.9618C41.4948 22.5159 41.478 22.074 41.4466 21.636L33.8615 14.051L12.5247 22.4439L20.6883 30.6076L20.7954 30.9931L20.934 30.8533L20.9346 30.8539L20.7954 30.9931L29.8259 40.0236C36.6547 37.367 41.4948 30.73 41.4948 22.9618Z" fill="#0091C8"/>
<path d="M21.4155 25.6282L29.6864 31.8727L33.8614 14.051L12.5244 22.4439L19.017 24.5945L30.8661 16.6464L21.4155 25.6282Z" fill="white"/>
<path d="M19.0171 24.5945L20.7953 30.9932L21.4156 25.6282L30.8662 16.6464L19.0171 24.5945Z" fill="#D2D2D7"/>
<path d="M24.1036 27.6577L20.7952 30.9932L21.4155 25.6282L24.1036 27.6577Z" fill="#B9B9BE"/>
</svg>
