<svg width="154" height="45" viewBox="0 0 154 45" fill="none" xmlns="http://www.w3.org/2000/svg">
<rect x="35.3162" y="6.88677" width="118.559" height="28.533" rx="6" fill="#4CAF50"/>
<path d="M60.9854 25.7956H59.666V16.9225H54.7578V25.7956H53.4453V15.8424H60.9854V25.7956ZM62.8447 22.0289C62.8447 21.3043 62.986 20.6526 63.2686 20.0739C63.5557 19.4951 63.9521 19.0485 64.458 18.734C64.9684 18.4196 65.5495 18.2623 66.2012 18.2623C67.2083 18.2623 68.0218 18.611 68.6416 19.3082C69.266 20.0055 69.5781 20.9329 69.5781 22.0905V22.1793C69.5781 22.8994 69.4391 23.5465 69.1611 24.1207C68.8877 24.6904 68.4935 25.1347 67.9785 25.4538C67.4681 25.7728 66.8802 25.9323 66.2148 25.9323C65.2122 25.9323 64.3988 25.5836 63.7744 24.8864C63.1546 24.1891 62.8447 23.2663 62.8447 22.1178V22.0289ZM64.1162 22.1793C64.1162 22.9997 64.3053 23.6582 64.6836 24.1549C65.0664 24.6517 65.5768 24.9 66.2148 24.9C66.8574 24.9 67.3678 24.6494 67.7461 24.1481C68.1243 23.6422 68.3135 22.9359 68.3135 22.0289C68.3135 21.2178 68.1198 20.5615 67.7324 20.0602C67.3496 19.5543 66.8392 19.3014 66.2012 19.3014C65.5768 19.3014 65.0732 19.5498 64.6904 20.0465C64.3076 20.5433 64.1162 21.2542 64.1162 22.1793ZM77.2139 25.7956H75.9492V19.445H72.5449V25.7956H71.2734V18.3991H77.2139V25.7956ZM85.4922 22.1793C85.4922 23.305 85.2347 24.2119 84.7197 24.9C84.2048 25.5882 83.5075 25.9323 82.6279 25.9323C81.7301 25.9323 81.0238 25.6474 80.5088 25.0778V28.6393H79.2441V18.3991H80.3994L80.4609 19.2194C80.9759 18.5814 81.6914 18.2623 82.6074 18.2623C83.4961 18.2623 84.1979 18.5973 84.7129 19.2672C85.2324 19.9372 85.4922 20.8691 85.4922 22.0631V22.1793ZM84.2275 22.0358C84.2275 21.2018 84.0498 20.5433 83.6943 20.0602C83.3389 19.5771 82.8512 19.3356 82.2314 19.3356C81.4658 19.3356 80.8916 19.6751 80.5088 20.3541V23.8883C80.887 24.5628 81.4658 24.9 82.2451 24.9C82.8512 24.9 83.332 24.6608 83.6875 24.1823C84.0475 23.6992 84.2275 22.9837 84.2275 22.0358ZM86.7705 22.0289C86.7705 21.3043 86.9118 20.6526 87.1943 20.0739C87.4814 19.4951 87.8779 19.0485 88.3838 18.734C88.8942 18.4196 89.4753 18.2623 90.127 18.2623C91.1341 18.2623 91.9476 18.611 92.5674 19.3082C93.1917 20.0055 93.5039 20.9329 93.5039 22.0905V22.1793C93.5039 22.8994 93.3649 23.5465 93.0869 24.1207C92.8135 24.6904 92.4193 25.1347 91.9043 25.4538C91.3939 25.7728 90.806 25.9323 90.1406 25.9323C89.138 25.9323 88.3245 25.5836 87.7002 24.8864C87.0804 24.1891 86.7705 23.2663 86.7705 22.1178V22.0289ZM88.042 22.1793C88.042 22.9997 88.2311 23.6582 88.6094 24.1549C88.9922 24.6517 89.5026 24.9 90.1406 24.9C90.7832 24.9 91.2936 24.6494 91.6719 24.1481C92.0501 23.6422 92.2393 22.9359 92.2393 22.0289C92.2393 21.2178 92.0456 20.5615 91.6582 20.0602C91.2754 19.5543 90.765 19.3014 90.127 19.3014C89.5026 19.3014 88.999 19.5498 88.6162 20.0465C88.2334 20.5433 88.042 21.2542 88.042 22.1793ZM98.3369 18.8229C99.2666 18.8229 100.009 19.1351 100.565 19.7594C101.126 20.3792 101.406 21.1972 101.406 22.2135V22.3297C101.406 23.027 101.272 23.6513 101.003 24.2028C100.734 24.7497 100.347 25.1758 99.8408 25.4811C99.3395 25.7819 98.7607 25.9323 98.1045 25.9323C97.111 25.9323 96.3112 25.6019 95.7051 24.9411C95.099 24.2757 94.7959 23.3847 94.7959 22.2682V21.653C94.7959 20.0989 95.083 18.8639 95.6572 17.9479C96.236 17.0319 97.0882 16.4736 98.2139 16.2731C98.8519 16.1592 99.2826 16.0202 99.5059 15.8561C99.7292 15.692 99.8408 15.4664 99.8408 15.1793H100.88C100.88 15.749 100.75 16.1933 100.49 16.5123C100.235 16.8314 99.8249 17.0569 99.2598 17.1891L98.3164 17.401C97.5645 17.5788 96.9993 17.8795 96.6211 18.3034C96.2474 18.7226 96.0036 19.2832 95.8896 19.985C96.5596 19.2103 97.3753 18.8229 98.3369 18.8229ZM98.0908 19.862C97.471 19.862 96.9788 20.0716 96.6143 20.4909C96.2497 20.9056 96.0674 21.4821 96.0674 22.2204V22.3297C96.0674 23.1227 96.2497 23.7516 96.6143 24.2164C96.9834 24.6767 97.4801 24.9069 98.1045 24.9069C98.7334 24.9069 99.2301 24.6745 99.5947 24.2096C99.9593 23.7448 100.142 23.0657 100.142 22.1725C100.142 21.4752 99.957 20.917 99.5879 20.4977C99.2233 20.0739 98.7243 19.862 98.0908 19.862ZM102.493 22.0289C102.493 21.3043 102.634 20.6526 102.917 20.0739C103.204 19.4951 103.601 19.0485 104.106 18.734C104.617 18.4196 105.198 18.2623 105.85 18.2623C106.857 18.2623 107.67 18.611 108.29 19.3082C108.914 20.0055 109.227 20.9329 109.227 22.0905V22.1793C109.227 22.8994 109.088 23.5465 108.81 24.1207C108.536 24.6904 108.142 25.1347 107.627 25.4538C107.117 25.7728 106.529 25.9323 105.863 25.9323C104.861 25.9323 104.047 25.5836 103.423 24.8864C102.803 24.1891 102.493 23.2663 102.493 22.1178V22.0289ZM103.765 22.1793C103.765 22.9997 103.954 23.6582 104.332 24.1549C104.715 24.6517 105.225 24.9 105.863 24.9C106.506 24.9 107.016 24.6494 107.395 24.1481C107.773 23.6422 107.962 22.9359 107.962 22.0289C107.962 21.2178 107.768 20.5615 107.381 20.0602C106.998 19.5543 106.488 19.3014 105.85 19.3014C105.225 19.3014 104.722 19.5498 104.339 20.0465C103.956 20.5433 103.765 21.2542 103.765 22.1793ZM110.929 25.7956V18.3991H113.813C114.798 18.3991 115.552 18.5722 116.076 18.9186C116.605 19.2604 116.869 19.764 116.869 20.4293C116.869 20.7711 116.767 21.081 116.562 21.359C116.356 21.6325 116.053 21.8421 115.652 21.9879C116.099 22.0928 116.457 22.2978 116.726 22.6032C116.999 22.9085 117.136 23.2731 117.136 23.6969C117.136 24.376 116.885 24.8955 116.384 25.2555C115.887 25.6155 115.183 25.7956 114.271 25.7956H110.929ZM112.193 22.5485V24.777H114.285C114.814 24.777 115.208 24.679 115.468 24.4831C115.732 24.2871 115.864 24.0114 115.864 23.6559C115.864 22.9176 115.322 22.5485 114.237 22.5485H112.193ZM112.193 21.5368H113.827C115.012 21.5368 115.604 21.1904 115.604 20.4977C115.604 19.805 115.044 19.4472 113.923 19.4245H112.193V21.5368ZM123.377 25.7956C123.304 25.6497 123.245 25.39 123.199 25.0163C122.611 25.6269 121.91 25.9323 121.094 25.9323C120.365 25.9323 119.765 25.7272 119.296 25.317C118.831 24.9023 118.599 24.3782 118.599 23.7448C118.599 22.9746 118.89 22.3776 119.474 21.9538C120.062 21.5254 120.886 21.3112 121.948 21.3112H123.179V20.7301C123.179 20.2881 123.047 19.9372 122.782 19.6774C122.518 19.4131 122.128 19.2809 121.613 19.2809C121.162 19.2809 120.784 19.3948 120.479 19.6227C120.173 19.8506 120.021 20.1263 120.021 20.4498H118.749C118.749 20.0807 118.879 19.7252 119.139 19.3834C119.403 19.0371 119.758 18.7637 120.205 18.5631C120.656 18.3626 121.151 18.2623 121.688 18.2623C122.541 18.2623 123.208 18.4765 123.691 18.9049C124.174 19.3288 124.425 19.9144 124.443 20.6618V24.0661C124.443 24.7451 124.53 25.2851 124.703 25.6862V25.7956H123.377ZM121.278 24.8317C121.675 24.8317 122.051 24.7291 122.406 24.5241C122.762 24.319 123.019 24.0524 123.179 23.7243V22.2067H122.188C120.638 22.2067 119.863 22.6601 119.863 23.567C119.863 23.9635 119.995 24.2734 120.26 24.4967C120.524 24.72 120.864 24.8317 121.278 24.8317ZM131.812 19.4245H129.331V25.7956H128.066V19.4245H125.633V18.3991H131.812V19.4245ZM134.424 20.9489H136.345C137.183 20.958 137.846 21.1767 138.334 21.6051C138.822 22.0335 139.065 22.6146 139.065 23.3483C139.065 24.0866 138.815 24.679 138.313 25.1256C137.812 25.5722 137.138 25.7956 136.29 25.7956H133.159V18.3991H134.424V20.9489ZM134.424 21.9811V24.7633H136.304C136.778 24.7633 137.145 24.6426 137.404 24.401C137.664 24.1549 137.794 23.82 137.794 23.3961C137.794 22.986 137.666 22.651 137.411 22.3913C137.16 22.1269 136.807 21.9902 136.352 21.9811H134.424Z" fill="white"/>
<g clip-path="url(#clip0)">
<path d="M37.4862 7.14827C33.3211 3.15891 27.8407 0.905396 22.004 0.905396C5.25209 0.905396 -5.26671 18.8883 3.09828 33.1931L0 44.3467L11.5729 41.3565C16.6149 44.0553 20.7453 43.8164 22.0149 43.9756C41.4395 43.9756 51.1088 20.6911 37.4588 7.21887L37.4862 7.14827Z" fill="#ECEFF1"/>
<path d="M22.0442 40.2759L22.0332 40.2741H22.004C16.1911 40.2741 12.4771 37.5463 12.1118 37.3889L5.26122 39.1537L7.09717 32.556L6.66056 31.8772C4.85202 29.0246 3.89111 25.7393 3.89111 22.3563C3.89111 6.44054 23.5202 -1.51827 34.8794 9.73122C46.2111 20.8631 38.2553 40.2759 22.0442 40.2759Z" fill="#4CAF50"/>
<path d="M31.9819 26.8018L31.9655 26.9376C31.4156 26.6661 28.7375 25.3683 28.2388 25.1891C27.119 24.7782 27.435 25.1239 25.2848 27.5639C24.9651 27.9168 24.6473 27.944 24.1047 27.6996C23.5567 27.4281 21.7975 26.858 19.7149 25.0117C18.0927 23.5727 17.0039 21.8079 16.6824 21.2649C16.1471 20.349 17.267 20.2187 18.2863 18.3073C18.469 17.9271 18.3758 17.6285 18.2406 17.3588C18.1036 17.0873 17.013 14.4265 16.5563 13.3658C16.1179 12.3087 15.6667 12.4427 15.3287 12.4427C14.2765 12.3522 13.5074 12.3667 12.8296 13.0653C9.88114 16.2764 10.6247 19.5888 13.1475 23.1111C18.1055 29.5405 20.747 30.7242 25.5771 32.3678C26.8815 32.7786 28.0707 32.7207 29.0115 32.5868C30.0601 32.4221 32.2395 31.2817 32.6944 30.0056C33.1602 28.7296 33.1602 27.6707 33.0232 27.4263C32.888 27.182 32.53 27.0462 31.9819 26.8018Z" fill="#FAFAFA"/>
</g>
<defs>
<clipPath id="clip0">
<rect width="43.8435" height="43.4413" fill="white" transform="translate(0 0.905396)"/>
</clipPath>
</defs>
</svg>
