<svg width="439" height="428" viewBox="0 0 439 428" fill="none" xmlns="http://www.w3.org/2000/svg">
<path opacity="0.3" fill-rule="evenodd" clip-rule="evenodd" d="M-206.578 190.273C-237.719 143.22 -272.155 99.6115 -284.089 44.4633C-299.257 -25.6337 -334.974 -115.438 -283.549 -165.429C-230.365 -217.131 -140.375 -160.649 -66.4813 -167.078C-11.7946 -171.836 36.5365 -203.48 91.1587 -198.031C159.921 -191.171 243.169 -189.155 282.405 -132.272C321.63 -75.4061 294.081 3.15087 275.899 69.7967C260.941 124.622 222.645 165.851 188.646 211.388C153.229 258.824 129.096 320.464 73.5204 340.857C16.4903 361.783 -49.3263 347.105 -102.832 318.34C-152.435 291.673 -175.497 237.236 -206.578 190.273Z" fill="#FBCFD8"/>
</svg>
