<svg width="744" height="675" viewBox="0 0 744 675" fill="none" xmlns="http://www.w3.org/2000/svg">
<path fill-rule="evenodd" clip-rule="evenodd" d="M244.439 529.976C194.603 498.711 133.281 480.292 106.511 426.926C77.7737 369.638 61.037 292.217 96.289 234.636C131.59 176.975 213.166 182.949 273.235 154.594C314.554 135.091 348.736 102.477 392.95 94.603C441.595 85.94 490.119 89.7874 534.49 108.068C587.34 129.842 651.108 152.048 668.109 207.967C685.1 263.85 639.023 321.048 616.37 377.374C595.867 428.354 581.174 481.564 542.385 520.569C499.958 563.233 450.6 579.517 392.95 581.337C335.784 583.141 291.814 559.697 244.439 529.976Z" fill="#FBCFD8"/>
</svg>
