<svg width="200" height="165" viewBox="0 0 200 165" fill="none" xmlns="http://www.w3.org/2000/svg">
<g clip-path="url(#clip0)">
<path d="M150.657 29.8737C148.588 30.197 145.486 30.6821 143.417 31.0054C142.383 31.1671 140.477 32.5313 139.606 33.7337C139.443 32.693 140.315 31.4905 142.383 31.1671C135.143 32.2989 127.741 32.3898 121.536 33.3599C112.065 33.7742 101.723 35.391 92.2523 35.8054C87.9527 35.4113 84.85 35.8963 82.7815 36.2197C81.7473 36.3814 79.6789 36.7047 78.6447 36.8664C77.6104 37.0281 75.542 37.3514 74.3451 36.4723L74.1824 35.4315C75.0539 34.2291 76.2508 35.1082 77.285 34.9465C78.3192 34.7848 79.3535 34.6231 81.4219 34.2998C83.4904 33.9764 86.593 33.4914 88.6615 33.168C93.9953 33.4004 98.1322 32.7537 103.466 32.9861C113.808 31.3693 123.279 30.955 133.784 30.379C137.921 29.7323 142.22 30.1263 147.391 29.3179L148.426 29.1563L149.46 28.9946C151.528 28.6712 151.691 29.712 150.657 29.8737Z" fill="white"/>
<path d="M156.421 39.6349C151.25 40.4433 146.078 41.2517 140.745 41.0193C135.574 41.8277 130.24 41.5953 125.069 42.4037C114.564 42.9797 104.059 43.5557 92.6823 45.3342C86.477 46.3042 80.1089 46.2335 74.9378 47.0419C73.9036 47.2036 73.5782 45.122 74.6124 44.9603C79.7835 44.1519 85.1173 44.3843 90.2884 43.5759C95.4596 42.7675 100.793 42.9999 105.964 42.1915C116.469 41.6155 126.974 41.0395 138.513 40.3019C142.65 39.6551 147.821 38.8467 152.121 39.2408C153.155 39.0791 155.224 38.7558 156.421 39.6349C156.258 38.5941 156.258 38.5941 156.421 39.6349C156.258 38.5941 156.258 38.5941 156.421 39.6349C156.421 39.6349 156.258 38.5941 156.421 39.6349Z" fill="white"/>
<path d="M71.9399 54.9742C75.0426 54.4892 78.1453 54.0041 81.4106 54.5599C84.5133 54.0748 87.616 53.5898 89.8471 54.3072C96.0525 53.3372 101.224 52.5288 107.592 52.5995C119.131 51.8618 130.67 51.1241 142.209 50.3864C148.414 49.4163 155.817 49.3254 162.185 49.3961L162.347 50.4369C161.313 50.5986 161.313 50.5986 160.279 50.7603C155.108 51.5687 149.774 51.3363 144.603 52.1447C138.398 53.1147 133.064 52.8823 126.858 53.8524C115.157 53.5493 103.617 54.287 92.0783 55.0247C88.9756 55.5097 85.7102 54.9539 82.6076 55.439C79.5049 55.924 76.4022 56.4091 72.1026 56.015C71.2311 57.2175 70.9057 55.1359 71.9399 54.9742Z" fill="white"/>
<path d="M20.7991 114.148C23.797 106.216 32.6169 101.638 40.5652 98.2633C49.5478 94.7266 59.89 93.1098 70.2323 91.493C73.3349 91.008 77.6345 91.402 80.8999 91.9578C73.1722 89.9672 65.4446 87.9765 60.3314 82.3785C56.7406 79.7411 55.0556 75.7397 53.3705 71.7382C51.6855 67.7367 51.0347 63.5735 51.4181 59.2486C52.1848 50.5989 55.1828 42.6666 61.4461 35.2901C65.8037 29.2778 74.4609 23.6595 83.6062 21.1636C100.537 14.2518 121.384 12.059 139.942 15.5552C148.704 17.3842 157.791 21.2947 166.007 26.4077C174.223 31.5207 180.859 40.0795 180.254 49.77C180.58 51.8516 179.708 53.054 179 55.2973C179 55.2973 179 55.2973 179.162 56.3381C175.293 65.4729 166.961 73.1727 157.978 76.7094C162.22 83.51 166.462 90.3105 171.738 96.9493C171.9 97.9901 171.029 99.1926 169.994 99.3543C160.744 94.4029 151.494 89.4516 142.082 83.4595C126.348 91.2503 108.929 95.0397 91.7303 93.4634C96.1926 94.8982 99.4579 95.454 102.886 97.0505C103.92 96.8889 103.049 98.0913 103.049 98.0913C104.083 97.9297 105.28 98.8088 106.314 98.6471C109.905 101.284 113.496 103.922 117.086 106.559C120.677 109.196 122.362 113.198 124.047 117.199C124.698 121.363 124.152 124.647 123.769 128.972C119.516 142.431 106.722 148.696 93.2769 150.798C97.4138 150.151 102.585 149.343 106.559 147.655C108.628 147.332 110.533 145.968 112.602 145.644C113.636 145.483 114.67 145.321 115.542 144.119C116.576 143.957 117.447 142.755 118.482 142.593C118.482 142.593 118.482 142.593 118.644 143.634C117.773 144.836 117.773 144.836 116.739 144.998C115.704 145.159 114.833 146.362 113.799 146.524C111.893 147.888 109.824 148.211 107.756 148.534C103.782 150.222 99.6449 150.869 95.6707 152.556C87.5597 154.89 79.1232 155.143 70.524 154.355C68.4555 154.678 66.2244 153.961 62.959 153.405C60.7279 152.688 58.6594 153.011 56.4283 152.294C55.394 152.455 56.1029 150.212 57.2998 151.091C59.3682 150.768 61.5994 151.485 63.8305 152.203C66.0617 152.92 68.1301 152.597 70.3613 153.314C74.6609 153.708 78.9605 154.102 82.0631 153.617C85.1658 153.132 89.3027 152.486 92.4054 152C88.2685 152.647 84.1316 153.294 79.832 152.9C69.3271 153.476 59.5309 151.809 49.5721 149.101C49.026 152.385 49.6768 156.548 50.165 159.67C50.4904 161.752 48.4219 162.075 48.0965 159.993C47.4457 155.83 44.7264 151.99 41.1356 149.353C37.5448 146.716 33.954 144.078 30.3633 141.441C21.6593 133.206 16.9296 123.283 20.7991 114.148ZM135.876 84.4296C137.782 83.0654 139.688 81.7013 141.756 81.3779L142.791 81.2162C149.972 86.4909 156.828 89.684 164.881 93.7562C161.837 87.8348 158.955 82.9542 154.876 77.1945C154.713 76.1537 154.55 75.1129 155.585 74.9512C165.601 71.2528 172.899 63.7146 176.606 53.5391L177.64 53.3774C178.023 49.0525 178.569 45.7685 176.884 41.767C175.199 37.7655 172.48 33.9257 168.889 31.2883C161.545 24.9729 153.655 21.9414 144.73 19.0717C127.043 14.373 107.068 15.3633 89.8115 20.1935C73.5893 24.8619 57.1465 34.8961 52.673 53.7213C50.7092 61.4919 52.0109 69.8183 57.2867 76.4571C62.5626 83.0959 70.6157 87.1681 78.3433 89.1588C87.1052 90.9877 96.7387 91.6142 106.209 91.1999C116.714 90.6239 126.894 87.9663 135.876 84.4296ZM46.6321 150.626C46.3067 148.545 46.144 147.504 46.8528 145.261C46.6901 144.22 47.7243 144.058 48.7586 143.897C57.6832 146.766 66.2824 147.554 75.9158 148.181C84.3523 147.928 93.823 147.514 101.934 145.18C109.011 143.007 116.797 138.591 120.991 131.538C124.152 124.647 125.082 117.038 119.806 110.399C117.086 106.559 112.461 104.083 108.871 101.446C103.374 100.173 98.7491 97.6973 93.578 98.5057L93.4153 97.4649C94.4495 97.3032 96.6807 98.0206 97.7149 97.8589C94.4495 97.3032 91.0215 95.7066 87.7561 95.1509C83.4565 94.7568 78.1227 94.5244 72.7888 94.292C63.3181 94.7063 53.1386 97.3639 43.9933 99.8598C36.9165 102.032 27.9339 105.569 23.739 112.622C19.7068 120.716 23.4024 130.801 29.5497 136.237C34.6629 141.835 42.5532 144.867 46.6321 150.626Z" fill="white"/>
<path d="M108.65 106.812C106.582 107.135 104.513 107.458 102.282 106.741C100.213 107.064 97.9823 106.347 95.9139 106.67C91.6143 106.276 86.4432 107.085 82.1436 106.691C72.6729 107.105 64.0737 106.317 54.603 106.731C52.5345 107.054 49.2692 106.499 47.2007 106.822C45.1323 107.145 41.8669 106.59 39.7985 106.913C38.7642 107.075 38.4388 104.993 39.473 104.831C41.5415 104.508 43.7726 105.225 45.8411 104.902C48.0722 105.62 50.1407 105.296 52.2091 104.973C56.5087 105.367 61.6798 104.559 65.9794 104.953C75.4501 104.538 84.0493 105.326 93.52 104.912C95.5885 104.589 98.8538 105.145 100.922 104.821C102.991 104.498 106.256 105.054 108.325 104.73C109.521 105.609 109.684 106.65 108.65 106.812Z" fill="white"/>
<path d="M98.4123 115.876C93.0785 115.643 88.9416 116.29 83.6078 116.058C74.1371 116.472 63.4695 116.007 53.9988 116.422C50.7334 115.866 47.6307 116.351 45.5623 116.674C42.4596 117.159 39.1942 116.603 37.1258 116.927C36.0916 117.088 35.7662 115.007 36.8004 114.845C38.8688 114.522 42.1342 115.078 44.2026 114.754C46.2711 114.431 49.5365 114.987 51.6049 114.663C56.9387 114.896 61.0756 114.249 66.4094 114.481C75.8801 114.067 86.5478 114.532 96.0185 114.118C99.1211 113.632 101.352 114.35 104.455 113.865C105.489 113.703 107.558 113.38 108.755 114.259C109.789 114.097 111.857 113.774 113.054 114.653C114.088 114.491 114.251 115.532 113.217 115.694C111.148 116.017 108.046 116.502 105.815 115.785C102.712 116.27 100.643 116.593 98.4123 115.876Z" fill="white"/>
<path d="M93.1833 123.091C98.5171 123.323 103.851 123.555 109.185 123.788C110.219 123.626 110.382 124.667 109.347 124.829C108.313 124.99 108.313 124.99 107.279 125.152C97.8083 125.566 89.3718 125.819 80.7726 125.031C71.3019 125.445 61.6685 124.819 52.1978 125.233C46.864 125.001 41.5302 124.768 35.3248 125.738C34.2906 125.9 33.9652 123.818 36.0337 123.495C55.1378 123.707 74.0792 122.878 93.1833 123.091Z" fill="white"/>
<path d="M54.0213 75.9013L55.2183 76.7804C55.2183 76.7804 55.381 77.8212 56.4152 77.6596C56.5779 78.7003 55.7064 79.9028 55.5437 78.862C54.3468 77.9829 54.3468 77.9829 53.1498 77.1038C52.9871 76.063 51.7902 75.1839 51.6275 74.1431C50.2678 72.2232 49.9424 70.1416 48.5828 68.2217C46.8977 64.2202 46.2469 60.057 46.6303 55.7322C46.4676 54.6914 47.5018 54.5297 47.6645 55.5705C48.3154 59.7337 48.9662 63.8968 49.4543 67.0192C49.7797 69.1008 51.1394 71.0207 52.3363 71.8998C52.8244 75.0222 54.0213 75.9013 54.0213 75.9013Z" fill="white"/>
<path d="M182.102 54.8122C182.811 52.569 182.486 50.4874 182.16 48.4058C181.509 44.2426 180.859 40.0794 178.139 36.2396C173.735 28.3983 164.322 22.4062 156.432 19.3748C154.038 17.6165 151.807 16.8991 148.541 16.3433C145.276 15.7876 142.011 15.2318 139.78 14.5144C138.745 14.6761 139.617 13.4736 139.617 13.4736C142.72 12.9886 144.951 13.706 148.216 14.2617C151.481 14.8175 153.713 15.5349 156.978 16.0907C161.44 17.5256 166.065 20.0012 169.656 22.6386C177.872 27.7516 184.507 36.3103 185.1 46.8799C185.426 48.9615 184.879 52.2456 184.171 54.4889C184.333 55.5297 183.462 56.7321 182.59 57.9346C181.719 59.1371 180.847 60.3396 179.813 60.5012C180.847 60.3396 180.685 59.2988 181.556 58.0963C181.393 57.0555 182.265 55.853 182.102 54.8122Z" fill="white"/>
<path d="M132.052 12.5238C130.855 11.6447 130.855 11.6447 132.052 12.5238C130.855 11.6447 130.855 11.6447 131.727 10.4422L132.761 10.2806C133.795 10.1189 134.992 10.998 136.026 10.8363C137.223 11.7154 137.386 12.7562 136.352 12.9179C134.283 13.2413 133.086 12.3621 132.052 12.5238Z" fill="white"/>
<path d="M120.305 93.2612C126.836 94.3727 132.716 91.321 138.596 88.2694C140.501 86.9052 141.536 86.7435 142.732 87.6226C144.964 88.3401 146.161 89.2192 148.392 89.9366C150.786 91.6949 154.214 93.2914 157.642 94.888C158.839 95.7671 161.07 96.4845 163.464 98.2427C164.661 99.1218 166.892 99.8393 168.089 100.718C169.286 101.598 168.251 101.759 167.217 101.921C163.952 101.365 161.395 98.5661 158.13 98.0103C154.702 96.4138 152.308 94.6556 148.88 93.059C146.649 92.3416 145.452 91.4625 144.255 90.5833C143.221 90.745 143.058 89.7042 142.024 89.8659C140.989 90.0276 139.955 90.1893 139.955 90.1893C137.015 91.7151 134.075 93.2409 130.101 94.9284C127.161 96.4543 123.024 97.101 119.596 95.5045C118.562 95.6661 119.271 93.4229 120.305 93.2612Z" fill="white"/>
<path d="M14.7565 116.159C15.3026 112.875 16.0114 110.632 17.7544 108.227C19.4974 105.822 22.2747 103.255 24.1804 101.891C26.9577 99.3243 30.9319 97.6368 34.0345 97.1517C36.9745 95.6259 40.9487 93.9384 44.0513 93.4534C48.0255 91.7659 52.1624 91.1191 56.2993 90.4724C58.3677 90.1491 60.4362 89.8257 62.5046 89.5023C64.5731 89.179 66.6415 88.8556 68.8727 89.5731C68.8727 89.5731 68.8727 89.5731 69.0354 90.6138C66.9669 90.9372 65.9327 91.0989 63.8643 91.4222C61.7958 91.7456 60.7616 91.9073 58.6932 92.2306C55.5905 92.7157 51.4536 93.3624 48.5136 94.8882C41.4368 97.0608 35.3942 99.0717 29.5143 102.123C26.5743 103.649 23.6343 105.175 21.8913 107.58C20.1483 109.985 18.4053 112.39 17.6964 114.633C16.4415 120.16 17.4178 126.405 20.2998 131.286C21.8221 134.247 24.3787 137.046 25.901 140.006C27.0979 140.885 28.4576 142.805 29.6545 143.684C30.8514 144.563 32.2111 146.483 33.408 147.363C33.5707 148.403 33.5707 148.403 32.5365 148.565C31.3395 147.686 30.1426 146.807 28.9457 145.928C27.7487 145.049 26.5518 144.169 25.1922 142.25C22.6356 139.45 21.276 137.531 19.7536 134.57C15.512 127.769 14.6985 122.565 14.7565 116.159Z" fill="white"/>
<path d="M117.085 11.6649C115.016 11.9883 113.982 12.15 111.914 12.4733C108.811 12.9584 105.708 13.4434 101.571 14.0901C95.3661 15.0602 88.2892 17.2327 82.4093 20.2844C80.3409 20.6078 79.4694 21.8102 77.5636 23.1744C75.6579 24.5385 74.7864 25.741 72.7179 26.0644C71.6837 26.2261 71.521 25.1853 71.3583 24.1445C72.2298 22.942 74.1356 21.5778 75.1698 21.4162C77.0755 20.052 79.144 19.7287 80.0155 18.5262C82.9554 17.0003 85.8954 15.4745 90.0323 14.8278C93.1349 14.3428 97.1091 12.6552 100.212 12.1702C103.314 11.6852 107.451 11.0384 110.554 10.5534C112.622 10.2301 114.691 9.90669 115.888 10.7858C117.956 10.4624 120.187 11.1799 121.384 12.059C120.187 11.1799 118.119 11.5032 117.085 11.6649Z" fill="white"/>
<path d="M65.8038 29.2778C65.8038 29.2778 64.7696 29.4394 65.8038 29.2778C64.7696 29.4394 64.7696 29.4394 65.8038 29.2778C64.6069 28.3986 65.4784 27.1962 65.6411 28.237C65.6411 28.237 65.6411 28.237 66.6754 28.0753C66.5127 27.0345 67.5469 26.8728 67.5469 26.8728C67.7096 27.9136 67.8723 28.9544 66.8381 29.1161C67.0008 30.1569 65.9665 30.3185 65.8038 29.2778Z" fill="white"/>
</g>
<defs>
<clipPath id="clip0">
<rect width="179" height="138" fill="white" transform="matrix(-0.988 0.154454 0.154454 0.988 177.778 0.0442505)"/>
</clipPath>
</defs>
</svg>
