<svg width="85" height="85" viewBox="0 0 85 85" fill="none" xmlns="http://www.w3.org/2000/svg">
<path d="M42.7197 80.5926C63.9812 80.5926 81.2196 63.3635 81.2196 42.1074C81.2196 20.8512 63.9812 3.62213 42.7197 3.62213C21.4581 3.62213 4.21973 20.8512 4.21973 42.1074C4.21973 63.3635 21.4581 80.5926 42.7197 80.5926Z" fill="#41B4E6" stroke="#ECEFF1" stroke-width="7"/>
<g clip-path="url(#clip0)">
<path d="M42.7192 77.2882C62.0492 77.2882 77.7192 61.6182 77.7192 42.2882C77.7192 22.9583 62.0492 7.28824 42.7192 7.28824C23.3893 7.28824 7.71924 22.9583 7.71924 42.2882C7.71924 61.6182 23.3893 77.2882 42.7192 77.2882Z" fill="#F0F0F0"/>
<path d="M14.9545 20.9795C12.2052 24.5565 10.1321 28.6792 8.92505 33.158H27.133L14.9545 20.9795Z" fill="#0052B4"/>
<path d="M76.5136 33.158C75.3065 28.6794 73.2333 24.5566 70.4841 20.9797L58.3059 33.158H76.5136Z" fill="#0052B4"/>
<path d="M8.92505 51.4189C10.1323 55.8975 12.2053 60.0203 14.9545 63.5971L27.1326 51.4189H8.92505Z" fill="#0052B4"/>
<path d="M64.028 14.5235C60.451 11.7743 56.3284 9.70119 51.8496 8.49396V26.7018L64.028 14.5235Z" fill="#0052B4"/>
<path d="M21.4106 70.0529C24.9876 72.8022 29.1104 74.8753 33.589 76.0825V57.8749L21.4106 70.0529Z" fill="#0052B4"/>
<path d="M33.5889 8.49396C29.1102 9.70119 24.9875 11.7743 21.4106 14.5234L33.5889 26.7016V8.49396Z" fill="#0052B4"/>
<path d="M51.8499 76.0825C56.3285 74.8753 60.4512 72.8022 64.0281 70.0531L51.8499 57.8749V76.0825Z" fill="#0052B4"/>
<path d="M58.3059 51.4189L70.4841 63.5972C73.2333 60.0204 75.3065 55.8975 76.5136 51.4189H58.3059Z" fill="#0052B4"/>
<path d="M77.423 37.7231H47.2847H47.2845V7.58451C45.7901 7.38996 44.2665 7.28824 42.7192 7.28824C41.1717 7.28824 39.6484 7.38996 38.1541 7.58451V37.7228V37.7229H8.01551C7.82096 39.2174 7.71924 40.741 7.71924 42.2882C7.71924 43.8358 7.82096 45.3591 8.01551 46.8534H38.1538H38.1539V76.992C39.6484 77.1865 41.1717 77.2882 42.7192 77.2882C44.2665 77.2882 45.7901 77.1867 47.2844 76.992V46.8537V46.8535H77.423C77.6175 45.3591 77.7192 43.8358 77.7192 42.2882C77.7192 40.741 77.6175 39.2174 77.423 37.7231Z" fill="#D80027"/>
<path d="M51.8499 51.4189L67.4681 67.0371C68.1864 66.319 68.8716 65.5683 69.5254 64.7901L56.154 51.4187H51.8499V51.4189Z" fill="#D80027"/>
<path d="M33.5888 51.4189H33.5885L17.9705 67.0369C18.6885 67.7553 19.4392 68.4405 20.2174 69.0943L33.5888 55.7226V51.4189Z" fill="#D80027"/>
<path d="M33.5886 33.158V33.1577L17.9704 17.5394C17.2521 18.2575 16.5669 19.0082 15.9131 19.7864L29.2846 33.1579H33.5886V33.158Z" fill="#D80027"/>
<path d="M51.8499 33.158L67.4682 17.5396C66.7501 16.8212 65.9994 16.136 65.2212 15.4823L51.8499 28.8539V33.158Z" fill="#D80027"/>
</g>
<defs>
<clipPath id="clip0">
<rect width="70" height="70" fill="white" transform="translate(7.71924 7.28824)"/>
</clipPath>
</defs>
</svg>
