<svg width="85" height="85" viewBox="0 0 85 85" fill="none" xmlns="http://www.w3.org/2000/svg">
<path d="M42.4092 80.9394C63.6707 80.9394 80.9092 63.7104 80.9092 42.4543C80.9092 21.1981 63.6707 3.96912 42.4092 3.96912C21.1476 3.96912 3.90918 21.1981 3.90918 42.4543C3.90918 63.7104 21.1476 80.9394 42.4092 80.9394Z" fill="#41B4E6" stroke="#ECEFF1" stroke-width="7"/>
<g clip-path="url(#clip0)">
<path d="M42.4097 77.598C61.7396 77.598 77.4097 61.9279 77.4097 42.598C77.4097 23.268 61.7396 7.59796 42.4097 7.59796C23.0797 7.59796 7.40967 23.268 7.40967 42.598C7.40967 61.9279 23.0797 77.598 42.4097 77.598Z" fill="#F0F0F0"/>
<path d="M75.2327 54.7718C76.6397 50.9802 77.4097 46.8792 77.4097 42.598C77.4097 38.3168 76.6397 34.2157 75.2327 30.4241H9.58664C8.1798 34.2157 7.40967 38.3168 7.40967 42.598C7.40967 46.8792 8.1798 50.9802 9.58664 54.7718L42.4097 57.8153L75.2327 54.7718Z" fill="#0052B4"/>
<path d="M42.4097 77.598C57.4585 77.598 70.2875 68.0998 75.2327 54.7718H9.58667C14.5319 68.0998 27.3609 77.598 42.4097 77.598Z" fill="#D80027"/>
</g>
<defs>
<clipPath id="clip0">
<rect width="70" height="70" fill="white" transform="translate(7.40967 7.59796)"/>
</clipPath>
</defs>
</svg>
