<svg width="268" height="141" viewBox="0 0 268 141" fill="none" xmlns="http://www.w3.org/2000/svg">
<g clip-path="url(#clip0)">
<path d="M95.0727 94.2864C95.3993 94.2439 95.7117 94.0924 95.6549 93.657C95.6928 93.0985 95.7166 92.4312 95.6456 91.8869C96.7013 88.0959 97.5393 84.3332 98.6092 80.6511C99.7975 76.1785 100.957 71.4883 101.355 66.8973C101.573 66.869 101.777 66.7317 101.857 66.4998C104.532 59.8407 110.278 54.6633 111.438 47.4267C111.571 46.7452 110.534 46.4375 110.278 47.0243C110.155 46.9297 110.032 46.835 109.909 46.7403C105.886 45.6041 101.65 45.3814 97.509 45.0356C93.0412 44.7323 88.6254 43.9795 84.1149 43.3497C74.8479 41.9007 65.5809 40.4518 56.3565 39.3294C53.7676 39.0026 51.2876 38.6617 48.7129 38.4438C48.8075 38.3207 48.9164 38.3065 49.011 38.1835C49.5128 37.786 48.978 37.0807 48.4621 37.3694C48.0408 37.535 47.6338 37.8095 47.1179 38.0981C46.886 38.0177 46.5594 38.0602 46.3275 37.9798C46.8292 37.5822 47.3309 37.1847 47.7096 36.6925C47.9936 36.3234 47.4872 35.8358 47.0802 36.1103C46.266 36.6593 45.5608 37.194 44.7609 37.8519C39.4742 37.2125 34.2018 36.6821 28.9293 36.1516C24.5561 35.7253 20.2634 35.0671 15.9706 34.4089C12.1275 33.8028 7.65496 32.6145 3.69814 33.6839C3.58928 33.6981 3.49462 33.8211 3.49462 33.8211C3.38576 33.8353 3.18223 33.9726 3.19642 34.0814C2.9787 34.1098 2.80356 34.4648 2.9408 34.6683C6.58001 40.5043 12.0368 44.9962 16.2724 50.3116C20.9197 56.2376 25.5528 62.0548 30.0913 67.9949C34.3695 73.6369 38.6618 79.3878 42.533 85.3042C44.5916 88.3571 46.2289 91.5756 47.8805 94.903C49.2434 97.7145 50.3885 100.554 52.2673 103.077C51.9975 103.555 52.7216 104.014 53.2234 103.617C55.8503 100.839 59.2724 99.0641 62.4483 97.1002C65.9367 94.9848 69.4108 92.7606 72.885 90.5363C75.545 88.8611 78.205 87.1858 80.9739 85.4963C82.8764 87.3518 85.1576 88.715 87.3299 90.0925C89.3934 91.4841 90.8747 93.5052 93.2079 94.4188C93.3168 94.4046 93.4399 94.4993 93.5487 94.4851C94.164 94.9585 94.8171 94.8733 95.0727 94.2864ZM90.889 91.0677C91.405 90.7791 92.0297 90.4762 92.5456 90.1875C92.9527 89.913 93.4828 89.7332 93.8898 89.4587C93.9182 89.6765 93.8519 90.0172 93.8803 90.2349C93.1751 90.7697 92.4698 91.3045 91.7504 91.7304C91.5185 91.6499 91.2582 91.3517 90.889 91.0677ZM85.2997 87.2573C86.9705 86.486 88.6129 85.4969 90.2553 84.5078C91.68 83.5471 93.2419 82.79 94.6666 81.8293C94.6287 82.3878 94.4961 83.0693 94.4582 83.6278C93.1803 84.0158 91.9733 84.9481 90.8468 85.6485C89.3938 86.3915 88.1868 87.3238 86.8568 88.1614C86.2557 87.7969 85.7777 87.5271 85.2997 87.2573ZM83.7284 86.2443C85.4513 85.0234 87.4061 83.8829 89.2662 82.8654C91.221 81.7249 93.1474 80.3667 94.9792 79.1315C94.9271 79.5812 94.875 80.0308 94.714 80.4946C94.714 80.4946 94.714 80.4946 94.6052 80.5088C91.4576 82.6905 88.2296 85.104 84.8217 86.9875C84.5756 86.7982 84.2065 86.5142 83.7284 86.2443ZM97.3787 79.7044C96.9243 81.3136 96.3751 83.0458 95.8118 84.6691C95.8924 81.8909 95.9873 79.2215 96.1768 76.4291C96.8963 76.0032 96.6455 74.9288 95.964 74.7962C95.8409 74.7016 95.7178 74.6069 95.4859 74.5264C91.7233 73.6884 88.1595 71.8281 84.8277 70.0483C80.9089 68.0128 77.0044 66.0862 72.991 64.1738C65.3333 60.633 57.3396 57.911 49.5068 54.7252C41.6882 51.6482 34.0305 48.1074 26.4676 44.4435C19.8464 41.2104 13.1827 37.6508 6.38638 34.7727C9.01785 35.426 11.2565 36.4627 13.7128 37.471C16.879 38.8296 20.4097 39.5871 23.6707 40.8226C32.2938 44.1268 40.9028 47.3222 49.6065 50.3945C58.0783 53.3864 66.5358 56.2693 74.9792 59.0435C83.1907 61.7371 91.634 64.5112 100.153 66.1684C100.262 66.1542 100.371 66.14 100.48 66.1258C100.48 66.1258 100.48 66.1258 100.494 66.2347C99.7979 71.0859 98.6901 75.3265 97.3787 79.7044ZM16.5763 35.6585C20.8833 36.4255 25.176 37.0837 29.5634 37.6188C34.0597 38.1398 38.5701 38.7696 43.1752 39.2764C42.7824 39.6597 42.3753 39.9342 41.9825 40.3175C41.6843 40.5778 42.0818 41.0795 42.38 40.8192C42.9764 40.2987 43.6958 39.8728 44.3064 39.461C44.6472 39.5273 45.0968 39.5794 45.4376 39.6457C44.6376 40.3035 43.8519 41.0702 42.929 41.6334C42.6166 41.7848 42.9052 42.3007 43.2176 42.1493C44.4672 41.5435 45.6883 40.7201 46.8953 39.7878C50.2746 40.2329 53.5308 40.5834 56.9101 41.0286C65.9168 42.1793 74.9661 43.6567 83.8924 45.0393C88.294 45.6833 92.8186 46.422 97.2865 46.7252C101.428 47.071 105.664 47.2938 109.687 48.43C109.796 48.4158 109.919 48.5105 110.027 48.4963C108.262 54.4833 103.438 59.0976 100.854 64.7485C100.745 64.7627 100.731 64.6539 100.622 64.6681C92.3867 62.6418 84.2178 60.2747 76.1294 57.6757C76.8772 57.4675 77.502 57.1647 78.2498 56.9565C80.0578 56.3886 82.0031 56.0244 83.6597 55.1441C83.8632 55.0069 83.726 54.8034 83.5225 54.9406C80.872 55.8397 78.0984 56.6441 75.4337 57.4343C74.6291 57.2071 73.8103 56.871 73.0057 56.6437C74.1748 56.2699 75.3297 55.7872 76.4987 55.4134C78.1979 54.8598 79.8024 54.4292 81.3501 53.5632C81.459 53.549 81.4306 53.3313 81.2129 53.3596C79.6368 54.0079 78.0323 54.4385 76.3189 54.8833C74.8233 55.2997 73.4507 55.8107 72.0781 56.3218C71.5054 56.175 70.9186 55.9194 70.3459 55.7727C73.2141 54.8452 75.9593 53.8231 78.7187 52.9098C78.8275 52.8956 78.7992 52.6779 78.7045 52.801C75.5902 53.5391 72.5184 54.6038 69.4324 55.5596C68.7367 55.3182 68.041 55.0767 67.2364 54.8495C70.2419 54.1256 73.3136 53.0609 76.1393 51.8069C76.2482 51.7927 76.2198 51.575 76.0021 51.6033C72.8214 52.6822 69.5036 53.5576 66.323 54.6365C65.5184 54.4092 64.8227 54.1678 64.0039 53.8317C67.0094 53.1078 70.0811 52.0431 72.7837 50.6944C72.8926 50.6802 72.7695 50.5855 72.7695 50.5855C69.5322 51.229 66.2711 52.5398 63.0762 53.5098C62.6124 53.3488 62.0398 53.2021 61.5759 53.0411C64.3353 52.1279 66.806 50.6987 69.731 50.2067C69.9487 50.1783 69.9062 49.8517 69.6884 49.8801C68.1644 50.0788 66.7918 50.5898 65.4192 51.1009C63.9378 51.6261 62.3333 52.0567 60.9891 52.7855C60.9891 52.7855 60.9891 52.7855 60.8802 52.7997C60.2933 52.5441 59.7207 52.3973 59.1338 52.1417C61.5666 51.271 63.8622 50.1968 66.3091 49.435C66.5269 49.4066 66.4843 49.08 66.2666 49.1084C63.5877 49.7897 60.9655 50.9065 58.2062 51.8198C57.6193 51.5641 57.0466 51.4174 56.3509 51.176C58.5944 50.5514 60.729 49.941 62.821 49.004C63.0245 48.8668 62.8731 48.5544 62.6554 48.5828C60.3456 49.5481 57.8844 50.2011 55.4233 50.854C54.9595 50.6931 54.4956 50.5321 53.923 50.3854C55.8398 49.8034 57.6479 49.2355 59.5648 48.6535C59.7825 48.6251 59.7257 48.1897 59.5222 48.3269C57.3876 48.9373 55.376 49.6424 53.2414 50.2528C52.7776 50.0918 52.4226 49.9167 51.973 49.8646C53.4687 49.4482 55.0448 48.7999 56.5404 48.3835C56.7581 48.3551 56.6067 48.0428 56.389 48.0711C54.6898 48.6248 52.8534 48.9749 51.1684 49.6374C50.5958 49.4906 50.1178 49.2208 49.5451 49.074C51.0407 48.6576 52.4133 48.1466 53.909 47.7302C54.1267 47.7018 54.0841 47.3752 53.8664 47.4036C52.153 47.8484 50.4539 48.402 48.7405 48.8468C48.6174 48.7521 48.3997 48.7805 48.2767 48.6858C47.9359 48.6195 47.6898 48.4302 47.349 48.3639C48.3146 48.1273 49.1571 47.7961 50.0137 47.5737C50.2315 47.5453 50.1889 47.2188 49.9712 47.2471C48.7879 47.5121 47.6047 47.7771 46.4214 48.042C46.0806 47.9757 45.8345 47.7864 45.4938 47.7201C46.0239 47.5403 46.4451 47.3747 46.9752 47.1949C47.1787 47.0576 47.0273 46.7452 46.8096 46.7736C46.076 47.0907 45.437 47.2847 44.675 47.384C44.32 47.2089 43.9793 47.1426 43.6243 46.9674L43.7332 46.9532C44.0598 46.9107 44.481 46.7451 44.8076 46.7025C45.0253 46.6741 44.9827 46.3475 44.765 46.3759C44.1118 46.461 43.4587 46.5462 42.8197 46.7402C35.9855 44.4206 29.246 41.9779 22.4923 39.4263C16.775 37.1825 9.66633 34.4558 4.51692 34.02C8.47841 33.8357 12.6102 34.9577 16.5763 35.6585ZM72.8093 89.107C69.1317 91.4684 65.5629 93.8157 61.8852 96.1772C59.0216 97.9897 56.1439 99.6934 53.7867 101.993C51.9221 99.5795 50.7627 96.6308 49.414 93.9281C47.9139 90.9132 46.3049 87.9123 44.3836 85.063C40.5124 79.1465 36.1112 73.4099 31.9419 67.7537C27.4034 61.8135 22.6614 56.0106 18.0141 50.0846C13.8069 44.9869 9.11215 40.3956 4.7014 35.4352C11.6112 39.1842 18.7909 42.4551 25.89 45.958C33.5903 49.8254 41.4798 53.4467 49.4357 56.7272C57.2685 59.913 65.1533 62.6493 72.8252 66.2989C76.8386 68.2113 80.7431 70.1379 84.6761 72.2822C87.4069 73.6976 90.3696 75.1934 93.3702 76.1307C90.2605 77.7539 87.3023 79.6895 84.4671 81.7197C80.5859 84.2184 76.6905 86.6083 72.8093 89.107ZM82.0341 85.1367C82.7394 84.6019 83.5677 84.1618 84.2729 83.6271C87.9364 81.1567 91.491 78.7006 95.4574 76.855C95.3911 77.1958 95.339 77.6454 95.2727 77.9862L95.1638 78.0004C93.2232 79.2497 91.4057 80.5938 89.4651 81.8431C87.4156 83.1067 85.3662 84.3702 83.4823 86.055C82.8955 85.7994 82.5263 85.5154 82.0341 85.1367ZM87.1029 88.3507C88.2578 87.8681 89.3842 87.1677 90.5249 86.5761C91.7745 85.9704 92.9956 85.147 94.2594 84.6501C94.2073 85.0997 94.1552 85.5494 94.0889 85.8901C92.243 87.0164 90.4112 88.2516 88.4281 89.1744C88.0589 88.8904 87.5809 88.6206 87.1029 88.3507ZM89.1522 89.6335C89.9947 89.3023 90.8229 88.8622 91.6371 88.3132C92.4653 87.8731 93.2936 87.433 94.1219 86.9929C94.0698 87.4425 94.0319 88.001 94.0887 88.4364C92.8534 89.151 91.618 89.8656 90.4915 90.566C90.0135 90.2962 89.5213 89.9175 89.1522 89.6335ZM92.4887 92.2984C93.0046 92.0097 93.5205 91.7211 94.0364 91.4324C93.8755 91.8962 93.8376 92.4547 93.6908 93.0274C93.2128 92.7576 92.8578 92.5824 92.4887 92.2984Z" fill="#3F92D1"/>
<path d="M262.611 73.3317C248.498 72.0717 233.148 74.0726 220.284 79.8458C214.85 82.3255 209.436 85.7991 205.99 90.7874C204.669 90.8488 203.363 91.0191 202.056 91.1894C196.083 92.0788 190.281 94.2744 185.027 97.2842C182.149 98.9878 179.546 101.099 176.805 103.006C173.251 105.462 169.587 107.932 165.867 109.967C158.739 113.885 150.002 117.349 141.819 114.873C140.209 114.419 138.681 113.733 137.232 112.814C143.641 109.322 148.796 103.004 148.811 95.4736C148.802 88.6108 141.844 83.6502 135.289 85.169C130.135 86.3944 128.312 91.946 128.052 96.7405C127.848 101.97 129.187 107.996 132.788 111.844C133.034 112.033 133.172 112.237 133.432 112.535C133.011 112.7 132.589 112.866 132.168 113.032C125.523 115.559 117.406 115.288 110.761 112.722C104.007 110.171 98.8725 104.751 95.9102 98.1628C95.6073 97.538 94.5471 97.8976 94.8642 98.6313C98.0205 105.859 103.648 111.657 110.988 114.464C118.452 117.366 127.492 117.073 134.828 113.903L134.937 113.888C140.2 117.741 147.271 118.48 153.637 117.208C161.825 115.476 169.194 110.862 176.114 106.196C181.609 102.49 186.518 98.5291 192.619 96.0731C196.41 94.5825 200.461 93.3901 204.626 93.0686C201.781 98.4213 201.327 105.123 204.459 110.472C208.155 116.743 217.016 115.92 221.701 111.102C226.387 106.285 222.966 97.8738 218.508 94.2481C215.664 91.9619 212.105 90.9866 208.427 90.8018C208.522 90.6787 208.711 90.4326 208.806 90.3096C212.73 85.5911 218.528 82.5104 224.222 80.3289C236.031 75.8003 249.652 74.1353 262.213 75.3763C263.671 75.5184 263.96 73.4879 262.611 73.3317ZM133.087 109.037C131.468 106.812 130.65 103.93 130.186 101.223C129.467 96.556 129.756 89.433 134.797 87.3366C137.215 86.3571 140.297 87.0625 142.549 88.2081C145.744 89.7844 146.988 93.3862 146.761 96.7371C146.292 103.33 141.104 108.545 135.401 111.503C134.525 110.732 133.759 109.946 133.087 109.037ZM211.068 93.2252C217.187 94.3095 222.8 99.9989 221.773 106.554C221.1 110.738 216.154 112.711 212.411 112.867C208.776 113.009 206.296 110.121 205.108 106.955C203.381 102.198 204.484 97.0726 207.035 92.8652C208.37 92.9126 209.719 93.0689 211.068 93.2252Z" fill="#3F92D1"/>
<path d="M71.5403 93.8114C68.5253 95.3116 65.3873 96.717 62.4007 98.4349C59.1159 100.413 56.0109 102.921 52.7545 105.117C52.7545 105.117 52.6456 105.131 52.6598 105.24C51.33 103.531 50.4877 101.316 49.3613 99.4704C47.9464 97.1086 46.4367 94.8698 44.9271 92.631C41.8794 87.9357 39.3334 82.8429 36.0822 78.2848C35.9592 78.1901 35.8645 78.3132 35.8787 78.422C38.1786 83.3255 41.1032 87.9262 43.919 92.541C45.3339 94.9029 46.8436 97.1416 48.3674 99.4893C49.754 101.633 50.6247 104.066 52.2006 105.964C52.3379 106.168 52.6645 106.125 52.868 105.988C52.991 106.083 53.3318 106.149 53.5353 106.012C56.5078 104.185 59.0968 101.965 61.9462 100.044C65.0938 97.8624 68.3786 95.8842 71.6918 94.1238C71.7864 94.0008 71.6492 93.7973 71.5403 93.8114Z" fill="#3F92D1"/>
<path d="M69.5807 96.6132C66.3055 97.8151 63.6217 100.158 60.7581 101.97C57.6911 103.92 54.6382 105.979 51.7083 108.132L51.6136 108.255C50.5725 107.062 50.033 105.472 49.3989 104.005C48.7364 102.32 47.6669 100.909 46.5832 99.3898C44.1128 95.7263 41.7514 92.0486 39.6881 88.1107C39.6739 88.0018 39.4562 88.0302 39.4704 88.139C40.6628 92.1905 43.0242 95.8682 45.3573 99.3282C46.5925 101.16 47.7993 102.774 48.6132 104.771C49.2615 106.347 49.8956 107.815 51.1687 109.088C51.3059 109.291 51.6183 109.14 51.713 109.017C51.836 109.112 52.0537 109.083 52.2573 108.946C54.9836 106.93 57.833 105.009 60.6823 103.087C63.6406 101.152 66.4048 98.5771 69.7748 97.2522C70.3049 97.0724 70.1109 96.4334 69.5807 96.6132Z" fill="#3F92D1"/>
<path d="M90.5823 76.8263C90.6912 76.8121 90.7859 76.689 90.8664 76.4571C90.9752 76.4429 91.0983 76.5376 91.0983 76.5376C91.6709 76.6844 91.7751 75.7851 91.2025 75.6383C86.2803 74.3979 82.2859 70.9331 77.5389 69.3378C77.307 69.2573 77.1318 69.6123 77.3637 69.6928C81.5144 71.8087 85.3147 74.6345 89.8299 76.1494C88.1875 77.1385 86.6823 78.3311 85.0541 79.429C82.7206 81.0617 80.3588 82.4767 78.0111 84.0005C77.8076 84.1377 77.959 84.4501 78.1626 84.3129C80.2262 83.1582 82.2898 82.0035 84.3393 80.74C86.4171 79.6941 88.4098 77.9951 90.5823 76.8263Z" fill="#3F92D1"/>
<path d="M23.9446 46.3223C18.9089 44.2111 14.4933 40.9119 9.53811 38.5687C9.0601 38.2989 8.61515 39.1319 9.20201 39.3875C14.1572 41.7307 18.6533 44.798 23.7695 46.6773C24.0156 46.8666 24.2854 46.3886 23.9446 46.3223Z" fill="#3F92D1"/>
<path d="M5.88006 39.3777C4.18108 37.385 2.4679 35.2835 0.972446 33.1535C0.944064 32.9358 0.740537 33.073 0.768919 33.2908C1.72008 35.4917 3.41906 37.4843 4.88614 39.3966C6.50465 41.6212 8.53021 43.5713 10.054 45.9189C10.3285 46.326 10.9391 45.9143 10.6646 45.5072C9.26383 43.2542 7.36132 41.3988 5.88006 39.3777Z" fill="#3F92D1"/>
<path d="M5.28768 40.7834C3.98623 39.2925 2.01743 37.7778 1.2177 35.8893C1.17513 35.5627 0.862745 35.7141 0.891127 35.9319C1.32171 37.5364 2.71783 38.9043 3.88204 40.1917C5.44378 41.9809 6.88247 43.6754 8.34955 45.5876C8.73289 45.9805 9.32928 45.4599 9.0548 45.0528C7.8622 43.5477 6.57494 42.1656 5.28768 40.7834Z" fill="#3F92D1"/>
<path d="M102.591 58.5438C101.483 60.2381 100.499 62.0271 99.732 63.7877C99.5569 64.1426 100.144 64.3983 100.319 64.0433C101.261 61.9278 102.515 59.6608 103.812 57.7203C104.92 56.026 106.382 54.5069 107.135 52.6374C107.216 52.4055 106.875 52.3392 106.78 52.4623C105.743 54.7009 103.983 56.4803 102.591 58.5438Z" fill="#3F92D1"/>
<path d="M98.3549 63.4137C98.1798 63.7686 98.7667 64.0243 98.9418 63.6693C100.584 60.1339 102.951 57.0577 105.195 53.8867C105.289 53.7637 105.029 53.4655 104.949 53.6974C102.568 56.6648 99.9833 59.7694 98.3549 63.4137Z" fill="#3F92D1"/>
<path d="M97.2237 63.229C97.0486 63.584 97.6354 63.8396 97.8106 63.4846C99.3206 60.6308 100.869 57.2184 103.117 54.9326C103.226 54.9184 103.103 54.8237 102.994 54.8379C101.839 55.3206 100.854 57.1096 100.206 58.0798C99.084 59.6652 98.2083 61.44 97.2237 63.229Z" fill="#3F92D1"/>
<path d="M97.8155 59.277C97.0581 60.2614 96.2061 61.3689 95.8037 62.5284C95.6286 62.8834 96.2154 63.139 96.3906 62.784C96.793 61.6245 97.6592 60.6259 98.3077 59.6557C99.1455 58.4394 100.092 57.2089 101.053 56.0873C101.242 55.8412 100.887 55.666 100.793 55.7891C99.6142 56.9391 98.6533 58.0607 97.8155 59.277Z" fill="#3F92D1"/>
<path d="M95.3825 62.6941C96.121 60.7157 97.773 58.9505 98.3884 56.8775L98.3742 56.7686C97.8441 56.9484 97.347 58.231 97.063 58.6002C96.3341 59.8023 95.2785 61.047 94.8903 62.3154C94.7294 62.7792 95.2074 63.049 95.3825 62.6941Z" fill="#3F92D1"/>
<path d="M94.1142 62.3059C94.4928 61.8137 94.7343 61.1179 95.0041 60.6399C95.4632 59.9158 95.7993 59.097 96.2585 58.3729C96.339 58.141 96.0929 57.9517 95.9035 58.1978C95.0657 59.4141 94.474 60.8197 93.6362 62.0361C93.5557 62.268 93.9248 62.552 94.1142 62.3059Z" fill="#3F92D1"/>
<path d="M108.02 57.7254C106.884 59.202 105.98 60.759 104.967 62.3303C103.94 63.7927 102.927 65.364 102.254 67.0015C102.269 67.1104 102.269 67.1104 102.283 67.2192C101.951 68.9231 101.715 70.5039 101.492 72.1935C101.336 73.5424 100.948 74.8108 101.023 76.2401C101.037 76.349 101.255 76.3206 101.241 76.2118C101.416 73.3105 102.325 70.0921 102.95 67.243C102.936 67.1341 102.936 67.1341 102.922 67.0252C104.157 63.7643 106.799 61.0951 108.252 57.8058C108.238 57.697 108.115 57.6023 108.02 57.7254Z" fill="#3F92D1"/>
</g>
<defs>
<clipPath id="clip0">
<rect width="255.458" height="108.682" fill="white" transform="translate(0.522217 33.1015) rotate(-7.42725)"/>
</clipPath>
</defs>
</svg>
