<svg width="201" height="249" viewBox="0 0 201 249" fill="none" xmlns="http://www.w3.org/2000/svg">
<g opacity="0.5" clip-path="url(#clip0)">
<path d="M183.798 204.627C181.893 204.627 179.988 204.627 178.083 204.627C176.179 204.627 176.179 206.532 174.274 206.532L174.274 204.627L174.274 202.722C176.179 202.722 176.179 200.817 176.179 200.817C178.083 157.008 178.083 113.198 178.083 69.3889C178.083 63.6746 178.083 57.9603 178.083 50.3412C178.083 46.5317 178.083 44.6269 178.083 40.8174C178.083 40.8174 178.083 40.8174 178.083 38.9127C181.893 38.9127 183.798 38.9127 185.702 37.0079C187.607 35.1031 191.417 33.1984 191.417 29.3889C191.417 29.3889 191.417 29.3889 193.322 29.3889C195.226 29.3889 195.226 25.5793 193.322 25.5793C195.226 23.6746 193.322 19.865 191.417 17.9603C187.607 16.0555 183.798 14.1508 181.893 12.246C178.083 12.246 174.274 10.3412 172.369 10.3412C157.131 4.62695 143.798 2.72219 128.56 0.81743C99.9882 -1.08733 71.4167 2.72219 44.7501 10.3412C40.9405 14.1508 37.131 14.1508 33.3215 16.0555C29.512 17.9603 25.7025 19.865 21.8929 21.7698C19.9882 23.6746 18.0834 25.5793 16.1786 29.3889C16.1786 31.2936 16.1786 33.1984 16.1786 35.1031C16.1786 35.1031 16.1786 37.0079 18.0834 37.0079C18.0834 37.0079 16.1786 37.0079 18.0834 38.9127C18.0834 38.9127 19.9882 38.9127 21.8929 40.8174C21.8929 42.7222 19.9882 44.627 19.9882 46.5317C19.9882 44.627 21.8929 42.7222 21.8929 38.9127C21.8929 38.9127 21.8929 38.9127 23.7977 38.9127C23.7977 40.8174 23.7977 40.8174 23.7977 42.7222C23.7977 46.5317 23.7977 48.4365 23.7977 52.246C23.7977 57.9603 23.7977 63.6746 23.7977 69.3889C23.7977 80.8174 23.7977 92.246 21.8929 103.675C21.8929 128.436 19.9882 151.294 19.9882 176.056C19.9882 189.389 18.0834 200.817 18.0834 214.151C16.1786 214.151 14.2739 216.056 12.3691 217.96C12.3691 219.865 10.4644 221.77 10.4644 221.77C10.4644 229.389 18.0834 231.294 23.7977 231.294C33.3215 233.198 40.9405 233.198 50.4644 235.103C59.9882 237.008 67.6072 237.008 77.131 237.008C94.2739 238.913 113.322 238.913 130.464 238.913C139.988 238.913 147.607 237.008 157.131 237.008C164.75 235.103 174.274 235.103 179.988 231.294C187.607 227.484 191.417 217.96 187.607 210.341C189.512 208.436 185.702 206.532 183.798 204.627ZM174.274 48.4365C174.274 54.1508 174.274 59.865 174.274 63.6746C174.274 75.1031 174.274 86.5317 174.274 96.0555C172.369 118.913 172.369 141.77 170.464 162.722C170.464 176.056 170.464 187.484 170.464 200.817C170.464 202.722 172.369 202.722 172.369 202.722L172.369 204.627L172.369 206.532C170.464 210.341 170.464 212.246 166.655 214.151C162.845 217.96 159.036 217.96 155.226 219.865C147.607 221.77 141.893 221.77 134.274 221.77C138.083 219.865 141.893 219.865 145.702 216.056C153.322 210.341 159.036 202.722 157.131 193.198C157.131 187.484 153.322 183.675 149.512 179.865C147.607 179.865 147.607 179.865 147.607 181.77C149.512 185.579 151.417 189.389 151.417 193.198C151.417 193.198 151.417 193.198 149.512 193.198L147.607 193.198L145.702 193.198C143.798 193.198 143.798 195.103 141.893 195.103C139.988 197.008 136.179 197.008 134.274 198.913C128.56 200.817 122.845 204.627 117.131 206.532C111.417 208.436 105.702 212.246 99.9882 214.151C96.1786 216.056 92.3691 217.96 88.5596 219.865C88.5596 219.865 86.6548 219.865 86.6548 221.77C84.7501 221.77 80.9406 221.77 79.0358 221.77C84.7501 219.865 90.4644 217.96 96.1786 216.056C101.893 214.151 107.607 210.341 113.322 208.436C119.036 206.532 124.75 202.722 130.464 200.817C134.274 198.913 136.179 198.913 139.988 197.008C141.893 197.008 141.893 195.103 143.798 195.103C145.702 195.103 147.607 193.198 147.607 193.198C149.512 191.294 147.607 189.389 145.702 189.389C143.798 189.389 139.988 191.294 138.083 193.198C134.274 195.103 132.369 195.103 128.56 197.008C122.845 198.913 117.131 202.722 111.417 204.627C105.702 206.532 99.9882 210.341 94.2739 212.246C88.5596 214.151 82.8453 217.96 77.131 219.865C75.2263 219.865 73.3215 219.865 71.4167 219.865C73.3215 219.865 73.3215 219.865 75.2263 219.865C77.131 219.865 77.131 217.96 75.2263 216.056L73.3215 216.056C84.7501 212.246 96.1786 206.532 109.512 200.817C115.226 198.913 122.845 195.103 128.56 193.198C126.655 193.198 130.464 191.294 132.369 191.294C136.179 189.389 139.988 189.389 141.893 187.484C143.798 187.484 141.893 183.675 139.988 183.675C136.179 183.675 134.274 185.579 130.464 187.484C128.56 189.389 126.655 189.389 122.845 191.294C117.131 193.198 109.512 197.008 103.798 198.913C90.4644 204.627 79.0358 210.341 65.7025 216.056L63.7977 216.056C61.8929 216.056 61.8929 214.151 59.9882 214.151C63.7977 214.151 67.6072 212.246 69.512 210.341C73.3215 208.436 75.2263 208.436 79.0358 206.532C84.7501 204.627 92.3691 200.817 98.0834 198.913C103.798 197.008 111.417 193.198 117.131 189.389C120.941 187.484 122.845 185.579 126.655 185.579C130.464 183.675 134.274 183.675 136.179 181.77C136.179 181.77 138.083 179.865 136.179 179.865L138.083 179.865C139.988 179.865 139.988 177.96 139.988 177.96C143.798 172.246 139.988 172.246 138.083 170.341C136.179 168.436 134.274 168.436 132.369 166.532C126.655 162.722 122.845 158.913 119.036 155.103C113.322 149.389 111.417 141.77 109.512 132.246C111.417 137.96 117.131 141.77 120.941 147.484C126.655 151.294 130.464 155.103 136.179 158.913C141.893 162.722 145.702 164.627 151.417 168.436C153.322 170.341 155.226 172.246 157.131 174.151C159.036 176.056 159.036 177.96 159.036 179.865C159.036 181.77 159.036 185.579 159.036 187.484C159.036 191.294 159.036 193.198 159.036 197.008C159.036 198.913 159.036 200.817 159.036 200.817C159.036 200.817 159.036 200.817 159.036 202.722C159.036 204.627 159.036 206.532 159.036 208.436C159.036 210.341 159.036 210.341 159.036 212.246C159.036 214.151 159.036 214.151 159.036 216.056C159.036 217.96 160.941 217.96 160.941 217.96C162.845 216.056 162.845 214.151 162.845 210.341L162.845 208.436C162.845 208.436 162.845 208.436 162.845 206.532L162.845 204.627C164.75 202.722 164.75 200.817 164.75 197.008C164.75 193.198 164.75 191.294 164.75 187.484C164.75 181.77 164.75 176.056 164.75 170.341C164.75 158.913 164.75 147.484 164.75 137.96C164.75 115.103 166.655 94.1508 166.655 71.2936C166.655 65.5793 166.655 59.865 166.655 52.246C166.655 48.4365 166.655 46.5317 166.655 42.7222C166.655 40.8174 166.655 40.8174 166.655 38.9127C168.56 38.9127 170.464 38.9127 170.464 38.9127C174.274 42.7222 174.274 46.5317 174.274 48.4365ZM105.702 223.675C107.607 223.675 107.607 221.77 109.512 221.77C113.322 219.865 117.131 217.96 120.941 216.056C128.56 212.246 136.179 210.341 143.798 204.627C145.702 202.722 143.798 200.817 141.893 200.817C134.274 206.532 126.655 210.341 119.036 214.151C115.226 216.056 111.417 217.96 107.607 219.865C103.798 221.77 101.893 223.675 98.0834 223.675C96.1786 223.675 92.3691 223.675 90.4644 223.675C94.2739 221.77 98.0834 221.77 101.893 219.865C107.607 217.96 113.322 216.056 119.036 212.246C124.75 210.341 130.464 206.532 136.179 204.627C138.083 202.722 141.893 202.722 143.798 200.817C145.702 198.913 149.512 198.913 151.417 197.008C151.417 197.008 151.417 197.008 151.417 195.103C151.417 197.008 151.417 197.008 151.417 198.913C151.417 204.627 149.512 208.436 145.702 212.246C143.798 214.151 139.988 216.056 138.083 216.056C138.083 214.151 138.083 214.151 136.179 214.151C132.369 216.056 128.56 217.96 122.845 219.865C120.941 219.865 119.036 219.865 117.131 221.77C117.131 221.77 117.131 221.77 117.131 223.675C113.322 223.675 109.512 223.675 105.702 223.675ZM164.75 52.246C164.75 57.9603 164.75 63.6746 164.75 69.3889C164.75 80.8174 164.75 92.246 162.845 101.77C162.845 124.627 160.941 145.579 160.941 168.436L160.941 170.341C160.941 170.341 160.941 168.436 159.036 168.436C155.226 164.627 151.417 162.722 145.702 158.913C139.988 157.008 134.274 153.198 130.464 149.389C124.75 145.579 119.036 141.77 115.226 136.056C113.322 134.151 111.417 130.341 111.417 126.532C111.417 122.722 111.417 120.817 109.512 117.008C109.512 115.103 111.417 111.294 113.322 109.389C115.226 107.484 119.036 105.579 122.845 103.675C126.655 101.77 128.56 99.8651 132.369 97.9603C143.798 90.3412 153.322 78.9127 159.036 67.4841C162.845 61.7698 164.75 54.1508 164.75 48.4365C164.75 48.4365 164.75 50.3412 164.75 52.246ZM59.9882 214.151C59.9882 214.151 58.0834 214.151 58.0834 212.246C58.0834 210.341 58.0834 210.341 58.0834 210.341C63.7977 208.436 71.4167 204.627 77.131 202.722C84.7501 198.913 90.4644 197.008 98.0834 193.198C103.798 189.389 111.417 187.484 117.131 183.675C120.941 181.77 122.845 179.865 126.655 177.96C128.56 176.056 132.369 174.151 134.274 174.151C136.179 174.151 136.179 176.056 138.083 176.056C134.274 177.96 132.369 179.865 128.56 179.865C124.75 181.77 122.845 183.675 119.036 185.579C113.322 189.389 105.702 191.294 99.9882 195.103C94.2739 198.913 86.6548 200.817 80.9406 204.627C77.131 206.532 75.2263 208.436 71.4167 208.436C67.6072 208.436 63.7977 210.341 59.9882 214.151C59.9882 212.246 59.9882 212.246 59.9882 214.151ZM115.226 179.865C107.607 181.77 101.893 185.579 94.2739 189.389C88.5596 193.198 80.9406 195.103 75.2263 198.913C69.512 202.722 61.8929 204.627 56.1786 208.436L54.2739 206.532C56.1786 206.532 56.1786 206.532 56.1786 204.627C56.1786 204.627 56.1786 204.627 54.2739 204.627C54.2739 204.627 54.2739 202.722 56.1786 202.722C58.0834 202.722 59.9882 200.817 59.9882 200.817C63.7977 198.913 65.7025 198.913 69.512 197.008C75.2263 193.198 80.9406 191.294 88.5596 187.484C96.1786 183.675 99.9882 181.77 107.607 177.96C109.512 177.96 111.417 176.056 115.226 174.151C117.131 172.246 120.941 170.341 124.75 170.341C126.655 168.436 124.75 166.532 122.845 166.532C119.036 166.532 117.131 168.436 113.322 170.341C111.417 172.246 107.607 174.151 103.798 176.056C98.0834 179.865 92.3691 181.77 84.7501 185.579C79.0358 189.389 73.3215 191.294 65.7025 195.103C61.8929 197.008 59.9882 198.913 56.1786 200.817C54.2739 200.817 52.3691 202.722 52.3691 204.627C52.3691 202.722 52.3691 200.817 52.3691 198.913C58.0834 197.008 63.7977 193.198 69.512 191.294C75.2263 187.484 80.9406 185.579 86.6548 181.77C92.3691 177.96 98.0834 176.056 103.798 172.246C109.512 168.436 115.226 166.532 120.941 162.722C122.845 164.627 124.75 166.532 128.56 170.341L130.464 172.246C124.75 174.151 120.941 176.056 115.226 179.865ZM103.798 168.436C98.0834 172.246 90.4644 174.151 84.7501 177.96C79.0358 181.77 73.3215 183.675 67.6072 187.484C61.8929 189.389 58.0834 193.198 52.3691 195.103C52.3691 193.198 52.3691 191.294 52.3691 191.294C54.2739 191.294 54.2739 191.294 54.2739 189.389C58.0834 189.389 58.0834 189.389 59.9882 187.484C61.8929 185.579 63.7977 183.675 67.6072 183.675C73.3215 179.865 77.131 176.056 82.8453 174.151C88.5596 172.246 94.2739 168.436 99.9882 166.532C101.893 164.627 105.702 164.627 107.607 162.722C109.512 162.722 113.322 160.817 115.226 158.913L115.226 157.008C111.417 157.008 107.607 158.913 105.702 158.913C103.798 160.817 99.9882 162.722 98.0834 162.722C92.3691 166.532 86.6548 168.436 80.9406 170.341C77.131 174.151 71.4167 176.056 65.7025 179.865C63.7977 181.77 61.8929 183.675 58.0834 185.579L56.1786 187.484C56.1786 187.484 56.1786 187.484 54.2739 187.484C54.2739 185.579 56.1786 181.77 58.0834 179.865C61.8929 177.96 63.7977 177.96 67.6072 176.056C69.512 174.151 73.3215 174.151 75.2263 172.246C80.9406 168.436 88.5596 164.627 94.2739 162.722C98.0834 160.817 99.9882 158.913 103.798 157.008C105.702 157.008 107.607 155.103 107.607 155.103L109.512 153.198C113.322 153.198 115.226 155.103 115.226 157.008C115.226 158.913 117.131 158.913 119.036 158.913C113.322 162.722 107.607 164.627 103.798 168.436ZM109.512 149.389C107.607 151.294 98.0834 157.008 96.1786 157.008C92.3691 158.913 86.6548 160.817 82.8453 164.627C79.0358 168.436 73.3215 168.436 69.512 172.246C67.6072 172.246 63.7977 174.151 61.8929 176.056C59.9882 176.056 59.9882 177.96 58.0834 177.96C59.9882 174.151 61.8929 172.246 61.8929 170.341L63.7977 170.341C65.7025 170.341 65.7025 168.436 67.6072 168.436C69.512 166.532 71.4167 166.532 73.3215 164.627C77.131 162.722 80.9406 160.817 84.7501 158.913C90.4644 155.103 94.2739 153.198 98.0834 151.294C99.9882 149.389 101.893 149.389 103.798 147.484C105.702 147.484 107.607 145.579 107.607 145.579C109.512 147.484 109.512 147.484 109.512 149.389ZM107.607 143.675C105.702 143.675 103.798 143.675 103.798 145.579C101.893 147.484 99.9882 147.484 98.0834 149.389C92.3691 151.294 88.5596 153.198 84.7501 155.103C80.9406 157.008 77.131 160.817 73.3215 162.722C71.4167 162.722 69.512 164.627 67.6072 166.532L65.7025 168.436C67.6072 166.532 67.6072 164.627 69.512 162.722C75.2263 158.913 80.9406 157.008 86.6548 153.198C90.4644 149.389 92.3691 147.484 96.1786 145.579C98.0834 143.675 99.9882 143.675 101.893 141.77C103.798 141.77 105.702 139.865 105.702 137.96C105.702 137.96 105.702 136.056 103.798 136.056C101.893 136.056 99.9882 137.96 98.0834 137.96C98.0834 141.77 96.1786 141.77 94.2739 143.675C90.4644 145.579 88.5596 147.484 84.7501 149.389C80.9406 151.294 77.131 155.103 73.3215 157.008C77.131 153.198 79.0358 149.389 82.8453 145.579C86.6548 143.675 88.5596 139.865 90.4644 136.056C92.3691 136.056 94.2739 134.151 96.1786 134.151C98.0834 132.246 101.893 132.246 101.893 128.436C101.893 126.532 101.893 126.532 99.9882 126.532C98.0834 126.532 98.0834 128.436 96.1786 128.436C96.1786 126.532 96.1786 124.627 98.0834 124.627C99.9882 122.722 101.893 122.722 101.893 120.817L101.893 118.913C99.9882 118.913 99.9882 118.913 98.0834 118.913C98.0834 117.008 98.0834 117.008 98.0834 115.103C99.9882 115.103 101.893 115.103 103.798 113.198L103.798 111.294C101.893 111.294 99.9882 113.198 99.9882 113.198C99.9882 113.198 99.9882 113.198 99.9882 111.294C103.798 109.389 107.607 107.484 111.417 105.579C113.322 105.579 115.226 103.675 117.131 103.675C115.226 101.77 115.226 101.77 117.131 101.77C113.322 103.675 111.417 105.579 109.512 107.484C107.607 109.389 105.702 113.198 103.798 117.008C103.798 118.913 103.798 120.817 103.798 122.722C103.798 124.627 103.798 126.532 103.798 128.436C103.798 128.436 103.798 128.436 105.702 128.436C105.702 128.436 105.702 128.436 105.702 130.341C101.893 134.151 99.9882 136.056 96.1786 137.96C92.3691 141.77 88.5596 143.675 84.7501 145.579C82.8453 145.579 84.7501 147.484 86.6548 147.484C90.4644 145.579 96.1786 143.675 99.9882 139.865C101.893 137.96 105.702 136.056 107.607 134.151C105.702 137.96 107.607 141.77 107.607 143.675ZM159.036 54.1508C157.131 54.1508 155.226 54.1508 153.322 56.0555C155.226 54.1508 157.131 54.1508 159.036 54.1508ZM147.607 61.7698C151.417 59.865 153.322 59.865 155.226 57.9603L157.131 57.9603C157.131 59.865 155.226 61.7698 155.226 61.7698C153.322 61.7698 153.322 61.7698 151.417 63.6746C149.512 63.6746 145.702 65.5793 143.798 67.4841C143.798 67.4841 143.798 67.4841 143.798 69.3889C141.893 69.3889 141.893 69.3889 139.988 71.2936C141.893 67.4841 143.798 65.5793 147.607 61.7698ZM71.4167 90.3412C75.2263 82.7222 84.7501 84.627 90.4644 84.627C92.3691 84.627 94.2739 84.627 96.1786 84.627C90.4644 86.5317 82.8453 90.3412 75.2263 92.246C75.2263 92.246 73.3215 90.3412 71.4167 90.3412ZM111.417 82.7222C117.131 80.8174 122.845 77.0079 128.56 75.1031C128.56 75.1031 130.464 75.1031 130.464 73.1984C132.369 73.1984 132.369 73.1984 134.274 71.2936C134.274 71.2936 136.179 71.2936 136.179 69.3889C138.083 69.3889 139.988 67.4841 141.893 67.4841C141.893 67.4841 141.893 67.4841 143.798 67.4841C147.607 69.3889 149.512 67.4841 153.322 67.4841C151.417 67.4841 151.417 69.3889 149.512 71.2936C147.607 71.2936 143.798 73.1984 141.893 73.1984C138.083 75.1031 136.179 77.0079 134.274 77.0079C128.56 78.9127 122.845 80.8174 117.131 84.627C111.417 86.5317 105.702 88.4365 99.9882 90.3412C96.1786 92.246 90.4644 94.1508 84.7501 97.9603C82.8453 96.0555 80.9406 96.0555 79.0358 94.1508C79.0358 94.1508 77.131 94.1508 77.131 92.246C88.5596 90.3412 99.9882 86.5317 111.417 82.7222ZM101.893 92.246C107.607 90.3412 113.322 88.4365 119.036 86.5317C122.845 84.627 128.56 82.7222 134.274 80.8174C136.179 78.9127 139.988 78.9127 141.893 77.0079C143.798 77.0079 145.702 75.1031 147.607 75.1031C145.702 77.0079 143.798 78.9127 141.893 80.8174C141.893 80.8174 141.893 80.8174 139.988 80.8174C136.179 80.8174 132.369 82.7222 126.655 84.627C124.75 86.5317 120.941 88.4365 117.131 90.3412C113.322 92.246 107.607 94.1508 103.798 96.0555C101.893 96.0555 99.9882 97.9603 98.0834 97.9603C98.0834 97.9603 94.2739 99.8651 92.3691 99.8651C92.3691 97.9603 90.4644 99.8651 90.4644 99.8651C90.4644 99.8651 88.5596 99.8651 86.6548 97.9603C92.3691 96.0555 96.1786 94.1508 101.893 92.246ZM130.464 92.246C126.655 92.246 124.75 94.1508 120.941 96.0555C119.036 96.0555 115.226 97.9603 111.417 99.8651C109.512 101.77 105.702 101.77 103.798 103.675C99.9882 105.579 98.0834 105.579 96.1786 107.484C96.1786 107.484 96.1786 105.579 94.2739 103.675L94.2739 101.77C96.1786 101.77 99.9882 99.8651 101.893 99.8651C103.798 97.9603 107.607 97.9603 109.512 96.0555C115.226 96.0555 120.941 92.246 126.655 90.3412C130.464 88.4365 134.274 86.5317 139.988 84.627C136.179 88.4365 134.274 90.3412 130.464 92.246ZM164.75 42.7222C164.75 42.7222 162.845 42.7222 162.845 44.627C162.845 46.5317 160.941 48.4365 160.941 50.3412C155.226 50.3412 151.417 54.1508 147.607 57.9603C143.798 61.7698 139.988 65.5793 134.274 69.3889C132.369 71.2936 128.56 71.2936 124.75 71.2936C120.941 73.1984 117.131 73.1984 113.322 77.0079C109.512 78.9127 107.607 80.8174 103.798 80.8174C98.0834 82.7222 94.2739 80.8174 88.5596 80.8174C80.9406 80.8174 71.4167 80.8174 69.512 88.4365C67.6072 86.5317 65.7025 86.5317 63.7977 84.627C54.2739 78.9127 46.6548 71.2936 42.8453 59.865C40.9405 57.9603 40.9405 54.1508 39.0358 52.246L39.0358 50.3412C39.0358 48.4365 39.0358 46.5317 39.0358 44.627C42.8453 44.627 46.6548 46.5317 50.4644 46.5317C63.7977 48.4365 77.131 48.4365 88.5596 48.4365C113.322 48.4365 139.988 46.5317 164.75 42.7222ZM33.3215 40.8174C31.4167 40.8174 31.4167 40.8174 29.512 40.8174L29.512 38.9127C31.4167 38.9127 33.3215 38.9127 33.3215 38.9127C33.3215 38.9127 33.3215 38.9127 33.3215 40.8174ZM37.131 141.77C37.131 117.008 37.131 94.1508 39.0358 69.3889C39.0358 67.4841 39.0358 63.6746 39.0358 61.7698C40.9405 65.5793 42.8453 69.3889 46.6548 73.1984C52.3691 84.627 63.7977 90.3412 73.3215 96.0555C79.0358 99.8651 84.7501 101.77 92.3691 103.675C92.3691 105.579 92.3691 107.484 92.3691 109.389C92.3691 109.389 92.3691 109.389 90.4644 109.389C90.4644 113.198 92.3691 115.103 92.3691 115.103L92.3691 117.008C90.4644 117.008 92.3691 118.913 92.3691 118.913C92.3691 120.817 92.3691 122.722 90.4644 124.627L88.5596 126.532L88.5596 128.436C86.6548 134.151 82.8453 139.865 77.131 143.675C71.4167 149.389 63.7977 153.198 58.0834 158.913C50.4644 162.722 44.7501 168.436 39.0358 174.151C37.131 174.151 35.2263 176.056 35.2263 177.96C35.2263 166.532 35.2263 153.198 37.131 141.77ZM33.3215 214.151C33.3215 208.436 33.3215 202.722 35.2263 197.008L35.2263 195.103C35.2263 195.103 37.131 195.103 37.131 193.198C37.131 185.579 40.9405 181.77 46.6548 176.056C52.3691 170.341 59.9882 166.532 65.7025 160.817C67.6072 158.913 69.512 158.913 69.512 157.008C61.8929 164.627 58.0834 170.341 54.2739 176.056C48.5596 187.484 44.7501 202.722 54.2739 214.151C56.1786 216.056 59.9882 219.865 63.7977 221.77C61.8929 221.77 61.8929 221.77 59.9882 221.77C52.3691 219.865 40.9405 217.96 33.3215 214.151ZM179.988 35.1031C178.083 35.1031 178.083 33.1984 178.083 33.1984L176.179 33.1984C174.274 33.1984 174.274 35.1031 174.274 37.0079C172.369 37.0079 170.464 37.0079 168.56 38.9127C168.56 38.9127 168.56 38.9127 168.56 40.8174L166.655 40.8174C151.417 40.8174 139.988 40.8174 126.655 42.7222C101.893 44.627 79.0358 44.627 54.2739 42.7222C48.5596 42.7222 42.8453 42.7222 37.131 40.8174C37.131 40.8174 37.131 40.8174 37.131 38.9127C39.0358 38.9127 39.0358 38.9127 39.0358 38.9127C56.1786 40.8174 73.3215 42.7222 90.4644 42.7222C111.417 40.8174 134.274 38.9127 155.226 37.0079C160.941 37.0079 166.655 35.1031 172.369 33.1984C176.179 33.1984 178.083 31.2936 181.893 31.2936C183.798 31.2936 183.798 31.2936 185.702 31.2936C183.798 33.1984 181.893 33.1984 179.988 35.1031ZM21.8929 29.3889C23.7977 27.4841 25.7025 25.5793 29.512 23.6746C33.3215 21.7698 39.0358 17.9603 44.7501 16.0555C58.0834 12.246 69.512 10.3412 80.9406 8.43648C90.4644 6.53172 99.9882 6.53172 109.512 6.53172C103.798 6.53172 99.9882 6.53172 94.2739 8.43648C79.0358 8.43648 63.7977 12.246 48.5596 17.9603C40.9405 19.865 33.3215 23.6746 25.7025 27.4841C23.7977 27.4841 25.7025 29.3889 27.6072 29.3889C54.2739 16.0555 84.7501 8.43648 115.226 8.43648C119.036 8.43648 122.845 8.43648 128.56 8.43648C132.369 8.43648 138.083 8.43648 141.893 8.43648C141.893 8.43648 141.893 8.43648 141.893 6.53172C147.607 6.53172 153.322 8.43648 157.131 8.43648C159.036 8.43648 159.036 8.43648 159.036 8.43648C157.131 8.43648 157.131 10.3412 159.036 10.3412C160.941 10.3412 162.845 12.246 164.75 12.246C164.75 12.246 166.655 10.3412 164.75 10.3412L162.845 10.3412C168.56 14.1508 172.369 14.1508 176.179 16.0555C179.988 17.9603 183.798 17.9603 185.702 19.865L187.607 21.7698C185.702 21.7698 183.798 21.7698 185.702 23.6746C181.893 23.6746 178.083 25.5793 174.274 25.5793C168.56 29.3889 164.75 29.3889 159.036 31.2936C147.607 33.1984 138.083 35.1031 126.655 35.1031C105.702 37.0079 82.8453 37.0079 61.8929 37.0079C50.4644 37.0079 37.131 35.1031 25.7025 33.1984C23.7977 33.1984 23.7977 37.0079 25.7025 37.0079C25.7025 37.0079 25.7025 37.0079 27.6072 37.0079L27.6072 38.9127C25.7025 38.9127 25.7025 38.9127 23.7977 37.0079C23.7977 37.0079 23.7977 37.0079 23.7977 35.1031C19.9882 33.1984 19.9882 31.2936 21.8929 29.3889ZM178.083 229.389C172.369 231.294 164.75 233.198 157.131 233.198C149.512 235.103 141.893 235.103 134.274 235.103C103.798 237.008 71.4167 233.198 40.9405 229.389C37.131 229.389 33.3215 227.484 27.6072 227.484C23.7977 227.484 21.8929 227.484 18.0834 225.579C16.1786 223.675 14.2739 221.77 14.2739 219.865C14.2739 217.96 16.1786 216.056 18.0834 216.056C19.9882 216.056 21.8929 216.056 21.8929 214.151C23.7977 168.436 25.7025 120.817 27.6072 75.1031C27.6072 69.3889 27.6072 61.7698 27.6072 56.0555C27.6072 52.246 27.6072 50.3412 27.6072 46.5317C27.6072 44.627 27.6072 44.627 27.6072 42.7222L29.512 42.7222L31.4167 42.7222C31.4167 44.627 31.4167 46.5317 31.4167 50.3412C31.4167 56.0555 31.4167 61.7698 31.4167 67.4841C31.4167 78.9127 31.4167 90.3412 29.512 103.675C29.512 126.532 27.6072 151.294 25.7025 174.151C25.7025 179.865 25.7025 187.484 23.7977 193.198C23.7977 197.008 23.7977 198.913 23.7977 202.722C23.7977 206.532 23.7977 210.341 23.7977 212.246C23.7977 214.151 25.7025 216.056 27.6072 214.151C39.0358 219.865 48.5596 221.77 58.0834 223.675C69.512 225.579 79.0358 227.484 90.4644 227.484C98.0834 227.484 103.798 227.484 111.417 227.484C115.226 227.484 119.036 227.484 122.845 227.484C128.56 227.484 134.274 227.484 139.988 225.579C145.702 225.579 149.512 225.579 155.226 223.675C160.941 221.77 164.75 219.865 168.56 217.96C172.369 216.056 174.274 214.151 174.274 210.341L176.179 210.341C179.988 208.436 185.702 210.341 185.702 216.056C187.607 221.77 181.893 227.484 178.083 229.389Z" fill="white"/>
<path d="M199.036 17.9612C197.131 17.9612 195.227 19.8659 197.131 19.8659C199.036 21.7707 199.036 23.6755 199.036 25.5802C199.036 27.485 197.131 29.3898 195.227 31.2945C191.417 33.1993 189.512 35.104 187.607 37.0088C185.703 40.8183 183.798 42.7231 183.798 46.5326C183.798 54.1517 183.798 61.7707 181.893 69.3897C181.893 77.0088 181.893 84.6278 181.893 92.2469C181.893 96.0564 181.893 99.8659 181.893 103.675C181.893 105.58 179.988 113.199 183.798 113.199C187.607 113.199 187.607 107.485 187.607 105.58C187.607 101.771 187.607 97.9612 187.607 94.1517C187.607 86.5326 187.607 78.9136 187.607 71.2945C187.607 63.6755 187.607 56.0564 187.607 48.4374C187.607 44.6278 189.512 42.7231 191.417 38.9136C193.322 37.0088 195.227 35.104 197.131 33.1993C202.846 27.485 202.846 19.8659 199.036 17.9612Z" fill="white"/>
<path d="M183.798 120.819C183.798 122.724 183.798 122.724 183.798 120.819C181.893 124.629 181.893 124.629 181.893 126.534C181.893 128.438 181.893 128.438 183.798 128.438L185.703 128.438C187.607 128.438 189.512 126.534 189.512 124.629C189.512 122.724 189.512 120.819 187.607 118.915C187.607 118.915 185.703 118.915 183.798 120.819C185.703 120.819 185.703 120.819 183.798 120.819C185.703 120.819 183.798 120.819 183.798 120.819Z" fill="white"/>
<path d="M181.893 157.008C181.893 158.913 181.893 162.722 181.893 164.627C181.893 166.532 181.893 170.341 183.798 170.341C185.703 170.341 185.703 166.532 185.703 164.627C185.703 162.722 185.703 158.913 185.703 157.008C185.703 153.198 185.703 151.294 185.703 147.484C185.703 145.579 185.703 141.77 185.703 139.865C185.703 137.96 181.893 137.96 181.893 139.865C181.893 141.77 181.893 145.579 181.893 147.484C181.893 151.294 181.893 153.198 181.893 157.008Z" fill="white"/>
<path d="M8.5596 225.578C6.65484 225.578 6.65484 223.674 6.65484 221.769C4.75008 217.959 6.65484 216.055 8.5596 214.15C12.3691 212.245 14.2739 208.436 14.2739 204.626C14.2739 200.817 14.2739 195.102 14.2739 191.293C14.2739 170.34 16.1787 149.388 16.1787 128.436C16.1787 122.721 16.1787 117.007 16.1787 111.293C16.1787 107.483 16.1787 105.578 16.1787 101.769C16.1787 97.9594 16.1787 96.0546 16.1787 92.2451C16.1787 94.1499 14.2739 97.9594 14.2739 99.8642C14.2739 103.674 14.2739 105.578 14.2739 109.388C14.2739 115.102 14.2739 120.817 14.2739 124.626C14.2739 136.055 14.2739 147.483 12.3691 157.007C12.3691 168.436 12.3691 179.864 10.4644 189.388C10.4644 191.293 10.4644 195.102 10.4644 197.007C10.4644 198.912 10.4644 200.817 8.5596 204.626C8.5596 210.34 4.75008 210.34 2.84532 214.15C0.940557 217.959 0.940557 221.769 2.84532 225.578C4.75008 229.388 8.55961 231.293 12.3691 229.388L12.3691 227.483C10.4644 225.578 10.4644 225.578 8.5596 225.578Z" fill="white"/>
<path d="M181.893 235.101C176.179 237.006 170.465 238.91 164.75 238.91C159.036 240.815 153.322 240.815 147.607 242.72C136.179 244.625 124.75 244.625 113.322 244.625C101.893 244.625 90.4646 244.625 79.0361 244.625C67.6075 244.625 56.1789 244.625 46.6551 242.72C40.9408 242.72 35.2265 240.815 29.5122 240.815C25.7027 240.815 23.798 238.91 19.9884 238.91C18.0837 238.91 14.2741 237.006 12.3694 237.006C14.2741 238.91 16.1789 240.815 18.0837 240.815C19.9884 242.72 23.798 242.72 25.7027 242.72C31.417 244.625 37.1313 244.625 40.9408 246.53C54.2741 246.53 65.7027 246.53 77.1313 248.434C99.9884 250.339 122.846 250.339 145.703 246.53C151.417 246.53 159.036 244.625 164.75 242.72C170.465 240.815 178.084 240.815 183.798 237.006C185.703 237.006 183.798 233.196 181.893 235.101Z" fill="white"/>
</g>
<defs>
<clipPath id="clip0">
<rect width="200" height="247.619" fill="white" transform="translate(0.940674 0.815674)"/>
</clipPath>
</defs>
</svg>
