<svg width="20" height="20" viewBox="0 0 20 20" fill="none" xmlns="http://www.w3.org/2000/svg">
<g clip-path="url(#clip0)">
<path d="M18.2607 2.77783H2.60059C1.68094 2.77783 0.930664 3.52729 0.930664 4.44775V15.5806C0.930664 16.4979 1.6776 17.2505 2.60059 17.2505H18.2607C19.1781 17.2505 19.9307 16.5036 19.9307 15.5806V4.44775C19.9307 3.53041 19.1837 2.77783 18.2607 2.77783ZM18.0301 3.89111L10.4661 11.4552L2.83656 3.89111H18.0301ZM2.04395 15.35V4.67297L7.40547 9.98852L2.04395 15.35ZM2.83115 16.1372L8.19605 10.7723L10.0759 12.636C10.2935 12.8518 10.6447 12.8511 10.8614 12.6343L12.6943 10.8014L18.0302 16.1372H2.83115ZM18.8174 15.35L13.4815 10.0142L18.8174 4.67828V15.35Z" fill="#3F92D1"/>
</g>
<defs>
<clipPath id="clip0">
<rect width="19" height="19" fill="white" transform="translate(0.930664 0.51416)"/>
</clipPath>
</defs>
</svg>
