<svg width="207" height="111" viewBox="0 0 207 111" fill="none" xmlns="http://www.w3.org/2000/svg">
<g clip-path="url(#clip0)">
<path d="M199.017 21.7538C188.249 9.48249 169.127 5.57797 153.718 3.9046C135.896 2.04531 117.145 4.83425 101.736 14.3167C97.4664 12.4574 93.1964 10.9699 88.9264 9.85435C67.2054 3.9046 43.9991 7.06541 24.3202 17.8493C7.7973 26.774 -4.64127 42.9498 1.67084 62.4724C3.89864 69.3518 8.35425 75.3016 13.7381 80.1358C12.6242 81.2513 11.8816 82.3669 11.139 83.6684C10.9533 84.2262 11.5103 84.5981 11.8816 84.0403C12.6242 82.9247 13.5525 81.8091 14.6664 80.8795C15.2233 81.2513 15.5946 81.6232 16.1516 82.181C15.5946 82.9247 15.0377 83.8544 14.6664 84.5981C14.2951 84.9699 15.0377 85.3418 15.409 84.9699C15.9659 84.2262 16.5229 83.4825 17.0798 82.7388C17.4511 83.1106 18.0081 83.4825 18.3794 83.8544C27.4762 90.7337 38.9865 95.382 50.4968 92.2212C50.6825 92.2212 50.6825 92.2212 50.8681 92.0353C51.4251 97.7991 51.4251 105.236 46.5982 109.327C46.2269 109.699 46.4125 110.07 46.7838 110.256C46.7838 110.442 46.9695 110.442 46.9695 110.442C49.7542 112.302 54.2099 108.769 56.252 107.096C59.965 103.935 63.678 100.03 64.9776 95.1961C84.8421 101.704 113.804 92.779 127.17 74.9297C133.668 80.1358 144.065 79.0202 151.491 77.3468C152.233 81.9951 154.832 87.7589 159.659 89.0604C159.845 89.2463 159.845 89.4322 160.03 89.4322C160.402 89.99 161.516 89.4322 161.144 88.6885C159.659 85.7137 159.474 82.7388 160.402 79.7639C160.773 80.1358 161.144 80.3217 161.701 80.3217C165.229 80.8795 169.313 79.578 172.84 79.0202C176.925 78.2765 180.638 77.1609 184.536 75.6735C190.848 73.4423 196.232 69.7237 200.502 64.3317C209.97 52.0604 209.228 33.4674 199.017 21.7538ZM180.266 14.3167C182.123 15.2463 183.979 16.176 185.836 17.1056C182.494 19.7086 179.524 22.8694 176.368 25.4724C171.169 29.7488 166.157 34.2111 160.959 38.4875C151.862 46.1106 142.579 53.3619 133.297 60.985C133.854 58.0101 134.225 55.0353 133.854 52.0604C136.639 49.2714 140.166 47.0403 143.136 44.6232C147.221 41.2765 151.305 37.9297 155.389 34.583C159.288 31.2363 163.187 27.8895 167.271 24.5428C171.541 21.1961 175.625 17.1056 180.266 14.3167ZM177.667 13.2011C174.326 15.4322 171.355 18.4071 168.199 21.0101C163.743 24.5428 159.474 28.0755 155.204 31.7941C150.934 35.6986 146.292 39.2312 142.022 43.1358C139.423 45.5528 136.267 47.5981 133.854 50.2011C133.668 48.7136 133.297 47.0403 132.926 45.3669C132.74 44.8091 132.554 44.0654 132.369 43.5076C138.495 38.1157 144.993 33.0956 151.119 27.7036C157.617 22.1257 163.929 15.6182 170.984 10.9699C173.397 11.7136 175.625 12.4574 177.667 13.2011ZM168.57 10.4121C162.258 14.8745 156.874 20.4523 151.119 25.4724C147.592 28.6332 144.25 31.6081 140.909 34.7689C138.124 37.5579 134.968 39.789 132.183 42.578C131.626 40.9046 130.883 39.2312 129.955 37.7438C134.968 32.7237 140.537 28.0755 145.921 23.2413C151.305 18.593 156.317 13.2011 161.701 8.73877C163.929 9.29656 166.157 9.85435 168.57 10.4121ZM151.305 7.6232C153.904 7.80913 156.689 8.18099 159.474 8.55285C154.275 12.8292 149.634 17.6634 144.807 22.1257C139.609 26.9599 134.225 31.6081 129.584 36.8142C128.656 35.1408 127.542 33.6533 126.428 32.1659C130.512 28.8192 134.411 25.1006 138.124 21.382C142.394 17.2915 146.292 11.7136 151.119 8.36692C151.119 7.99506 151.305 7.80913 151.305 7.6232ZM141.837 7.25134C144.25 7.25134 146.478 7.25134 148.891 7.43727C144.807 10.784 141.465 15.2463 137.752 18.9649C133.668 23.0554 129.398 27.1458 125.685 31.6081C124.571 30.1207 123.272 28.8192 121.972 27.5177C128.284 20.8242 134.782 14.3167 141.465 7.99506C141.837 7.80913 141.837 7.43727 141.837 7.25134ZM134.225 7.6232C136.082 7.43727 137.752 7.43727 139.609 7.25134C133.111 13.387 126.799 19.7086 121.23 26.774C120.116 25.8443 119.002 24.7287 117.888 23.985C120.116 21.7538 122.343 19.5227 124.386 17.1056C127.17 13.7589 130.326 10.784 133.854 8.18099C134.039 7.99506 134.225 7.80913 134.225 7.6232ZM124.757 8.9247C126.985 8.55285 129.027 8.18099 131.255 7.80913C128.656 10.0403 126.242 12.2714 124.2 14.8745C121.787 17.6634 119.187 20.2664 116.96 23.2413C115.474 22.1257 113.989 21.1961 112.504 20.0805C113.989 18.593 115.846 17.4775 117.331 15.99C119.744 13.7589 122.343 11.5277 124.757 8.9247C124.757 9.11063 124.757 8.9247 124.757 8.9247ZM122.343 9.48249C120.116 11.7136 118.074 13.7589 115.846 15.99C114.546 17.2915 113.061 18.4071 111.761 19.7086C109.348 18.0353 106.563 16.7337 103.964 15.4322C109.905 12.8292 116.031 10.784 122.343 9.48249ZM118.445 77.3468C105.078 89.99 82.8 96.8694 64.9776 91.4775C63.678 91.1056 62.7498 92.0353 62.7498 92.9649C59.965 98.7287 55.3238 105.236 49.3829 108.397C53.6529 104.121 54.5812 95.9398 52.9103 90.5478C52.539 89.4322 50.8681 89.4322 50.4968 90.176C50.3112 89.99 50.1255 89.99 49.7542 89.99C39.3578 91.6634 28.0332 87.5729 19.122 80.5076C19.3076 80.5076 19.3076 80.3217 19.4933 80.3217C20.0502 79.9498 20.6072 79.9498 21.1641 79.578C21.3498 79.392 21.3498 78.8343 20.9785 78.6483C20.0502 78.0905 18.9363 78.8343 18.0081 79.578C17.6368 79.392 17.4511 79.0202 17.0798 78.8343C17.4511 78.4624 18.0081 78.2765 18.3794 77.9046C18.9363 77.3468 18.1937 76.4172 17.4511 76.789C16.8942 77.1609 16.3372 77.5328 15.9659 77.9046C8.72555 71.0252 3.71299 61.9147 3.52734 52.4322C2.78474 29.5629 29.3327 17.1056 48.0834 12.8292C70.3614 7.6232 95.9812 12.4574 114.175 26.4021C122.529 32.7237 129.213 42.2061 129.77 52.99C130.141 62.4724 125.128 71.0252 118.445 77.3468ZM128.099 73.2564C130.326 69.9096 131.997 66.377 133.111 62.4724C137.195 60.2413 140.723 57.0805 144.436 54.2915C149.634 50.2011 155.018 46.2966 160.216 42.0202C165.043 38.1157 169.684 34.0252 174.511 30.1207C178.967 26.4021 183.237 21.9398 188.064 18.4071C189.363 19.1508 190.477 20.0805 191.777 21.0101C193.262 22.1257 194.561 23.4272 195.675 24.7287C191.034 27.1458 186.764 31.2363 182.68 34.3971C176.553 39.0453 170.427 43.8795 164.115 48.5277C152.604 57.0805 141.837 66.5629 129.584 74.0001C129.027 73.6282 128.656 73.4423 128.099 73.2564ZM141.651 75.8594C138.124 75.8594 134.596 75.4875 131.069 74.3719C143.508 68.0503 154.09 58.382 165.229 50.387C170.798 46.2966 176.182 42.2061 181.752 37.9297C186.578 34.2111 191.591 29.191 197.161 26.4021C198.089 27.5177 198.831 28.8192 199.388 30.1207C189.178 37.7438 179.524 46.2966 169.313 53.7337C164.857 57.0805 160.402 60.0554 155.946 63.588C151.119 67.4925 146.664 71.7689 141.651 75.8594C141.837 75.6734 141.837 75.6734 141.651 75.8594ZM153.161 76.0453C153.161 75.3016 152.419 75.1157 151.862 75.1157C151.676 74.9297 151.305 74.7438 150.934 74.9297C148.52 75.3016 146.107 75.6734 143.693 75.8594C147.963 73.6282 151.491 70.0956 155.204 67.1207C160.402 62.8443 166.157 58.9398 171.541 55.0353C181.38 47.784 190.663 39.789 200.317 32.5378C201.245 34.583 201.802 36.8142 202.173 39.0453C201.987 39.0453 201.987 39.0453 201.802 39.2312C192.891 45.7388 183.608 51.8745 174.882 58.5679C170.427 61.9147 166.343 65.4473 161.887 68.98C158.917 71.3971 155.575 73.8142 153.347 76.789C153.161 76.2312 153.161 76.2312 153.161 76.0453ZM196.975 60.985C193.633 66.0051 188.621 69.1659 183.237 71.3971C179.895 72.8845 176.368 73.6282 173.026 74.5579C171.169 74.9297 169.127 75.4875 166.9 75.8594C168.942 74.186 171.541 73.0704 173.583 71.9549C176.925 69.9096 180.266 67.8644 183.608 65.8192C189.549 62.1006 195.304 58.0101 200.688 53.7337C199.945 56.1508 198.646 58.5679 196.975 60.985ZM201.059 50.387C194.19 55.779 187.135 60.7991 180.081 65.6332C175.439 68.7941 168.942 71.583 165.414 76.0453C164.115 76.2312 162.815 76.2312 161.701 76.0453C161.33 76.0453 160.959 76.0453 160.587 76.2312C160.216 76.0453 159.659 76.2312 159.474 76.6031C157.988 79.7639 157.246 83.2966 158.36 86.4574C155.946 84.2262 154.461 81.4373 153.718 78.0905C156.132 74.9297 160.03 72.3267 163.187 69.9096C167.828 66.191 172.469 62.4724 177.296 59.1257C181.937 55.779 186.764 52.6182 191.405 49.2714C195.118 46.6684 199.017 44.2513 202.359 41.2765C202.544 44.2513 202.359 47.2262 201.616 50.0152C201.616 50.2011 201.245 50.2011 201.059 50.387Z" fill="white"/>
<path d="M46.9694 48.3418C46.0411 48.1559 44.9272 48.5277 44.1846 49.2715C42.8851 50.7589 43.2564 52.8041 45.1129 53.5478C46.7837 54.2916 48.4546 53.176 49.0116 51.5026C49.3829 50.0152 48.4546 48.5277 46.9694 48.3418ZM47.3407 50.9448C47.155 51.6885 46.5981 52.2463 45.8555 52.0604C44.9272 51.8745 44.7416 50.9448 45.4842 50.387C45.6698 50.2011 45.8555 50.0152 46.2268 49.8293H46.4124C46.7837 49.8293 47.1551 49.8293 47.5264 50.2011C47.3407 50.387 47.3407 50.7589 47.3407 50.9448Z" fill="white"/>
<path d="M63.3068 48.7135C63.1211 48.8994 63.1211 49.0854 63.1211 49.2713C62.5642 49.6432 62.1929 50.201 62.0072 50.9447C61.8216 52.9899 64.0494 54.1055 65.9059 53.5477C67.5767 53.1758 68.1337 51.1306 67.3911 49.8291C66.6485 48.3417 64.6063 47.412 63.3068 48.7135ZM65.3489 51.8743C64.792 52.2462 63.4924 51.8743 63.4924 51.1306C63.4924 50.5728 63.8637 50.201 64.235 50.015C64.4207 50.015 64.4207 50.015 64.6063 49.8291C64.792 49.8291 64.9776 49.8291 65.1633 49.8291C65.3489 49.8291 65.7202 50.015 65.7202 50.3869C66.0915 50.9447 65.9059 51.6884 65.3489 51.8743Z" fill="white"/>
<path d="M80.0153 53.7337C80.7579 54.1056 81.5005 53.7337 82.0574 53.3619C82.8 52.99 83.1713 52.2463 83.1713 51.5026C83.357 50.0151 82.0574 48.7136 80.5722 48.7136C80.2009 48.7136 79.8296 49.0855 79.8296 49.4573C79.4583 49.6433 79.087 50.2011 78.9014 50.7588C78.3444 51.8744 78.9014 53.1759 80.0153 53.7337ZM80.2009 51.1307C80.2009 50.7588 80.3866 50.5729 80.5722 50.387C81.1292 50.387 81.6861 50.7588 81.6861 51.3166C81.6861 51.6885 81.5005 51.8744 81.1292 52.0604C80.7579 52.2463 80.5722 52.2463 80.3866 52.0604C80.2009 52.0604 80.2009 51.8744 80.2009 51.6885C80.2009 51.5026 80.2009 51.3166 80.2009 51.1307Z" fill="white"/>
<path d="M49.5686 94.2663C50.3112 94.0804 49.9399 92.7789 49.1973 93.1507C42.6996 95.3819 36.7587 93.8945 30.4466 92.0352C30.261 92.0352 30.261 92.2211 30.261 92.2211C35.6448 95.7537 43.8135 96.3115 49.5686 94.2663Z" fill="white"/>
<path d="M49.5686 95.9397C45.8556 96.8694 42.5139 97.6131 38.8009 96.6835C38.4296 96.6835 38.2439 97.0553 38.6152 97.2412C42.5139 98.3568 46.0412 97.799 49.7542 96.8694C50.3112 96.6835 50.1255 95.7538 49.5686 95.9397Z" fill="white"/>
<path d="M102.293 12.8292C113.803 6.32162 128.655 2.04524 141.837 2.60303C142.579 2.60303 142.579 1.48745 141.837 1.48745C134.968 0.743735 127.913 2.23117 121.415 4.09047C114.917 5.94977 107.677 8.36685 102.107 12.2714C101.551 12.6432 101.922 13.0151 102.293 12.8292Z" fill="white"/>
<path d="M103.221 10.0402C107.677 7.43719 113.061 5.94975 118.073 4.46231C123.829 2.60302 129.584 1.30151 135.71 1.30151C136.453 1.30151 136.453 0 135.71 0C129.584 0.18593 123.643 1.67337 117.702 3.34673C112.69 4.83417 106.934 6.32161 102.85 9.66834C102.665 9.85427 102.85 10.2261 103.221 10.0402Z" fill="white"/>
<path d="M181.566 78.2764C178.781 79.5779 175.439 79.7638 172.469 80.3216C168.942 81.0653 165.414 81.2512 161.701 81.2512C161.33 80.8794 160.773 81.0653 160.773 81.6231C160.773 83.1105 160.773 84.598 161.144 85.8995C161.516 87.3869 162.444 88.8744 163.186 90.3618C163.186 90.5477 163.558 90.5477 163.558 90.3618C163.186 89.0603 162.815 87.7588 162.444 86.2713C162.073 84.9698 162.073 83.6683 162.073 82.3668C165.786 82.1809 169.313 81.995 172.84 81.2512C175.811 80.6935 179.338 80.1357 181.937 78.6482C181.751 78.4623 181.751 78.2764 181.566 78.2764Z" fill="white"/>
<path d="M128.099 77.1607C128.655 76.6029 127.727 75.6733 127.17 76.2311C123.272 80.5075 119.93 84.226 115.289 87.5728C111.019 90.7336 105.821 94.4522 100.622 95.5678C100.251 95.5678 100.437 96.1255 100.808 95.9396C111.576 94.0803 121.044 84.9698 128.099 77.1607Z" fill="white"/>
<path d="M128.655 78.0903C126.613 81.4371 123.643 83.6682 120.858 86.2713C117.516 89.0602 114.36 92.7788 110.276 94.6381C110.09 94.824 110.276 95.0099 110.462 95.0099C114.36 93.8944 117.516 90.5476 120.487 88.1306C123.829 85.3416 127.356 82.7386 129.769 79.02C130.141 77.9044 129.027 77.3466 128.655 78.0903Z" fill="white"/>
<path d="M25.2485 23.985C14.8521 28.6332 5.38393 39.0453 5.56958 50.9448C5.56958 51.1307 5.94088 51.3167 5.94088 50.9448C7.05478 45.3669 8.35433 39.975 12.0673 35.5126C15.7803 31.0503 20.6073 27.5177 25.6198 25.1006C26.5481 24.7287 25.9911 23.7991 25.2485 23.985Z" fill="white"/>
<path d="M24.3202 27.5176C16.8942 31.0503 9.28254 39.0453 8.72559 47.598C8.72559 47.784 9.09689 47.9699 9.09689 47.598C10.5821 39.4171 17.4511 31.9799 24.8772 28.4473C25.6198 28.2613 25.0628 27.1458 24.3202 27.5176Z" fill="white"/>
<path d="M124.014 41.0904C125.871 46.4823 127.542 50.9446 127.356 56.7085C126.985 62.6582 123.643 68.608 119.93 73.0703C119.744 73.2562 120.116 73.6281 120.301 73.2562C123.643 68.2361 127.17 64.1456 128.099 58.01C129.027 51.6884 127.356 46.1105 124.386 40.7185C124.386 40.7185 123.829 40.9044 124.014 41.0904Z" fill="white"/>
<path d="M124.386 46.8544C124.2 46.6684 124.014 46.8544 124.014 47.0403C124.757 51.3167 125.314 55.4071 124.2 59.6835C123.272 63.588 121.23 67.1207 118.816 70.2815C118.259 70.8393 119.373 71.583 119.93 70.8393C125.128 63.9599 127.727 55.4071 124.386 46.8544Z" fill="white"/>
<path d="M77.2305 82.367C76.4879 84.0403 75.5596 85.5278 74.4457 86.8293C73.7031 87.9449 72.4036 88.6886 71.661 89.9901C71.4753 90.362 71.8466 90.9197 72.2179 90.7338C73.5175 90.176 74.6314 88.5027 75.374 87.3871C76.4879 86.0856 77.2305 84.5981 77.9731 82.9248C78.3444 81.9951 77.4161 81.8092 77.2305 82.367Z" fill="white"/>
<path d="M80.3864 82.7386C79.2725 85.1557 77.2304 87.015 76.1165 89.4321C75.9308 89.9899 76.4878 90.5477 77.0447 90.1758C78.7156 88.1306 80.3864 85.5276 81.3147 82.9246C81.3147 82.3668 80.5721 82.1809 80.3864 82.7386Z" fill="white"/>
<path d="M83.1711 82.3668C82.2428 84.9698 80.572 87.015 79.0868 89.4321C78.7155 89.9899 79.6437 90.5477 80.015 89.9899C81.3146 87.5728 82.9854 85.3416 83.728 82.5527C83.728 82.1808 83.1711 81.9949 83.1711 82.3668Z" fill="white"/>
<path d="M85.5847 82.3667C85.0278 84.9697 82.9856 86.6431 82.0574 89.0602C81.8717 89.618 82.6143 89.9898 82.9856 89.432C84.2852 87.3868 85.7704 84.9697 86.1417 82.5526C86.513 82.1808 85.7704 81.8089 85.5847 82.3667Z" fill="white"/>
<path d="M89.1122 81.9949C88.5552 83.2964 87.8126 84.412 87.07 85.3417C86.5131 86.0854 85.5848 87.015 85.3992 88.1306C85.3992 88.6884 85.9561 88.6884 86.3274 88.5025C87.07 87.9447 87.627 86.4572 88.1839 85.5276C88.7409 84.412 89.4835 83.2964 89.8548 82.1809C89.8548 81.809 89.2978 81.6231 89.1122 81.9949Z" fill="white"/>
<path d="M92.454 81.4371C91.897 83.6683 90.5975 85.5276 89.6692 87.3869C89.2979 88.1306 90.4118 88.8743 90.9688 88.1306C91.897 86.0854 93.1966 84.0402 93.7535 81.6231C93.5679 81.0653 92.6396 80.8793 92.454 81.4371Z" fill="white"/>
<path d="M95.2387 81.4372C95.053 82.3668 94.6817 83.1105 94.3104 83.8543C93.9391 84.598 93.3822 85.3417 93.1965 86.0854C93.1965 86.6432 93.9391 86.8291 94.3104 86.4573C94.8674 85.8995 95.2387 84.9698 95.61 84.2261C95.9813 83.4824 96.3526 82.5528 96.5382 81.809C96.5382 80.8794 95.4243 80.5075 95.2387 81.4372Z" fill="white"/>
<path d="M98.3945 81.0654C98.0232 81.9951 97.8376 82.9247 97.2806 83.6685C96.9093 84.4122 96.1667 85.3418 95.9811 86.2715C95.7954 86.8293 96.7237 87.2011 97.095 86.6433C97.6519 85.7137 98.0232 84.784 98.3945 83.6685C98.5802 82.9247 98.9515 81.9951 98.3945 81.0654C98.5802 81.0654 98.3945 81.0654 98.3945 81.0654Z" fill="white"/>
<path d="M101.179 80.6935C100.994 81.8091 100.437 82.9247 100.065 84.0403C99.694 84.784 100.994 85.1558 101.365 84.4121C101.736 83.2965 102.293 81.995 102.479 80.6935C102.479 79.9498 101.365 79.9498 101.179 80.6935Z" fill="white"/>
<path d="M104.892 79.7638C104.892 80.3216 104.707 80.8794 104.335 81.4372C104.15 81.995 103.779 82.3668 103.964 82.9246C104.15 83.1105 104.335 83.2965 104.521 83.1105C105.078 82.9246 105.078 82.3668 105.264 81.809C105.449 81.0653 105.635 80.5075 105.635 79.7638C106.006 79.206 105.078 79.206 104.892 79.7638Z" fill="white"/>
<path d="M107.677 78.4625C107.677 79.0202 107.677 79.3921 107.492 79.9499C107.306 80.5077 107.12 80.8795 107.306 81.4373C107.492 81.8092 107.863 81.9951 108.234 81.6233C108.605 81.2514 108.605 80.6936 108.605 80.3217C108.605 79.764 108.791 79.2062 108.791 78.4625C108.791 77.9047 107.863 77.7187 107.677 78.4625Z" fill="white"/>
<path d="M110.648 77.3468C110.648 77.7186 110.462 78.0905 110.276 78.4623C110.091 78.8342 109.905 79.392 109.905 79.9498C110.091 80.3216 110.648 80.5076 110.833 80.1357C111.205 79.7638 111.019 79.2061 111.205 78.6483C111.205 78.2764 111.205 77.9046 111.205 77.3468C111.205 76.9749 110.648 76.9749 110.648 77.3468Z" fill="white"/>
<path d="M112.875 76.7889C112.69 77.1607 112.504 77.5326 112.318 78.0904C112.133 78.4622 111.947 78.8341 111.947 79.2059C111.947 79.5778 112.504 79.5778 112.69 79.3919C112.875 79.02 113.061 78.6482 113.061 78.2763C113.247 77.9044 113.247 77.5326 113.432 76.9748C113.618 76.6029 113.061 76.417 112.875 76.7889Z" fill="white"/>
<path d="M114.546 76.4171C114.361 77.1608 113.989 77.7186 113.989 78.2764C113.989 78.6483 113.989 79.0201 114.361 79.0201C114.732 79.2061 115.103 78.8342 115.103 78.6483C115.289 77.9046 115.289 77.1608 115.289 76.4171C115.289 75.8593 114.546 75.8593 114.546 76.4171Z" fill="white"/>
</g>
<defs>
<clipPath id="clip0">
<rect width="207" height="111" fill="white"/>
</clipPath>
</defs>
</svg>
