<svg width="151" height="95" viewBox="0 0 151 95" fill="none" xmlns="http://www.w3.org/2000/svg">
<g clip-path="url(#clip0)">
<path d="M149.988 10.8316C149.098 8.26344 147.407 6.58084 144.736 6.40373C140.997 6.22661 137.258 6.40373 133.519 6.40373C125.775 6.40373 117.941 6.22661 110.196 5.78382C102.451 5.34103 94.6173 5.60671 86.8725 5.78382C83.0446 5.96094 79.2167 6.22661 75.3888 6.40373C72.4511 6.49229 69.5134 6.40373 66.5757 6.58084C64.3502 6.75796 61.6796 7.11219 60.2553 9.14902C59.3651 10.4774 59.7211 12.4257 59.8102 13.8426C59.9882 15.7909 59.8102 17.7391 59.8992 19.776C57.6737 19.776 55.4481 19.776 53.2226 19.8645C45.4778 19.9531 37.644 19.8645 29.8992 20.0416C26.0713 20.1302 22.2434 20.3073 18.3265 20.7501C14.9437 21.1043 11.4719 21.4586 8.26711 22.6984C7.10984 23.1412 6.21963 23.584 5.50747 24.5581C4.7953 25.5322 4.61726 26.8606 4.43922 28.0119C4.3502 29.2517 4.43922 30.4915 4.52824 31.6427C4.61726 33.2368 4.61726 34.8308 4.70628 36.3363C4.97334 40.1443 5.50747 43.8637 5.68551 47.6717C5.86355 51.4797 5.86355 55.1991 5.86355 59.0071C5.95257 62.8151 6.04159 66.5345 5.95257 70.3425C5.95257 72.1137 5.86355 73.9734 5.95257 75.7446C6.04159 77.2501 6.84278 78.5784 7.55495 79.8182C8.44515 81.4123 10.4036 82.1207 12.095 82.5635C14.5876 83.272 17.0802 83.3605 19.6618 83.4491C22.5995 83.4491 25.5371 83.4491 28.4748 83.3605C29.8992 83.272 31.3235 83.1834 32.6588 83.0063C33.8161 82.8292 34.9734 82.475 36.2196 82.3864C36.9318 85.3088 38.2671 88.4084 40.6707 90.3566C41.917 91.4193 43.2523 92.3049 44.7656 93.1019C46.19 93.8104 47.6143 94.5188 49.3057 94.6074C50.1069 94.6074 50.1959 93.6333 49.5728 93.279C48.3265 92.3935 47.6143 90.4452 47.3472 89.1168C46.9912 87.3457 47.0802 85.3088 47.5253 83.6262C47.6143 83.272 47.7033 83.0063 47.8814 82.6521C47.9704 82.475 48.2375 82.1207 48.0594 82.1207C48.5045 82.0322 49.2167 82.2093 49.5728 82.2093C51.6202 82.2979 53.6677 82.2093 55.7152 82.2093C63.549 82.2093 71.3829 82.0322 79.1277 81.5008C80.9971 81.4123 82.8665 81.3237 84.736 81.1466C86.2493 81.058 87.7627 80.8809 89.009 79.9953C90.9674 78.5784 91.1455 75.5675 91.5016 73.4421C91.9467 70.5197 91.7686 67.4201 91.5906 64.4977C94.8844 64.4977 98.2671 64.3206 101.561 64.232C104.855 64.1435 108.148 64.232 111.442 63.8778C111.62 66.9773 111.175 70.3425 108.326 72.2023C107.614 72.645 108.059 73.9734 108.95 73.7077C111.798 72.645 115.003 72.2023 117.318 70.254C119.276 68.6599 119.276 66.1803 119.543 63.8778C126.665 63.6121 133.786 64.232 140.997 63.1693C143.49 62.8151 146.427 62.4609 147.496 59.7156C148.03 58.2987 148.03 56.6161 148.386 55.1991C148.831 53.428 149.276 51.7454 149.454 49.9742C150.433 42.4468 150.789 34.8308 150.878 27.3034C150.878 24.6467 151.056 21.9899 151.056 19.2446C150.878 16.6764 150.789 13.3112 149.988 10.8316ZM89.3651 75.656C89.098 76.8958 88.7419 78.1356 87.7627 78.9327C87.1395 79.464 85.8932 79.5526 85.0921 79.6411C84.0238 79.7297 82.8665 79.8182 81.7983 79.9068C77.8814 80.1725 73.9645 80.3496 70.0475 80.4381C66.1306 80.6153 62.2137 80.6153 58.2968 80.7038C54.825 80.7038 51.2642 80.6153 47.7033 80.7038C46.6351 80.7038 46.368 81.6779 46.101 82.5635C45.6558 84.069 45.4778 85.3974 45.4778 86.9914C45.5668 88.9397 46.0119 91.3308 47.3472 93.0134C46.5461 92.7477 45.7449 92.3049 44.9437 91.8621C43.6084 91.2422 42.2731 90.3566 41.2938 89.2939C39.4244 87.1685 38.0891 84.1576 37.733 81.4123C37.644 80.9695 37.1989 80.7038 36.8428 80.7038C35.2404 80.6153 33.638 80.9695 32.0357 81.2352C30.0772 81.5894 28.1188 81.5008 26.1603 81.5894C22.5104 81.5894 18.8606 81.8551 15.2107 81.4123C13.9644 81.2352 12.6291 80.9695 11.3828 80.5267C9.95851 79.9953 9.33536 79.1983 8.6232 77.9585C7.73299 76.2759 7.91103 74.6819 7.91103 72.8222C7.91103 70.8739 7.91103 68.9256 7.91103 66.8888C7.91103 63.0808 7.73299 59.3614 7.64397 55.5534C7.73299 51.6568 7.64397 47.8488 7.28788 44.0408C6.9318 40.3214 6.4867 36.602 6.4867 32.8825C6.4867 30.58 5.77453 27.8347 7.02082 25.6208C7.64397 24.4695 9.24634 24.1153 10.4036 23.7611C12.184 23.2297 14.0535 23.0526 15.8339 22.7869C19.7508 22.2556 23.6677 21.9899 27.5846 21.8128C35.3294 21.4586 43.1633 21.6357 50.9081 21.5471C58.7419 21.4586 66.4867 21.2815 74.3205 21.4586C76.19 21.4586 78.0594 21.5471 79.9289 21.6357C81.8873 21.7242 83.9348 21.5471 85.6262 22.6098C86.9615 23.4954 88.0298 24.7352 88.3858 26.2407C88.8309 27.9233 88.8309 29.6945 88.92 31.3771C89.276 35.2736 89.6321 39.1702 89.8102 43.0667C89.8992 44.9264 89.8992 46.7861 89.8102 48.5573C89.7212 50.5056 89.187 52.3653 89.187 54.4021C89.009 61.4868 90.7004 68.6599 89.3651 75.656ZM148.92 23.7611C148.831 27.1263 148.831 30.58 148.742 33.9452C148.564 37.7532 148.297 41.5612 147.941 45.3692C147.763 47.2289 147.674 49.0886 147.318 50.9484C147.051 52.8081 146.516 54.5792 146.071 56.3504C145.715 57.8559 145.982 59.5385 144.558 60.4241C143.312 61.2211 141.709 61.3096 140.285 61.4867C136.546 62.0181 132.807 62.1067 129.068 62.1067C125.508 62.0181 122.036 61.9295 118.475 62.1067C118.119 62.1067 117.674 62.3723 117.585 62.7266C117.229 64.8519 117.496 67.3316 115.804 69.0142C114.558 70.254 112.689 70.8739 110.908 71.3167C112.243 68.9256 112.243 66.0032 112.421 63.1693C112.421 62.8151 112.065 62.5494 111.798 62.4609C108.326 62.1067 104.766 62.4609 101.294 62.5494C97.9111 62.638 94.5283 62.7266 91.2345 62.7266C91.2345 62.5494 91.2345 62.4609 91.2345 62.2838C91.0565 58.4758 90.5223 54.7564 91.1455 51.0369C91.7686 47.3175 91.5016 43.4209 91.3235 39.7015C91.0565 35.8935 90.7004 32.1741 90.4333 28.3661C90.3443 27.0377 90.2553 25.7094 89.7212 24.4695C89.187 23.0526 88.1188 21.9899 86.8725 21.1043C85.6262 20.2188 84.2019 19.9531 82.6885 19.8645C80.641 19.776 78.5935 19.776 76.6351 19.6874C71.5609 19.5103 66.3977 19.5103 61.3235 19.5989C61.4125 18.0934 61.7686 16.4993 61.5906 14.9938C61.4125 13.4884 61.0564 11.5401 61.5906 10.0346C62.2137 8.17489 65.6855 8.08633 67.2879 7.99777C70.4036 7.82065 73.6084 7.90921 76.7241 7.7321C80.552 7.55498 84.3799 7.28931 88.2078 7.20075C95.9526 7.02363 103.786 6.84652 111.531 7.28931C119.276 7.7321 127.021 7.90921 134.855 7.99777C136.724 7.99777 138.594 7.99777 140.463 7.99777C142.154 7.99777 144.113 7.82065 145.715 8.17489C148.475 8.79479 148.831 13.754 149.009 15.968C149.276 18.6247 149.009 21.1929 148.92 23.7611Z" fill="#F47892"/>
<path d="M31.2342 47.2289L31.1452 47.3175C30.8781 47.4946 30.611 47.6717 30.344 47.9374C29.5428 48.9115 29.1867 50.2399 29.3648 51.3911C29.5428 52.8081 30.9671 53.5165 32.2134 53.6051C33.4597 53.6936 34.706 52.8081 35.2401 51.6568C35.7743 50.3284 35.5072 49.0001 34.706 47.8488C33.8158 46.7861 32.3915 46.2548 31.2342 47.2289ZM33.9938 51.4797C33.5487 52.2767 32.7475 52.5424 31.9464 52.4538C31.9464 52.3653 31.8573 52.3653 31.8573 52.2767C31.3232 51.7454 30.7001 51.4797 30.611 50.5941C30.611 49.8857 30.9671 49.0886 31.4122 48.5573C31.5903 48.2916 31.8573 48.0259 32.2134 47.9374C32.3915 47.9374 32.5695 47.8488 32.7475 47.8488C33.1927 47.9374 33.6378 48.5573 33.8158 48.9115C34.4389 49.7085 34.4389 50.5941 33.9938 51.4797Z" fill="#F47892"/>
<path d="M46.546 47.4061C45.8339 47.6718 45.3888 48.2031 44.9437 48.823C44.4095 49.4429 44.1425 50.3285 44.4986 51.2141C45.1217 52.7196 47.2582 53.7823 48.7716 52.8081C50.3739 51.7454 50.3739 49.2658 49.1276 48.026C48.5935 47.229 47.4363 47.0519 46.546 47.4061ZM48.2374 51.7454C47.5253 52.4539 46.368 51.6569 45.8339 51.1255C45.6558 50.8598 45.5668 50.5942 45.5668 50.3285C45.6558 50.2399 45.7449 50.1514 45.8339 50.0628C46.0119 49.5315 46.457 49.0887 46.9021 48.823C47.0802 48.7345 47.3472 48.7345 47.5253 48.7345C47.6143 48.7345 47.7033 48.7345 47.7033 48.6459C47.9704 48.7345 48.2374 48.823 48.4155 49.0887C49.1277 49.7086 48.8606 51.037 48.2374 51.7454Z" fill="#F47892"/>
<path d="M62.5701 46.9632C61.5019 47.0518 60.7007 47.7602 60.3446 48.6458C59.9885 49.0001 59.7214 49.5314 59.7214 50.2399C59.7214 52.2767 62.036 53.6936 63.9054 53.1623C66.0419 52.5424 66.487 49.7971 65.3297 48.203C64.7066 47.406 63.6384 46.9632 62.5701 46.9632ZM63.1932 52.1881C61.947 52.4538 60.7007 51.1255 60.8787 49.9742C60.8787 49.8856 60.8787 49.8856 60.8787 49.7971C61.1458 49.7971 61.3238 49.62 61.4128 49.3543C61.5019 49.2657 61.5018 49.0886 61.5909 49.0001C62.214 48.6458 63.0152 48.5573 63.5493 48.5573C63.8164 48.7344 64.0835 48.9115 64.2615 49.2657C65.1517 50.3284 64.5286 51.9225 63.1932 52.1881Z" fill="#F47892"/>
<path d="M4.52854 24.2039C5.15169 22.8755 6.57602 22.4328 7.82231 21.9014C9.24665 21.3701 10.76 21.1044 12.1843 20.7502C15.3001 20.1302 18.5938 20.2188 21.7096 19.8646C22.2437 19.776 22.0656 18.8904 21.4425 18.979C17.9707 19.4218 14.4989 19.3332 11.0271 20.0417C9.60273 20.3074 8.1784 20.6616 6.84308 21.1929C5.86385 21.5472 4.52854 22.0785 3.9054 23.0527C2.57008 25.2666 2.74813 28.0119 2.74813 30.4915C3.01519 34.1224 3.28225 37.7533 3.54931 41.3841C3.54931 41.6498 3.99442 41.6498 3.99442 41.3841C4.17246 38.2846 3.9054 35.1851 3.9054 32.0856C3.81638 29.5174 3.46029 26.595 4.52854 24.2039Z" fill="#F47892"/>
<path d="M12.3618 19.1561C12.9849 18.9789 12.7179 18.0934 12.0947 18.2705C8.80094 19.2446 4.17186 19.3332 2.2134 22.6984C1.7683 23.4954 1.59026 24.4695 1.41221 25.3551C1.23417 26.3293 0.96711 27.392 0.878089 28.3661C0.611027 30.6686 1.32319 33.0597 1.50123 35.3622C1.50123 35.6278 1.85732 35.6278 1.94634 35.3622C2.12438 33.4139 1.85732 31.5542 1.7683 29.6945C1.67928 27.6576 2.2134 25.5322 2.74753 23.584C3.81578 20.0416 9.51311 19.8645 12.3618 19.1561Z" fill="#F47892"/>
<path d="M11.4718 64.7634C12.9852 62.5495 15.0327 60.6012 16.8131 58.5644C17.0802 58.2101 16.6351 57.6788 16.279 58.033C15.2997 59.0957 14.3205 60.1584 13.3413 61.1325C12.3621 62.1067 11.2938 63.0808 10.6707 64.2321C10.4036 64.7634 11.1158 65.2062 11.4718 64.7634Z" fill="#F47892"/>
<path d="M11.4719 67.9514C11.2048 68.3057 11.828 68.6599 12.095 68.3057C14.1425 65.7375 16.101 62.9036 18.5045 60.6011C18.7716 60.3355 18.3265 59.8927 18.0594 60.1583C16.9022 61.3096 15.9229 62.5494 14.8547 63.7892C13.6974 65.1176 12.5401 66.5345 11.4719 67.9514Z" fill="#F47892"/>
<path d="M12.006 72.2908C13.4304 71.051 14.4986 69.2799 15.6559 67.7744C17.0802 65.8261 18.7716 64.1435 20.374 62.2838C20.463 62.1067 20.285 61.9295 20.196 62.1067C17.1693 65.2062 14.4096 68.4828 11.4719 71.6709C11.1158 72.0251 11.65 72.5565 12.006 72.2908Z" fill="#F47892"/>
<path d="M21.8872 64.6748C22.1542 64.4091 21.7091 63.8778 21.4421 64.232C18.1483 67.9515 14.7655 71.4938 11.5607 75.3018C11.2937 75.656 11.6498 76.2759 12.0949 75.9217C12.9851 75.3903 13.4302 74.4162 14.0533 73.6192C14.9435 72.645 15.7447 71.6709 16.6349 70.6967C18.4153 68.837 20.1958 66.7117 21.8872 64.6748Z" fill="#F47892"/>
<path d="M22.6881 67.243C20.2845 70.6082 17.1688 73.5307 14.4982 76.6302C14.1421 77.073 14.7652 77.6043 15.1213 77.1615C17.7029 73.8849 20.3735 70.7854 22.6881 67.243Z" fill="#F47892"/>
<path d="M24.558 69.3684C22.1544 72.0252 19.3948 74.4162 17.4363 77.4272C17.1692 77.87 17.7924 78.3128 18.1485 77.87C20.285 75.0361 22.5105 72.3794 24.736 69.6341C24.914 69.457 24.736 69.1913 24.558 69.3684Z" fill="#F47892"/>
<path d="M25.3594 71.1396C23.8461 73.5307 21.7096 75.479 20.0182 77.7815C19.6621 78.2243 20.4633 78.7556 20.8193 78.2243C22.5107 75.9218 24.4692 73.8849 25.8935 71.4053C26.0716 71.1396 25.5374 70.8739 25.3594 71.1396Z" fill="#F47892"/>
<path d="M27.8517 72.5565C26.5164 74.4162 25.092 76.1874 23.5787 77.9586C23.1336 78.4014 23.8458 79.0213 24.2018 78.4899C25.5371 76.6302 27.0505 74.7705 28.0297 72.7336C28.1188 72.5565 27.9407 72.4679 27.8517 72.5565Z" fill="#F47892"/>
<path d="M28.8308 74.7705C28.2967 75.922 27.5845 76.9849 26.9613 78.0478C26.7833 78.4021 27.4064 78.845 27.5845 78.4021C28.1186 77.2507 28.8308 76.0992 29.1869 74.8591C29.2759 74.6819 28.9198 74.5934 28.8308 74.7705Z" fill="#F47892"/>
<path d="M30.4332 76.0104C30.1661 76.542 29.81 76.985 29.632 77.5165C29.543 77.8709 30.0771 78.0481 30.2551 77.6937C30.4332 77.1621 30.7002 76.7192 30.8783 76.2762C31.0563 75.9218 30.6112 75.656 30.4332 76.0104Z" fill="#F47892"/>
<path d="M37.8219 89.294C37.1988 88.5855 36.5756 87.7 36.2195 86.8144C35.6854 85.7517 35.5964 84.5119 35.3293 83.4492C35.2403 83.0064 34.6172 83.1835 34.7062 83.6263C35.1513 85.5746 35.4184 87.3457 36.6646 88.9398C37.2878 89.7368 37.9109 90.4453 38.7121 91.0652C39.6023 91.8622 40.7596 92.3935 41.5608 93.1906C41.6498 93.2791 41.9169 93.1906 41.8279 93.0134C40.6706 91.5965 38.9792 90.6224 37.8219 89.294Z" fill="#F47892"/>
<path d="M33.8157 83.8919C33.7267 83.4491 33.1925 83.6262 33.1035 83.9805C32.7474 86.6372 34.6169 89.7367 36.4863 91.4193C36.6643 91.5964 36.8424 91.3308 36.7534 91.1536C34.973 89.2054 34.2608 86.4601 33.8157 83.8919Z" fill="#F47892"/>
<path d="M31.8572 86.9914C31.5902 86.283 31.5902 85.4859 31.3231 84.7775C31.1451 84.3347 30.5219 84.5118 30.6109 84.9546C30.789 86.6372 31.5902 88.0541 32.5694 89.471C32.7475 89.6482 33.0145 89.471 32.9255 89.2939C32.4804 88.5855 32.1243 87.7884 31.8572 86.9914Z" fill="#F47892"/>
<path d="M79.5727 83.8926C81.086 83.804 82.5994 83.804 84.2018 83.7154C85.8041 83.6268 87.4065 83.361 89.0089 83.2724C89.632 83.2724 89.632 82.3865 89.0089 82.3865C87.5846 82.3865 86.1602 82.6523 84.7359 82.8294C83.0445 83.0066 81.3531 83.0952 79.6617 83.0952C76.635 83.2724 73.4303 83.0066 70.4036 83.5382C70.2255 83.5382 70.2255 83.8926 70.4036 83.8926C73.4303 83.5382 76.546 83.9812 79.5727 83.8926Z" fill="#F47892"/>
<path d="M89.2758 84.069C86.6052 84.3348 83.9345 84.6892 81.2639 84.6892C79.9286 84.6892 78.5933 84.6892 77.258 84.6892C75.8336 84.6892 74.4093 84.4234 72.985 84.6006C72.7179 84.6006 72.7179 85.0436 72.985 85.0436C74.3203 85.1322 75.5666 85.3094 76.8129 85.4866C78.2372 85.6638 79.7505 85.5752 81.1749 85.6638C83.9345 85.6638 86.6052 85.398 89.2758 85.1322C89.8989 84.955 89.8099 83.9804 89.2758 84.069Z" fill="#F47892"/>
<path d="M87.5843 64.055C87.8514 66.3575 88.2075 68.66 88.2075 70.9625C88.1184 72.7336 88.0294 74.9476 86.427 75.9217C84.6466 77.073 81.887 77.073 79.8395 77.3387C77.4359 77.6043 75.2104 77.6043 72.8069 77.3387C72.5398 77.3387 72.5398 77.6929 72.7178 77.7814C75.3885 78.3128 77.9701 78.3128 80.6407 78.0471C82.6882 77.87 85.4478 77.7814 87.1392 76.4531C88.5635 75.3904 88.7416 73.6192 88.9196 72.0252C89.1867 69.2799 88.9196 66.5346 88.4745 63.8778C88.3855 63.2579 87.4953 63.5236 87.5843 64.055Z" fill="#F47892"/>
<path d="M77.258 75.6561C79.5726 75.8332 82.5103 76.0989 84.4687 74.5048C86.6052 72.7337 86.6943 69.1028 86.4272 66.6232C86.3382 65.9147 85.2699 66.0033 85.448 66.7117C85.8041 69.0142 85.715 72.2909 83.8456 73.8849C82.1542 75.3904 79.3055 75.1247 77.258 75.3019C77.08 75.3019 77.08 75.6561 77.258 75.6561Z" fill="#F47892"/>
<path d="M93.9941 39.5244C96.3087 36.4249 98.7122 33.5025 100.849 30.3144C101.027 30.0487 100.582 29.6945 100.404 30.0487C98.1781 33.1483 95.4185 35.8936 93.371 39.0816C93.0149 39.613 93.638 39.9672 93.9941 39.5244Z" fill="#F47892"/>
<path d="M93.8162 43.3324C95.3296 41.7384 96.6649 39.8787 98.1783 38.1961C99.6026 36.602 101.027 35.008 102.184 33.2368C102.362 32.9711 102.006 32.794 101.828 32.9711C99.2465 36.5135 95.8637 39.3473 93.1931 42.8011C93.015 43.1553 93.5492 43.5981 93.8162 43.3324Z" fill="#F47892"/>
<path d="M99.7803 38.1075C97.9999 41.0299 95.5073 43.421 93.4598 46.1663C93.2818 46.432 93.7269 46.7862 93.994 46.5205C96.3085 44.1295 98.534 41.207 100.136 38.2846C100.136 38.1075 99.8694 37.9304 99.7803 38.1075Z" fill="#F47892"/>
<path d="M93.638 49.7971C95.9526 46.8747 98.2671 43.8637 100.137 40.6757C100.315 40.3214 99.8695 40.0558 99.6024 40.3214C97.644 43.5095 95.0624 46.2548 92.9259 49.3543C92.6588 49.7971 93.371 50.1514 93.638 49.7971Z" fill="#F47892"/>
<path d="M98.7121 44.8379C97.0207 47.4061 95.0623 49.7086 93.3709 52.2767C93.1038 52.631 93.6379 53.0738 93.905 52.7195C95.8635 50.3285 97.6439 47.7603 99.3353 45.1921C99.5133 44.8379 98.9792 44.4837 98.7121 44.8379Z" fill="#F47892"/>
<path d="M99.3357 46.609C97.4662 49.9742 94.7066 52.631 92.392 55.642C92.125 55.9962 92.7481 56.439 93.0152 56.1733C95.5078 53.3394 98.0894 50.3285 99.8698 46.9633C100.137 46.5205 99.6027 46.2548 99.3357 46.609Z" fill="#F47892"/>
<path d="M94.7952 56.9703C96.4866 54.8449 98.267 52.6309 99.7804 50.3284C100.047 49.9742 99.5133 49.7085 99.2463 49.9742C97.6439 52.2767 95.8635 54.3135 94.1721 56.5275C93.905 56.9703 94.5282 57.3245 94.7952 56.9703Z" fill="#F47892"/>
<path d="M99.5136 52.9852C97.7332 55.2877 95.7748 57.4131 94.1724 59.8042C93.9053 60.247 94.5285 60.6012 94.8845 60.247C96.5759 57.9445 98.3564 55.642 100.048 53.3395C100.315 52.9852 99.7807 52.631 99.5136 52.9852Z" fill="#F47892"/>
<path d="M101.383 55.2877C100.048 56.9703 98.6233 58.5644 97.288 60.3355C97.021 60.6898 97.6441 61.044 97.9112 60.6898C99.0684 58.83 100.493 57.236 101.739 55.5534C101.917 55.2877 101.561 55.022 101.383 55.2877Z" fill="#F47892"/>
<path d="M102.006 57.7673C101.561 58.4759 101.027 59.096 100.76 59.8932C100.582 60.2475 101.116 60.5132 101.383 60.2475C101.917 59.6274 102.184 58.8303 102.629 58.1216C102.718 57.6788 102.184 57.413 102.006 57.7673Z" fill="#F47892"/>
<path d="M103.608 58.1216C103.341 58.5646 103.163 59.0076 102.896 59.4506C102.629 59.8935 103.341 60.3365 103.608 59.8935C103.875 59.4506 104.053 59.0076 104.32 58.5646C104.587 58.1216 103.875 57.6787 103.608 58.1216Z" fill="#F47892"/>
<path d="M105.211 59.0071C105.122 58.9186 104.855 58.83 104.766 59.0071C104.766 59.0071 104.766 59.0071 104.677 59.0957C104.588 59.1842 104.499 59.3613 104.499 59.4498C104.588 59.6269 104.766 59.7154 104.944 59.7154C105.033 59.7154 105.122 59.6269 105.122 59.6269L105.211 59.5384C105.3 59.3613 105.3 59.0957 105.211 59.0071Z" fill="#F47892"/>
<path d="M108.237 69.5455C108.861 68.3057 109.662 66.8002 109.217 65.3833C109.039 64.9405 108.415 65.1176 108.505 65.5604C108.861 66.6231 108.237 67.7743 107.792 68.7485C107.347 69.7226 106.813 70.9624 105.656 71.1395C105.389 71.2281 105.478 71.6709 105.745 71.5823C106.991 71.4938 107.703 70.5196 108.237 69.5455Z" fill="#F47892"/>
<path d="M120.344 64.6748C120.255 71.3167 112.777 74.5933 106.991 74.9475C106.724 74.9475 106.724 75.3903 106.991 75.3903C110.552 75.4789 114.113 74.3276 117.05 72.2908C119.632 70.5197 121.056 67.7744 121.234 64.6748C121.323 64.1435 120.344 64.0549 120.344 64.6748Z" fill="#F47892"/>
<path d="M145.893 45.2807C145.626 45.9891 145.715 46.8747 145.626 47.6717C145.448 48.823 145.27 49.9742 145.003 51.1255C144.647 53.428 144.558 55.9076 143.846 58.2101C143.4 59.5385 141.709 59.6271 140.552 59.8042C139.305 60.0698 138.059 60.1584 136.813 60.247C134.32 60.4241 131.739 60.3355 129.246 60.0698C129.068 60.0698 128.979 60.4241 129.157 60.4241C131.739 61.044 134.587 61.044 137.258 60.8669C138.415 60.7783 139.573 60.6012 140.73 60.4241C141.62 60.247 143.044 60.247 143.757 59.6271C144.469 59.0071 144.736 58.2987 144.914 57.3246C145.092 55.9962 145.27 54.6678 145.448 53.428C145.626 51.834 145.982 50.2399 146.249 48.6459C146.427 47.6717 146.427 46.4319 146.783 45.5463C146.961 45.015 146.071 44.6608 145.893 45.2807Z" fill="#F47892"/>
<path d="M133.43 59.0071C136.279 59.0071 140.285 59.1842 142.244 56.7046C144.469 53.7822 144.113 50.1513 144.647 46.6976C144.647 46.4319 144.38 46.3433 144.291 46.609C143.668 49.3543 143.579 52.3653 142.333 54.9335C141.531 56.5275 140.374 57.3245 138.594 57.6788C136.902 57.9444 135.122 58.033 133.43 58.033C132.807 58.033 132.807 59.0071 133.43 59.0071Z" fill="#F47892"/>
<path d="M117.139 4.98785C126.398 5.25364 135.656 5.07645 144.825 6.22819C145.537 6.31678 145.537 5.25364 144.825 5.16504C135.656 4.1905 126.309 4.27909 117.139 4.63347C116.961 4.63347 116.961 4.89926 117.139 4.98785Z" fill="#F47892"/>
<path d="M122.481 3.12809C129.959 3.12809 137.525 3.65966 145.003 4.10264C145.715 4.19123 145.715 3.03949 145.003 3.03949C141.264 2.8623 137.436 2.50792 133.697 2.41932C129.959 2.33073 126.131 2.24213 122.481 2.9509C122.392 3.03949 122.392 3.12809 122.481 3.12809Z" fill="#F47892"/>
<path d="M127.199 1.44482C129.958 1.44482 132.807 1.53342 135.567 1.53342C136.902 1.53342 138.237 1.53342 139.483 1.62201C140.641 1.71061 142.065 1.62201 143.133 1.97639C143.756 2.24218 144.024 1.17903 143.4 1.00184C142.599 0.736056 141.531 0.736056 140.73 0.736056C139.305 0.736056 137.881 0.647461 136.457 0.647461C133.341 0.647461 130.225 0.736056 127.11 0.913247C126.842 0.913247 126.842 1.44482 127.199 1.44482Z" fill="#F47892"/>
<path d="M73.6083 18.3591C70.0475 18.4477 66.4866 18.3591 63.0148 18.6248V18.5362C62.8368 17.7392 63.1929 16.8536 63.1929 16.0566C63.2819 14.9053 63.1038 13.6655 63.0148 12.5143C63.0148 12.3372 62.7477 12.3372 62.7477 12.5143C62.5697 13.6655 62.4807 14.9053 62.3917 16.0566C62.3026 16.9422 61.9466 17.8278 62.1246 18.7133C62.2136 19.0676 62.6587 19.0676 62.8368 18.8905C66.3976 19.1561 69.9584 18.979 73.5193 19.1561C74.1424 19.1561 74.1424 18.3591 73.6083 18.3591Z" fill="#F47892"/>
<path d="M64.6173 17.3849C64.8844 17.562 65.2405 17.4734 65.5966 17.4734C66.2197 17.3849 66.8429 17.4734 67.466 17.4734C68.8903 17.4734 70.3147 17.2963 71.739 17.2963C71.917 17.2963 71.917 17.0307 71.739 17.0307C69.7805 17.0307 67.8221 16.765 65.8636 16.765C65.5966 16.765 65.0624 16.9421 65.0624 16.4108C65.0624 16.0565 65.1515 15.7023 65.1515 15.3481C65.2405 14.4625 65.2405 13.4883 65.2405 12.6028C65.2405 12.0714 64.4393 12.0714 64.4393 12.6028C64.4393 13.6655 64.4393 14.7282 64.3503 15.8794C64.2613 16.2336 64.1722 17.1192 64.6173 17.3849Z" fill="#F47892"/>
</g>
<defs>
<clipPath id="clip0">
<rect width="150" height="93.96" fill="white" transform="translate(0.878418 0.647461)"/>
</clipPath>
</defs>
</svg>
