<svg width="31" height="25" viewBox="0 0 31 25" fill="none" xmlns="http://www.w3.org/2000/svg">
<g clip-path="url(#clip0)">
<path d="M24.2029 0.827878C24.1653 0.827878 24.1277 0.827878 24.09 0.827878C24.0147 0.791168 23.9018 0.827878 23.8265 0.901298C22.5467 2.22286 21.5304 3.76468 20.3635 5.19638C19.159 6.62807 17.9545 8.05976 16.75 9.49146C15.5455 10.9599 14.3786 12.4283 13.2494 13.9334C12.7224 14.6309 12.233 15.3284 11.7437 16.0626C11.3673 16.6132 10.8403 17.2373 10.5768 17.8614C9.4476 16.9803 8.58186 15.9157 7.67847 14.8144C7.00093 13.9701 6.21046 12.8321 5.23179 12.2447C5.26943 12.0612 5.08123 11.8776 4.85538 11.9877C4.02728 12.3916 3.27445 13.089 2.55927 13.6397C1.73116 14.3005 0.865418 14.9613 0.187877 15.7689C0.112595 15.7689 0.0373123 15.879 0.0749534 15.9524C1.24183 17.6778 2.89804 18.9994 4.51661 20.3209C6.32339 21.7893 8.24308 23.1843 9.97458 24.7628C10.0875 24.873 10.2381 24.873 10.351 24.7996C10.351 24.7996 10.351 24.7996 10.3886 24.7996C10.8027 24.7261 11.2167 24.1755 11.4802 23.8818C12.0448 23.2944 12.5342 22.6704 13.0612 22.0463C13.7011 21.3121 14.4162 20.6146 15.0561 19.9171C15.9972 18.8892 16.9006 17.8246 17.8416 16.7601C21.4551 12.6118 25.8215 9.19777 29.0586 4.82928C29.2092 4.75586 29.3221 4.5356 29.1339 4.38876C27.5906 3.1039 26.1603 1.41524 24.2029 0.827878ZM17.6534 16.136C16.7876 17.1272 15.9595 18.155 15.0938 19.1095C14.4162 19.8804 13.6634 20.6146 12.9859 21.4222C12.5342 21.9729 12.0825 22.5235 11.6308 23.0742C11.3673 23.3679 10.9156 24.1021 10.5016 24.3957C10.5016 24.359 10.4639 24.3223 10.4263 24.3223C7.22677 21.4222 3.27445 19.2563 0.451365 15.9524C1.24183 15.3651 1.91937 14.7043 2.67219 14.1169C3.42502 13.5663 4.17784 12.8321 5.04359 12.3916C5.79641 13.346 6.66216 14.2271 7.37734 15.2182C8.20544 16.3195 9.10883 17.4575 10.2381 18.3019C10.4639 18.4487 10.7274 18.3019 10.7274 18.0816C11.5555 16.5765 12.76 15.1448 13.814 13.7498C14.9056 12.3181 16.0724 10.9231 17.2017 9.56488C18.3309 8.2066 19.4978 6.84833 20.6647 5.49006C21.8692 4.09507 22.8855 2.55325 24.1653 1.23169C24.2029 1.19498 24.2029 1.15827 24.2406 1.12156C25.8591 1.96589 27.026 3.32416 28.3811 4.46218C25.3322 8.79396 21.1164 12.1346 17.6534 16.136Z" fill="#3F92D1"/>
<path d="M1.5807 14.1904C2.18296 13.6765 2.8605 13.1625 3.5004 12.722C3.95209 12.3916 4.51671 12.1347 4.9684 11.7676C5.08133 11.6574 4.93076 11.4739 4.7802 11.584C4.29086 11.9878 3.6886 12.2815 3.16163 12.6486C2.55937 13.0891 1.99475 13.5664 1.46778 14.0803C1.43013 14.1904 1.50542 14.2638 1.5807 14.1904Z" fill="#3F92D1"/>
<path d="M1.69344 13.7131C2.10749 13.2359 2.74739 12.8688 3.23673 12.465C3.65078 12.1713 4.17776 11.8776 4.55417 11.5472C4.66709 11.4371 4.51653 11.2535 4.36596 11.3637C3.91427 11.7675 3.34965 12.0612 2.89796 12.4283C2.44626 12.7954 1.88165 13.1625 1.54288 13.6397C1.50524 13.7131 1.61816 13.7865 1.69344 13.7131Z" fill="#3F92D1"/>
<path d="M1.65585 13.1992C2.33339 12.5017 3.27442 12.0245 4.06489 11.4739C4.17781 11.3637 4.02725 11.1802 3.87668 11.2903C3.08622 11.8777 2.25811 12.4283 1.58057 13.1258C1.54293 13.1625 1.61821 13.2359 1.65585 13.1992Z" fill="#3F92D1"/>
<path d="M10.351 17.4576C10.2758 17.531 10.3887 17.6778 10.5016 17.6044C10.7651 17.3842 10.9533 17.0171 11.1415 16.7234C11.3673 16.3563 11.6308 15.9892 11.8567 15.5854C11.8943 15.5487 11.819 15.5119 11.7814 15.5487C11.5932 15.8423 11.3297 16.0993 11.1415 16.393C10.878 16.7234 10.6522 17.1639 10.351 17.4576Z" fill="#3F92D1"/>
<path d="M10.2381 17.2374C10.6145 16.6868 11.1039 16.2095 11.4426 15.6589C11.4803 15.5855 11.405 15.5488 11.3674 15.6222C10.9533 16.1728 10.4263 16.6133 10.0499 17.164C9.97463 17.2374 10.1628 17.3475 10.2381 17.2374Z" fill="#3F92D1"/>
<path d="M9.97461 17.0538C10.2381 16.8335 10.4263 16.5032 10.6145 16.2462C10.6522 16.1728 10.9533 15.8791 10.9156 15.8057C10.8027 15.8057 10.6522 16.0626 10.5769 16.1361C10.351 16.393 10.1252 16.7234 9.86169 16.907C9.71113 16.9804 9.86169 17.1639 9.97461 17.0538Z" fill="#3F92D1"/>
<path d="M13.8141 20.064C13.1742 20.7615 12.5719 21.4957 11.8944 22.1932C11.5556 22.5603 11.2168 22.8539 10.9157 23.221C10.7652 23.4046 10.5393 23.5514 10.464 23.7717C9.93705 23.3312 9.37243 22.9274 8.84545 22.4501C8.20555 21.8628 7.41509 21.459 6.77519 20.9083C6.73755 20.9083 6.73755 20.9083 6.73755 20.945C7.1516 21.459 7.75386 21.8995 8.31848 22.3033C9.03366 22.8172 9.74884 23.4413 10.3887 24.0287C10.464 24.1021 10.5393 24.0654 10.5769 23.992C10.6146 23.992 10.6522 23.9552 10.6522 23.9185C10.7275 23.6249 11.2168 23.2578 11.4051 23.0742C11.7438 22.7071 12.1202 22.3767 12.4214 22.0096C12.9483 21.4223 13.4 20.7615 13.927 20.1741C13.9647 20.064 13.8517 19.9906 13.8141 20.064Z" fill="#3F92D1"/>
<path d="M8.80762 22.1565C9.25931 22.5236 9.74865 22.9274 10.2003 23.2945C10.238 23.3313 10.2756 23.3313 10.3509 23.3313C10.3885 23.3313 10.4262 23.3313 10.4638 23.2945C11.4049 22.2667 12.647 21.4223 13.3998 20.2476C13.4375 20.2109 13.3622 20.1375 13.3246 20.1742C12.3459 21.1287 11.2919 22.0464 10.3509 23.0376C9.97449 22.7439 9.63572 22.4502 9.25931 22.1565C8.80762 21.8261 8.20536 21.4958 7.82895 21.0919C7.79131 21.0552 7.71603 21.0919 7.75367 21.1654C7.90423 21.6059 8.43121 21.8629 8.80762 22.1565Z" fill="#3F92D1"/>
<path d="M9.33469 21.8995C9.67346 22.083 9.93695 22.34 10.2381 22.5236C10.2381 22.5236 10.2757 22.5236 10.2757 22.5603C10.3134 22.5603 10.3886 22.5603 10.3886 22.5236C10.6898 22.1198 11.1038 21.8261 11.4426 21.459C11.7437 21.1653 12.0825 20.9083 12.3083 20.5779C12.346 20.5412 12.2707 20.4678 12.2331 20.5045C11.9696 20.8349 11.5555 21.0919 11.2167 21.3856C10.9156 21.6792 10.5768 21.9729 10.2757 22.3033C10.0499 22.1565 9.78638 21.9729 9.56054 21.8261C9.29705 21.6792 8.99592 21.5324 8.73243 21.3488C8.69479 21.3121 8.65715 21.3488 8.69479 21.3856C8.84536 21.6058 9.0712 21.7527 9.33469 21.8995Z" fill="#3F92D1"/>
<path d="M24.5042 7.47241C23.4502 7.76609 22.3586 8.13319 21.3423 8.57371C21.267 8.61042 21.3047 8.68384 21.3799 8.68384C22.4339 8.31674 23.4879 8.02306 24.5418 7.65596C24.6171 7.61925 24.6171 7.47241 24.5042 7.47241Z" fill="#3F92D1"/>
<path d="M23.563 8.24334C22.5091 8.50031 21.4551 8.86741 20.5141 9.38136C20.4388 9.41807 20.5141 9.5282 20.5894 9.49149C21.568 9.01425 22.5844 8.75728 23.6383 8.42689C23.7136 8.35347 23.6759 8.20663 23.563 8.24334Z" fill="#3F92D1"/>
<path d="M23.0737 8.90417C21.7186 9.12444 20.4012 9.63838 19.1214 10.1523C19.0461 10.189 19.0837 10.2992 19.159 10.2624C20.4764 9.78522 21.7939 9.45483 23.1113 9.05102C23.2242 9.05102 23.1866 8.90417 23.0737 8.90417Z" fill="#3F92D1"/>
<path d="M22.5468 9.63839C21.4552 10.0422 20.213 10.3726 19.0462 10.5929C18.9709 10.5929 19.0085 10.7397 19.0838 10.7397C19.799 10.6296 20.4765 10.446 21.1541 10.2625C21.6434 10.1156 22.1704 10.0422 22.6597 9.85865C22.735 9.82194 22.6597 9.60168 22.5468 9.63839Z" fill="#3F92D1"/>
<path d="M21.7187 10.4093C20.8153 10.703 19.912 10.9599 19.0462 11.2536C18.9333 11.2903 18.9709 11.4372 19.0839 11.4005C19.9872 11.1068 20.9283 10.9232 21.794 10.5561C21.8693 10.5194 21.794 10.3726 21.7187 10.4093Z" fill="#3F92D1"/>
<path d="M20.8528 11.2903C19.8742 11.4004 18.9708 11.8042 18.0674 12.0979C17.9921 12.1346 18.0298 12.2447 18.105 12.2447C19.0461 11.9511 19.9495 11.6574 20.8905 11.4738C20.9658 11.4371 20.9658 11.2903 20.8528 11.2903Z" fill="#3F92D1"/>
<path d="M19.9119 12.1713C19.1214 12.3916 18.3309 12.6853 17.5781 13.0157C17.5028 13.0524 17.5781 13.1258 17.6158 13.1258C18.4062 12.8321 19.2343 12.6853 19.9871 12.3549C20.0624 12.2815 19.9871 12.1346 19.9119 12.1713Z" fill="#3F92D1"/>
<path d="M19.1967 12.9056C18.4439 13.1259 17.6911 13.3828 16.9383 13.6398C16.863 13.6765 16.9006 13.7867 16.9759 13.7499C17.7287 13.493 18.4815 13.3094 19.2344 13.0525C19.3473 13.0525 19.3096 12.8689 19.1967 12.9056Z" fill="#3F92D1"/>
<path d="M18.7451 13.5296C18.0299 13.7132 17.3524 14.0068 16.6748 14.2271C16.5995 14.2638 16.6372 14.3739 16.7125 14.3739C17.4276 14.1537 18.1052 13.9334 18.8204 13.7132C18.8957 13.6764 18.858 13.4929 18.7451 13.5296Z" fill="#3F92D1"/>
<path d="M17.578 14.4841C17.1263 14.5943 16.6746 14.8145 16.2229 14.9981C16.1476 15.0348 16.1853 15.1816 16.2606 15.1449C16.7123 14.9981 17.2016 14.8512 17.6533 14.6677C17.7286 14.631 17.6909 14.4841 17.578 14.4841Z" fill="#3F92D1"/>
<path d="M16.7122 15.2549C16.4111 15.3651 16.0723 15.4752 15.7712 15.5853C15.6959 15.6221 15.6959 15.7689 15.8089 15.7322C16.1476 15.6588 16.4488 15.5486 16.7499 15.4385C16.8628 15.4018 16.8252 15.2182 16.7122 15.2549Z" fill="#3F92D1"/>
<path d="M16.0724 15.8424C15.9595 15.8424 15.8466 15.9158 15.7713 15.9892C15.6584 16.0627 15.5455 16.0994 15.4325 16.1361C15.3949 16.1361 15.3949 16.1728 15.4325 16.1728C15.5455 16.2462 15.6584 16.1728 15.7713 16.1361C15.8842 16.0994 16.0348 16.0627 16.1477 15.9892C16.1854 15.9525 16.1477 15.8424 16.0724 15.8424Z" fill="#3F92D1"/>
<path d="M25.0309 6.73823C23.7888 7.21546 22.4713 7.47243 21.2292 7.94966C21.1539 7.98637 21.2292 8.0965 21.3045 8.05979C22.5466 7.54585 23.8641 7.39901 25.1062 6.92178C25.2191 6.88507 25.1439 6.70152 25.0309 6.73823Z" fill="#3F92D1"/>
<path d="M25.2192 5.89399C24.2029 6.15096 23.1865 6.51806 22.1702 6.84845C22.0573 6.88516 22.095 7.032 22.2079 6.99529C23.2242 6.6649 24.2405 6.37122 25.2568 6.07754C25.4074 6.04083 25.3321 5.85728 25.2192 5.89399Z" fill="#3F92D1"/>
<path d="M25.4828 5.15968C24.8053 5.34323 24.1278 5.56349 23.4502 5.74704C23.3749 5.78375 23.4126 5.89388 23.4879 5.89388C24.1654 5.74704 24.8806 5.6002 25.5205 5.37994C25.6334 5.26981 25.5958 5.12297 25.4828 5.15968Z" fill="#3F92D1"/>
<path d="M24.4288 5.04957C24.7675 4.97615 25.1063 4.90273 25.4451 4.82931C25.558 4.82931 25.5204 4.64576 25.4074 4.68247C25.0687 4.75589 24.7299 4.82931 24.3911 4.93944C24.3159 4.93944 24.3535 5.04957 24.4288 5.04957Z" fill="#3F92D1"/>
<path d="M19.4225 5.93063C19.7236 5.4534 20.213 5.04959 20.5894 4.64578C20.9281 4.27868 21.2669 3.83815 21.568 3.43434C22.3209 2.44317 23.0361 1.37858 23.9018 0.497538C24.0147 0.387408 23.8265 0.203858 23.7136 0.313988C22.9608 1.12161 22.3209 2.03936 21.6433 2.9204C21.1916 3.50776 20.7399 4.13184 20.2506 4.68249C19.9118 5.04959 19.5354 5.4534 19.3096 5.89392C19.2719 5.96734 19.3849 6.00405 19.4225 5.93063Z" fill="#3F92D1"/>
<path d="M19.5355 5.08632C20.213 4.35212 20.8153 3.5445 21.4552 2.77359C21.794 2.33306 22.1704 1.92925 22.5844 1.52544C22.9232 1.15834 23.1867 0.754532 23.5255 0.387431C23.6384 0.277301 23.4502 0.0937502 23.3372 0.20388C23.0361 0.497561 22.8103 0.827952 22.5468 1.15834C22.208 1.52544 21.8692 1.85583 21.5681 2.25964C20.8529 3.1774 20.213 4.13186 19.4602 5.0129C19.4602 5.04961 19.4978 5.12303 19.5355 5.08632Z" fill="#3F92D1"/>
<path d="M28.0799 2.95713C27.5529 2.51661 27.1012 1.89253 26.4236 1.70898C26.3484 1.70898 26.3107 1.7824 26.386 1.81911C27.0259 2.14951 27.5529 2.77358 28.0799 3.25081C28.6068 3.69133 29.1338 4.09514 29.6231 4.53566C29.7361 4.64579 29.9243 4.46224 29.8113 4.38882C29.2467 3.87488 28.6821 3.39765 28.0799 2.95713Z" fill="#3F92D1"/>
<path d="M30.0374 3.9116C29.1716 3.28753 28.4188 2.44319 27.5154 1.85583C27.4401 1.81912 27.3648 1.89254 27.4401 1.96596C27.8542 2.33306 28.2682 2.73688 28.7199 3.10398C28.9081 3.25082 29.0963 3.39766 29.2845 3.50779C29.548 3.69134 29.6986 3.9116 29.9621 4.09515C30.0374 4.24199 30.1879 4.02173 30.0374 3.9116Z" fill="#3F92D1"/>
<path d="M22.6596 11.9143C21.7562 12.9422 20.7399 13.86 19.8742 14.8879C18.9708 15.9525 17.8039 16.7968 17.0511 18.0082C17.0134 18.0449 17.0887 18.0816 17.0887 18.0449C17.9921 16.9803 19.1213 16.0993 20.0247 15.0347C20.9281 14.0068 21.9444 13.0891 22.8102 12.0612C22.9231 11.9878 22.7725 11.8042 22.6596 11.9143Z" fill="#3F92D1"/>
<path d="M22.5844 12.5751C21.7563 13.4195 21.0411 14.3005 20.213 15.1448C19.4978 15.8423 18.745 16.4664 18.218 17.3474C18.1804 17.3842 18.2557 17.4209 18.2933 17.3842C18.8956 16.6132 19.686 15.9892 20.4012 15.2917C21.2293 14.4841 21.9821 13.5663 22.7726 12.722C22.8479 12.6118 22.6973 12.465 22.5844 12.5751Z" fill="#3F92D1"/>
</g>
<defs>
<clipPath id="clip0">
<rect width="30" height="24.7059" fill="white" transform="translate(0.0749512 0.167114)"/>
</clipPath>
</defs>
</svg>
