<svg width="415" height="274" viewBox="0 0 415 274" fill="none" xmlns="http://www.w3.org/2000/svg">
<path d="M87.5798 91.8792C88.1718 90.3991 89.0598 89.2149 89.6518 88.0308C91.1318 85.3666 93.2038 82.9984 95.2758 80.9262C97.3478 78.854 99.7158 76.7818 102.38 75.3016C104.748 73.8215 107.412 72.3413 110.372 71.7493C112.74 71.1572 115.7 71.4532 117.18 73.8215C118.068 75.0056 118.364 76.4857 119.252 77.6698C120.14 78.854 121.028 80.0381 122.212 81.2222C123.396 82.4063 124.876 83.2944 126.356 84.1825C127.54 84.7745 129.316 85.9586 128.428 87.4388C128.132 88.0308 127.54 87.4388 127.244 87.7348C127.244 87.7348 127.244 87.7348 127.244 88.0308C128.132 88.3269 129.02 88.3269 129.612 88.6229C131.98 90.103 134.052 92.1752 136.124 94.2474C138.492 96.9117 140.86 99.2799 143.228 101.944C148.26 107.273 152.996 112.897 158.028 118.226C167.796 129.179 177.564 139.836 187.332 150.789C190.884 154.637 194.436 158.782 197.988 162.63C198.284 162.63 198.58 162.63 198.876 163.222C198.876 163.518 198.876 163.518 198.876 163.814C200.356 165.59 202.132 167.366 203.612 169.143C203.612 168.551 203.612 168.255 204.204 167.959C213.084 164.406 221.668 161.15 230.548 157.598C234.988 155.821 239.132 154.341 243.572 152.565C244.46 152.269 245.348 151.677 246.236 151.973C247.42 152.565 248.604 153.157 249.788 153.749C251.86 154.637 253.932 155.821 256.004 156.709C272.876 164.998 289.748 173.287 306.62 181.576C311.356 183.944 316.092 186.312 320.828 188.68C325.564 191.049 330.596 193.121 335.036 195.785C335.628 196.081 335.332 196.969 335.036 197.265C334.148 199.041 332.668 199.93 331.188 201.114C329.708 202.298 328.228 203.482 326.452 204.666C323.492 207.034 320.236 209.402 316.98 211.771C310.764 216.507 304.252 221.54 298.036 226.276C285.308 236.045 272.284 245.518 259.556 254.991C256.004 257.655 252.452 260.319 248.9 262.984C247.124 264.168 245.348 265.648 243.572 266.832C242.98 267.424 242.092 267.72 241.204 268.312C241.5 268.608 241.796 268.904 242.092 268.904C242.684 269.496 241.796 270.68 241.204 270.088C240.612 269.792 240.316 269.496 239.724 268.904C239.132 269.2 238.54 270.088 237.652 270.088C237.06 270.088 237.06 269.792 237.06 269.2C236.764 269.2 236.468 269.496 235.876 269.496C234.692 269.496 233.212 269.496 232.028 269.496C229.66 269.496 227.292 269.496 224.628 269.792C219.892 269.792 215.156 270.088 210.124 270.088C205.388 270.088 200.652 270.384 195.62 270.384C190.884 270.384 186.148 270.976 181.412 270.384C179.932 270.088 178.748 269.496 177.564 268.904C177.268 268.904 176.972 269.2 176.676 269.2C176.084 269.2 176.084 268.608 175.788 268.312C169.276 265.944 163.356 262.392 157.436 258.247C149.444 252.623 141.452 247.294 133.46 241.67C124.58 235.453 115.404 229.236 106.524 223.316C105.636 222.724 105.636 221.54 106.524 220.948C122.804 208.514 139.972 197.265 157.436 187.2C159.804 185.72 162.468 184.832 164.836 183.352C153.292 173.879 142.044 164.11 131.092 153.749C127.54 150.197 123.692 146.94 120.14 143.388C118.364 141.612 116.588 139.836 114.812 138.06C113.036 136.283 111.26 134.507 110.076 132.435C109.78 131.843 110.372 131.251 110.964 131.547C113.036 132.435 114.516 133.915 115.996 135.691C117.476 137.172 119.252 138.948 121.028 140.428C124.284 143.388 127.244 146.644 130.5 149.605C137.012 155.821 143.524 161.742 150.332 167.662C155.956 172.695 161.876 177.431 167.5 182.168C168.684 181.576 169.572 180.984 170.756 180.392C162.468 173.287 154.18 165.886 145.892 158.486C135.828 149.309 126.06 139.836 116.292 130.067C111.556 125.034 106.82 120.298 102.38 114.969C102.084 114.377 101.788 113.785 101.492 113.489C100.9 113.785 100.308 114.081 99.7158 113.489C96.7558 110.825 94.3878 107.865 91.4278 104.904C89.9478 103.424 88.7638 101.944 87.2838 100.464C86.0998 99.2799 85.2118 97.7998 85.2118 96.3196C86.0998 94.8395 86.6918 93.3593 87.5798 91.8792ZM98.5318 106.385C98.5318 106.089 98.5318 105.793 98.5318 105.497C97.6438 104.904 97.0518 104.016 96.1638 103.128C97.0518 104.312 97.9398 105.497 98.5318 106.385ZM105.044 95.1355C104.452 94.8395 103.86 94.2474 103.268 93.6554C102.38 92.7673 101.492 91.5832 100.604 90.6951C98.8278 88.9189 97.0518 87.1428 94.9798 85.6626C94.6838 85.3666 94.9798 85.0706 94.6838 85.0706C94.3878 85.3666 94.0918 85.9586 93.7958 86.2547H94.0918C97.6438 89.511 100.9 92.7673 104.156 96.0236C104.748 95.4315 105.044 95.1355 105.044 95.1355ZM102.972 97.7998C102.676 97.5037 102.084 97.7998 102.084 97.5037C102.084 97.2077 102.38 96.9117 102.676 96.9117C99.7158 93.6554 96.4598 90.6951 93.4998 87.4388C93.2038 88.0308 92.6118 88.6229 92.3158 89.215C94.6838 90.103 97.0518 91.5832 99.1238 93.3593C100.604 94.5435 101.788 96.6157 102.676 98.3918C102.676 98.0958 102.676 97.7998 102.972 97.7998ZM95.5718 84.1825C95.8678 84.1825 95.8678 83.8864 96.1638 84.1825C98.5318 85.6626 100.604 87.1427 102.38 88.9189C103.268 89.807 104.156 90.6951 105.044 91.8792C105.636 92.4713 105.932 93.3594 106.228 94.2474C106.524 93.9514 106.524 93.9514 106.82 93.6554C106.82 93.3594 106.82 93.3593 107.116 93.0633C106.82 92.7673 106.228 92.1752 105.932 91.8792C105.044 90.9911 103.86 89.807 102.972 88.9189C101.196 87.1427 99.4198 85.3666 97.6438 83.2944C96.7558 83.2944 96.1638 83.5904 95.5718 84.1825C95.8678 84.1825 95.8678 84.1825 95.5718 84.1825ZM100.9 80.3341C102.972 81.5182 104.748 82.7023 106.228 84.1825C107.116 85.0706 108.004 85.9586 108.596 87.1428C109.188 88.0308 110.372 89.511 110.372 90.6951C110.372 91.2872 109.78 91.8792 109.188 91.5832C108.3 90.9911 107.708 89.807 107.116 88.9189C106.524 88.0308 105.636 86.8467 105.044 85.9586C103.564 84.1825 101.788 82.7023 100.012 81.5182C99.7158 81.8142 99.4198 82.1103 99.1238 82.1103C100.9 83.8864 102.676 85.3666 104.748 87.1428C105.636 88.0308 106.524 88.9189 107.708 89.807C108.3 90.3991 108.892 90.9911 109.484 91.8792C110.668 90.9911 111.852 90.103 113.036 89.215C112.74 89.511 112.444 89.807 112.148 89.807C111.26 89.215 110.668 88.3269 110.076 87.4388C109.484 86.2547 108.596 85.3666 107.708 84.4785C106.228 82.7023 104.748 81.2222 102.972 79.742C101.788 79.446 101.492 79.742 100.9 80.3341ZM107.116 75.5976C105.932 76.1897 105.044 77.0778 104.156 77.9659C105.932 79.446 107.708 80.6301 109.188 82.4063C110.076 83.2944 110.668 84.1825 111.556 85.3666C112.444 86.5507 113.036 87.4388 113.036 88.6229C113.332 88.3269 113.628 88.0308 113.924 88.0308C114.22 88.0308 114.22 88.0308 114.516 88.0308C114.22 87.4388 113.628 87.1428 113.332 86.8467C112.74 85.6626 111.852 84.7745 110.964 83.5904C109.484 81.8142 107.708 79.742 105.932 78.2619C105.34 77.6698 106.228 76.1897 107.116 76.7818C109.188 78.2619 111.26 80.0381 113.036 82.4063C113.924 83.2944 114.516 84.4785 115.404 85.6626C115.996 86.2547 115.996 87.1428 116.292 87.7348C116.884 87.4388 117.772 87.4388 118.364 87.1428C117.772 86.5507 117.476 85.9586 116.884 85.0706C116.292 84.1825 115.7 82.9984 115.108 82.1103C113.628 80.3341 112.148 78.5579 110.372 77.3738C109.484 76.7818 110.372 75.3016 111.26 75.8937C113.332 77.3738 115.108 78.854 116.884 80.9262C117.476 81.8142 118.364 82.7023 118.956 83.8864C119.548 84.7745 119.844 85.9586 119.844 86.8467C122.212 86.5507 124.58 86.5507 126.948 87.4388C126.948 87.4388 126.948 87.4388 126.948 87.1428C126.652 86.8467 126.356 86.5507 126.06 86.2547C125.764 85.9586 125.468 85.9586 124.876 85.6626C123.692 85.0706 122.804 84.4785 121.916 83.5904C121.62 83.2944 121.62 82.9984 121.324 82.7023C121.62 83.5904 120.732 84.1825 120.14 83.5904C118.66 82.4063 117.18 80.6301 115.996 79.15C115.404 78.5579 114.812 77.6698 114.22 77.0778C113.924 76.7818 113.628 76.4857 113.332 75.8937C113.332 75.8937 113.628 75.8937 113.628 76.1897C113.332 76.4857 112.74 76.1897 112.74 75.8937C112.444 75.3016 113.036 75.0056 113.628 74.7096C113.924 74.4135 114.22 74.4135 114.516 74.7096C115.996 75.5976 116.884 77.0778 118.068 78.2619C117.18 76.7818 116.588 74.4135 114.516 74.1175C110.668 73.8215 108.892 74.7096 107.116 75.5976ZM116.292 96.3196C116.588 96.6157 116.884 96.6157 116.884 96.9117C116.588 96.6157 115.996 96.3196 116.292 95.7276C116.884 93.9514 117.18 92.4713 117.18 90.6951C117.18 90.103 117.772 90.3991 118.364 90.6951C118.364 90.6951 118.66 90.6951 118.66 90.3991C118.66 90.3991 118.66 90.3991 118.66 90.6951C118.66 91.8792 119.252 93.0633 119.548 94.2474C120.14 95.4316 120.436 96.6157 121.028 97.7998C121.324 98.3918 121.62 98.9839 121.916 99.2799C121.916 98.6879 121.916 98.0958 121.916 97.5037C121.916 95.1355 121.62 92.7673 121.324 90.6951C121.028 89.215 123.396 88.6229 123.692 90.103C124.284 92.4713 124.58 94.8395 124.876 97.5037C124.876 99.5759 124.876 101.648 124.58 103.72C125.468 104.608 126.356 105.497 127.54 106.385C127.244 104.312 126.948 102.24 126.652 100.168C126.356 97.2077 125.764 94.2474 125.468 91.2872C125.468 90.6951 125.764 90.3991 126.356 90.103C124.876 89.511 123.692 88.3269 121.916 88.3269C119.548 88.3269 117.18 89.2149 115.108 90.3991C115.404 90.3991 115.996 90.3991 115.996 90.9911C116.292 92.4713 116.588 93.6554 116.884 95.1355C116.588 95.7276 116.292 96.0236 116.292 96.3196ZM118.364 96.6157C118.068 97.2077 117.476 97.2077 117.18 96.9117C117.772 97.5037 118.66 98.0958 119.252 98.6879C119.844 99.2799 120.436 99.872 121.028 100.168C120.732 99.2799 120.732 98.6879 120.436 97.7998C120.14 96.6157 119.844 95.7276 119.548 94.5435C119.252 93.9514 118.956 93.6554 118.956 93.0633C118.66 94.5435 118.956 95.7276 118.364 96.6157ZM126.948 90.6951C127.244 90.6951 127.54 90.6951 127.54 91.2872C128.132 94.2474 128.428 97.2077 129.02 100.168C129.612 103.128 130.204 106.089 130.204 109.049C130.204 109.345 129.908 109.345 129.908 109.345C130.5 109.937 130.796 110.233 131.388 110.825C129.612 104.608 128.724 98.3918 127.836 91.8792C127.836 91.5832 128.132 91.8792 128.132 91.5832C127.836 90.9911 127.54 90.9911 126.948 90.6951ZM111.852 75.5976C111.852 75.5976 111.556 75.5976 111.852 75.5976V75.5976ZM126.356 86.5507C126.356 86.5507 126.652 86.5507 126.356 86.5507C126.652 86.5507 126.652 86.5507 126.356 86.5507C126.652 86.5507 126.652 86.5507 126.356 86.5507ZM155.956 120.002C156.252 120.89 156.548 121.778 156.844 122.666C157.14 123.85 157.436 125.33 157.732 126.515C157.732 127.107 158.028 127.699 158.028 128.291C158.028 129.179 157.732 129.475 157.732 130.363C157.436 131.251 156.252 130.955 155.956 130.363C155.66 129.771 155.364 129.475 155.364 128.883C155.068 128.291 155.068 127.403 155.068 126.811C154.772 125.626 154.772 124.146 154.476 122.962C153.884 120.594 153.292 117.93 152.404 115.561C151.516 114.673 150.924 113.785 150.036 112.897C150.924 114.969 152.108 117.042 152.7 119.41C153.292 121.778 154.476 125.33 152.996 127.403C152.7 127.995 152.108 127.699 151.812 127.403C151.22 126.515 150.924 125.33 150.924 124.146C150.628 122.666 150.628 121.482 150.332 120.002C149.74 117.338 148.852 114.673 147.668 112.305C147.372 111.417 147.964 111.121 148.556 110.825C147.372 109.641 146.188 108.161 145.004 106.977C146.188 109.641 147.372 112.305 148.26 115.265C148.556 116.746 148.852 118.226 149.148 120.002C149.444 121.482 149.74 122.962 148.556 123.85C148.26 124.146 147.964 123.85 147.668 123.85C146.484 123.258 146.484 121.778 146.484 120.594C146.188 119.114 145.892 117.634 145.596 116.154C145.004 113.193 144.116 110.233 142.932 107.569C142.34 106.385 143.524 105.793 144.412 106.385C141.452 103.128 138.492 99.872 135.532 96.6157C135.236 96.3196 134.94 96.3196 134.94 96.0236C135.828 98.9839 136.42 101.944 137.308 104.608C137.604 106.089 138.196 107.569 138.492 109.049C138.788 109.937 138.788 110.825 139.084 111.417C139.084 111.713 139.38 112.305 139.084 112.601C139.084 112.897 138.788 113.193 138.788 113.785C138.788 114.377 137.9 114.377 137.604 114.081C137.012 113.489 136.716 113.193 136.42 112.601C136.124 111.713 135.828 110.825 135.532 110.233C135.236 108.753 134.644 106.977 134.348 105.497C133.46 102.24 132.868 98.9839 131.98 96.0236C131.684 95.1355 132.276 94.5435 132.868 94.5435C132.276 93.9514 131.388 93.0633 130.796 92.4713C131.684 98.6879 133.164 104.904 134.348 111.121C134.348 111.713 134.052 111.713 133.756 112.009C134.052 112.305 134.052 112.305 134.348 112.601C136.716 114.969 139.084 117.042 141.452 119.41C140.564 118.522 140.564 117.042 140.268 115.858C139.972 114.377 139.676 112.897 139.38 111.417C138.788 108.457 138.196 105.793 137.604 102.832C137.308 101.352 139.38 100.76 139.972 102.24C140.564 105.2 141.452 107.865 142.044 110.825C142.34 112.305 142.636 113.489 142.932 114.969C143.228 116.154 143.82 117.93 143.524 119.114C143.228 120.002 142.34 120.002 141.748 119.706C146.188 123.85 150.628 127.995 155.068 132.139C165.724 142.204 176.084 151.973 186.74 162.038C186.444 161.15 186.444 160.558 186.444 159.67C186.444 158.782 186.444 157.894 186.444 156.709C186.444 155.525 186.148 154.341 186.148 153.157L185.852 152.861C185.852 153.453 185.852 154.341 185.852 154.933C185.852 156.117 185.852 157.301 185.556 158.486C185.26 159.67 183.78 159.374 183.78 158.19C183.484 156.709 183.78 155.229 184.076 153.749C184.076 153.157 184.076 152.269 184.076 151.677C184.076 151.381 184.076 151.085 184.076 150.789C183.78 150.789 183.188 150.789 183.484 150.197C183.484 150.197 183.484 150.197 183.78 150.197C182.596 148.717 181.412 147.533 180.228 146.052C180.524 146.644 180.82 147.533 181.116 148.125C181.412 149.605 182.004 151.381 181.116 152.861C180.82 153.453 179.932 153.453 179.636 152.861C179.044 151.677 179.34 150.197 179.044 148.717C178.748 147.237 178.156 145.756 177.564 144.276C177.268 143.98 177.564 143.684 177.86 143.684C176.676 142.204 175.492 141.02 174.012 139.54C174.604 141.612 175.492 143.684 175.492 146.052C175.492 146.644 175.196 146.94 174.604 147.237C174.308 147.533 173.716 147.533 173.716 147.237C173.42 146.94 173.124 146.644 173.124 146.348C173.42 143.388 172.828 140.132 171.644 137.172C171.052 136.579 170.756 135.987 170.164 135.691C170.164 136.283 170.46 136.579 170.46 137.172C170.756 139.244 171.348 141.908 170.46 143.98C170.164 144.868 168.684 144.572 168.388 143.684C168.092 142.796 168.388 141.612 168.388 140.724C168.388 139.54 168.388 138.652 168.092 137.468C167.796 135.691 167.5 133.915 166.908 132.139C166.316 131.547 165.724 130.955 165.132 130.363C165.428 131.251 165.724 131.843 166.02 132.731C166.316 133.915 166.316 135.099 166.612 136.283C166.612 137.468 166.908 138.652 166.02 139.836C165.724 140.428 164.836 140.428 164.54 139.836C163.948 138.948 163.948 137.764 163.948 136.876C163.948 135.691 163.652 134.507 163.652 133.323C163.356 130.955 162.764 128.883 162.172 126.811C161.876 126.515 161.58 126.218 161.284 125.922C161.58 126.811 161.876 127.995 162.172 128.883C162.468 130.067 162.468 131.251 162.468 132.435C162.468 133.323 162.468 134.803 161.58 135.395C161.284 135.691 160.692 135.691 160.396 135.395C159.804 134.803 159.804 133.619 159.804 132.731C159.804 131.547 159.804 130.659 159.508 129.475C159.212 127.107 158.916 125.034 158.028 122.666C157.14 121.482 156.548 120.89 155.956 120.002ZM200.06 171.215C200.06 172.399 198.58 172.991 197.988 171.807C197.988 171.511 197.988 171.511 197.988 171.215C197.988 170.623 197.988 170.327 197.988 169.735C197.988 169.439 197.692 168.847 197.692 168.551C197.692 167.662 197.692 166.478 197.396 165.59C197.1 165.294 196.804 164.702 196.212 164.406C195.916 165.886 195.324 167.07 193.548 167.07C192.956 167.07 192.66 166.478 192.956 166.182C193.252 164.998 193.844 164.11 194.14 162.926C194.14 162.334 193.844 162.038 193.548 161.446L193.252 161.15C192.66 160.558 192.068 159.966 191.476 159.374C191.772 160.558 192.068 162.038 191.772 163.222C191.476 164.11 190.588 164.11 189.996 163.518C189.108 162.334 189.108 160.854 188.812 159.67C188.516 158.486 188.516 157.301 188.516 156.117C188.516 156.117 188.516 156.117 188.516 155.821C188.516 156.117 188.812 156.413 188.812 156.709C188.812 157.598 188.812 158.782 188.812 159.67C188.812 160.558 188.812 161.742 188.22 162.334C187.924 162.63 187.332 162.63 187.036 162.334C189.996 164.998 192.956 167.958 195.916 170.623C198.876 173.583 201.836 176.247 204.796 179.208C204.796 178.912 204.796 178.912 204.796 178.616C204.796 178.912 204.796 178.912 204.796 178.616C204.796 178.32 205.092 178.023 205.092 177.727C205.092 176.247 204.796 174.767 204.796 173.583C204.204 172.991 203.908 172.695 203.316 172.103C203.612 172.991 204.204 173.583 204.204 174.471C204.204 175.359 203.612 176.543 202.428 176.247C201.54 176.247 200.948 175.359 201.244 174.471C201.244 174.175 201.54 173.879 201.836 173.879C201.836 173.583 201.836 173.583 201.836 173.287C201.836 172.695 201.54 171.807 201.54 171.215C201.244 170.327 200.948 169.439 200.652 168.847C200.356 168.551 200.06 168.255 199.764 167.959C199.468 169.143 200.06 170.031 200.06 171.215ZM200.948 200.522C200.652 200.818 200.356 200.818 200.06 200.522C201.244 201.41 202.428 202.002 203.908 202.594C203.908 202.298 203.612 202.002 203.612 201.706C203.612 200.818 203.316 199.93 203.316 199.041C203.02 197.265 202.428 195.489 201.836 194.009C201.54 193.417 201.836 192.825 202.428 192.529C202.132 192.233 201.836 192.233 201.54 191.937C200.652 191.049 199.764 190.457 198.876 189.569C199.764 191.049 200.652 192.825 200.948 194.601C201.244 196.673 201.836 198.745 200.948 200.522ZM205.092 198.449C205.388 199.634 205.684 201.706 205.092 202.89C205.98 203.186 206.868 202.594 207.756 202.594C207.756 202.298 207.756 201.706 207.756 201.41C207.46 200.522 207.164 199.634 206.868 198.449C206.868 198.153 207.164 197.561 207.46 197.857C208.644 198.745 209.236 200.522 209.236 202.298C209.532 202.002 210.124 202.298 210.42 202.002C211.012 201.41 211.012 200.818 211.308 199.93C209.828 198.745 208.052 197.857 206.572 196.377C205.388 195.489 204.5 194.601 203.316 193.713C204.204 195.489 204.796 196.969 205.092 198.449ZM207.756 206.738C217.82 215.619 228.772 223.908 240.316 231.309C239.724 230.124 238.836 228.94 238.54 227.46C238.244 226.276 239.724 224.796 240.908 225.684C241.796 226.276 242.092 227.164 242.98 228.052C243.276 228.052 243.276 228.052 243.572 228.052C243.868 228.052 243.868 228.644 244.164 228.644C239.132 221.244 234.396 213.843 229.364 206.442C227.292 203.482 225.22 200.522 223.148 197.265C222.556 196.377 221.668 194.305 220.484 194.009C219.3 193.713 218.412 194.897 217.82 195.489C216.044 197.561 216.044 200.818 214.268 203.186C212.492 205.258 210.124 206.442 207.756 206.738ZM216.932 191.049L217.228 191.345C217.524 191.345 217.524 191.345 217.82 191.049C217.82 190.753 218.412 190.753 218.116 190.753C217.82 190.753 218.116 190.457 218.116 190.457C218.412 190.457 218.116 190.753 218.412 191.049C219.004 190.753 219.596 190.457 220.188 190.457C218.708 188.977 217.524 187.496 216.044 186.016C216.044 186.608 216.34 186.904 216.34 187.496C216.34 188.68 214.86 188.977 214.268 187.792C213.972 186.904 213.972 186.016 213.676 184.832C213.676 184.536 213.972 184.24 214.268 184.24C213.38 183.352 212.492 182.464 211.604 181.576C211.604 182.168 211.9 182.464 211.9 183.056C211.9 183.648 211.9 183.944 211.308 184.24C209.828 185.424 207.756 182.76 209.236 181.576C209.236 180.984 208.94 180.096 208.94 179.504C208.94 179.208 209.236 179.208 209.236 179.208C208.348 178.319 207.46 177.431 206.572 176.247C206.572 177.431 207.164 178.616 207.164 179.8C207.164 180.096 206.572 180.392 206.276 180.688C205.388 180.984 204.5 180.688 204.204 179.504C205.092 180.392 205.684 180.984 206.572 181.872C208.348 183.648 210.42 185.424 212.196 187.2C213.084 188.088 213.972 188.977 214.86 189.865C215.748 190.161 216.34 190.753 216.932 191.049ZM206.868 266.832C212.196 266.832 217.524 266.536 222.852 266.536C225.516 266.536 228.18 266.536 230.844 266.24C232.324 266.24 233.508 266.24 234.988 266.24C235.284 266.24 235.284 266.24 235.58 266.24C229.068 262.096 222.556 257.655 216.044 252.919C214.268 251.735 212.196 249.662 210.124 249.366C208.052 249.07 205.684 250.846 203.908 252.031C199.764 254.695 195.324 257.655 191.18 260.319C188.812 261.799 186.444 263.28 184.076 265.056C183.188 265.648 182.3 266.24 181.708 266.832C185.26 267.128 188.812 267.424 192.364 267.128C197.396 267.128 202.132 267.128 206.868 266.832ZM169.276 183.648C176.676 189.865 184.076 196.377 191.476 202.298C195.324 205.258 199.172 208.514 203.02 211.475C205.092 212.955 207.164 214.731 209.236 216.211C211.308 217.691 213.084 219.171 214.86 220.948C215.156 221.244 214.86 221.54 214.564 221.54C212.788 220.356 210.716 219.171 208.94 217.987C207.164 216.803 205.092 215.323 203.316 213.843C199.764 211.179 195.916 208.514 192.364 205.85C185.26 200.522 178.156 195.193 171.348 189.273C169.572 187.792 168.092 186.312 166.316 184.832C164.244 186.016 162.172 187.496 159.804 188.68C155.364 191.345 150.924 193.713 146.78 196.377C138.196 201.706 129.908 207.33 121.62 212.955C117.476 215.915 113.332 218.875 109.484 221.836C124.876 232.197 140.268 242.558 155.66 252.919C159.508 255.583 163.356 258.247 167.204 260.615C170.46 262.688 174.012 264.464 177.564 265.648L177.86 265.352C179.044 264.464 180.228 263.872 181.412 262.984C183.78 261.503 185.852 260.023 188.22 258.543C192.66 255.583 197.1 252.623 201.836 249.662C203.908 248.478 205.684 246.702 208.052 246.406C210.42 246.11 212.196 247.294 214.268 248.478C218.708 251.439 222.852 254.695 227.292 257.655C231.14 260.319 234.988 263.28 238.836 266.24C239.428 265.944 239.724 265.352 240.316 264.76C241.796 263.576 243.572 262.392 245.052 261.207C248.308 258.839 251.564 256.471 254.82 254.103C261.332 249.366 267.548 244.63 274.06 239.893C287.084 230.42 299.812 220.652 312.54 211.179C316.092 208.514 319.644 205.85 323.196 203.186C324.972 202.002 326.748 200.522 328.524 199.338C330.004 198.153 331.484 197.265 333.26 196.673C332.372 196.673 331.188 196.377 330.3 195.785C330.004 195.785 330.004 195.193 330.3 195.193C328.524 194.305 327.044 193.713 325.268 192.825C322.308 191.345 319.644 190.161 316.684 188.68C310.764 185.72 304.844 183.056 299.22 180.096C287.676 174.471 276.132 168.847 264.588 163.222C258.372 159.966 251.86 157.005 245.644 153.749C232.028 159.078 218.412 164.406 204.796 169.439C204.796 169.439 204.796 169.439 204.5 169.439C204.796 169.735 205.388 170.327 205.684 170.623C205.98 170.623 206.276 170.623 206.276 170.919C206.276 170.919 206.276 171.215 206.276 171.511C209.532 175.359 213.084 178.912 216.34 182.76C218.708 185.424 221.076 188.384 223.444 191.049C223.74 191.641 223.74 191.937 223.444 192.233C224.628 193.713 225.812 195.193 226.7 196.673C234.692 208.514 242.684 220.356 250.38 232.197C252.452 235.157 254.228 238.117 256.3 240.781C257.188 242.262 255.412 243.742 254.228 242.854C239.132 234.565 224.628 224.796 211.308 213.843C207.46 210.883 203.908 207.626 200.356 204.37C200.356 204.37 200.356 204.37 200.356 204.074C197.692 202.594 195.028 200.818 192.956 199.041C187.628 194.601 182.596 190.161 177.268 185.72C175.492 184.24 173.716 182.76 172.236 181.28C171.348 182.464 170.46 183.056 169.276 183.648ZM147.964 155.821C147.964 155.525 147.964 155.229 147.964 155.229C147.964 154.341 147.964 153.749 147.668 152.861C147.372 151.381 147.076 149.605 146.188 148.125C145.596 146.94 147.372 145.756 148.26 146.94C149.148 148.717 149.74 150.493 150.332 152.269C150.628 154.045 150.924 156.117 150.332 157.598C150.924 158.19 151.516 158.782 152.108 159.374C152.108 158.782 151.812 157.894 151.812 157.301C151.516 155.525 151.516 154.045 151.22 152.269C150.924 151.085 153.292 150.789 153.588 151.973C153.884 153.749 154.18 155.229 154.476 157.005C154.476 157.894 154.772 158.486 154.772 159.374C154.772 160.262 154.772 160.558 154.476 161.446C155.068 162.038 155.956 162.63 156.548 163.222C156.252 162.334 156.252 161.742 155.956 160.854C155.364 158.782 154.772 156.413 154.18 154.341C153.884 152.861 155.956 152.269 156.252 153.749C156.844 155.821 157.436 157.894 158.324 160.262C158.62 161.446 158.916 162.334 159.212 163.518C159.508 164.406 159.508 164.998 159.212 165.886C159.804 166.478 160.396 167.07 160.988 167.662C160.988 167.07 160.692 166.478 160.396 165.59C160.1 163.814 159.804 162.038 159.508 160.262C159.212 158.782 161.284 158.19 161.58 159.67C161.876 161.446 162.172 163.222 162.468 164.998C162.764 165.886 162.764 166.774 163.06 167.366C163.06 167.958 163.356 168.847 163.06 169.439C163.948 170.327 165.132 171.215 166.02 172.103C166.02 171.511 165.724 170.919 165.428 170.031C164.836 167.959 163.948 165.886 163.06 164.11C162.468 162.926 164.244 161.742 165.132 162.926C166.316 164.998 167.5 167.07 168.092 169.143C168.388 170.327 168.684 171.215 168.684 172.399C168.684 172.991 168.388 173.583 168.388 174.175C168.98 174.767 169.868 175.359 170.46 175.951C170.46 175.655 170.164 175.359 170.164 175.063C169.572 172.991 169.276 170.919 168.684 168.551C168.388 167.07 170.46 166.774 170.756 167.959C171.348 170.031 171.94 172.103 172.532 174.471C172.828 175.655 173.124 176.543 173.42 177.727C173.42 178.023 173.42 178.32 173.42 178.616C173.716 178.912 174.308 179.208 174.604 179.8C174.9 180.096 175.196 180.392 175.788 180.688C175.196 177.727 174.308 174.471 173.716 171.511C173.42 170.327 175.492 169.735 175.788 170.919C176.972 174.767 177.86 178.912 178.748 182.76L178.452 183.056C179.34 183.944 180.228 184.536 181.116 185.424C181.116 184.832 180.82 184.536 180.82 183.944C180.82 183.056 180.82 182.168 180.524 181.28C180.228 179.504 179.636 178.023 179.044 176.543C178.452 175.359 180.228 174.175 181.116 175.359C182.004 177.135 182.596 178.912 183.188 180.688C183.484 182.168 184.076 184.832 182.892 186.016C182.596 186.312 182.596 186.016 182.3 186.016C184.372 187.792 186.148 189.273 188.22 191.049C187.332 189.865 186.74 187.792 186.444 186.312C185.852 184.24 185.26 181.872 184.668 179.8C184.372 178.616 186.148 178.023 186.74 179.208C187.332 181.28 188.22 183.352 188.812 185.424C189.108 186.312 189.404 187.496 189.7 188.384C189.996 189.273 190.292 190.161 189.996 191.049C189.996 191.345 189.404 191.345 189.108 191.345C189.404 191.641 189.996 192.233 190.292 192.529C190.884 193.121 191.772 193.713 192.66 194.601C192.66 193.417 192.364 192.529 192.068 191.345C191.772 189.273 190.884 187.496 189.996 185.72C189.404 184.536 190.884 183.648 191.772 184.832C192.956 186.608 193.844 188.68 194.436 191.049C194.732 191.937 194.732 193.121 195.028 194.305C195.028 195.193 195.028 196.081 194.732 196.673C196.212 197.857 197.988 199.041 199.468 199.93C198.58 198.449 198.876 196.673 198.58 194.897C198.284 193.121 197.396 191.345 196.508 189.569C196.212 188.68 196.804 188.384 197.396 188.384C195.028 186.312 192.364 184.24 189.996 182.168C182.892 176.247 175.492 170.031 168.388 163.814C157.436 154.341 146.78 144.868 136.124 135.395C136.42 137.172 136.716 138.948 137.308 140.724C137.604 142.5 137.9 143.98 137.604 145.756C137.9 146.052 138.492 146.644 138.788 146.94C138.492 146.052 138.196 145.46 137.9 144.572C137.604 142.796 137.308 141.02 137.012 139.244C136.716 137.764 138.788 137.172 139.38 138.652C139.676 140.428 140.268 142.204 140.564 143.98C140.86 145.46 141.452 147.237 140.86 148.717C141.452 149.309 142.044 149.901 142.636 150.493V150.197C142.636 149.309 142.636 148.421 142.636 147.533C142.34 145.756 141.748 143.98 140.86 142.5C139.972 141.02 142.044 140.132 142.932 141.316C144.116 143.092 144.708 145.164 145.3 147.237C145.596 148.717 145.596 150.789 144.708 152.269C146.188 154.341 147.076 154.933 147.964 155.821ZM130.5 138.652C130.204 138.948 130.204 138.652 130.5 138.652C131.092 139.54 131.98 140.428 132.868 141.316C132.868 140.428 132.572 139.836 132.572 139.244C132.276 137.764 131.684 136.283 131.092 135.099C130.204 133.915 132.276 132.731 133.164 133.915C134.052 135.099 134.348 136.579 134.94 138.06C134.94 137.764 134.94 137.172 134.644 136.876C134.348 135.987 135.236 135.691 136.124 135.691C134.052 133.915 131.98 132.139 129.908 130.067C130.204 131.547 130.5 133.027 130.796 134.507C130.796 135.691 131.388 137.764 130.5 138.652ZM134.94 139.836C135.236 141.02 135.236 142.204 134.644 143.388C134.94 143.684 135.532 144.276 135.828 144.572C135.532 143.684 135.236 143.092 135.236 142.204C135.236 141.316 134.94 140.724 134.94 139.836ZM102.972 110.825C105.044 113.489 107.412 115.858 109.484 118.226C111.852 120.594 113.924 122.962 116.292 125.33C120.436 129.475 124.876 133.619 129.02 137.764C128.724 136.876 128.132 135.987 128.132 135.099C127.836 133.323 127.54 131.843 127.244 130.067C127.244 129.475 127.54 128.883 128.132 128.587C127.836 128.291 127.244 127.995 126.948 127.403C126.948 127.995 127.54 128.291 127.54 128.587C127.54 129.179 127.54 129.771 127.244 130.363C126.948 130.955 126.652 131.251 126.06 131.843C125.468 132.139 124.876 131.547 124.876 130.955C124.876 130.659 124.876 130.067 125.172 129.771V129.475C124.876 129.771 124.58 130.363 123.988 130.363C123.396 130.363 122.804 129.771 123.1 129.179C123.1 128.883 123.396 128.883 123.692 128.883H123.396C123.396 128.883 123.396 128.883 123.692 128.883C123.396 128.883 123.692 129.475 123.396 128.883C123.396 128.291 123.396 127.699 123.396 127.107C123.396 125.922 123.1 124.738 122.508 123.554C121.916 122.962 121.324 122.37 120.732 122.074C121.028 122.666 121.028 123.554 121.028 124.146C121.028 124.738 120.436 124.738 120.14 124.442C119.548 123.554 119.252 122.666 118.956 121.482C118.66 121.186 119.252 120.89 119.548 120.594C118.956 120.002 118.068 119.41 117.476 118.522C117.772 118.818 118.068 119.41 118.068 119.706C118.068 120.002 118.068 120.594 117.772 120.89C117.476 121.482 117.18 121.482 116.588 121.482C116.292 121.482 115.996 121.186 115.996 120.89C115.996 120.594 115.7 120.594 115.7 120.298C115.7 120.002 115.7 120.002 115.7 119.706C115.7 119.41 115.7 119.41 115.404 119.114C115.108 118.818 115.108 118.226 115.404 117.93C115.108 117.634 114.812 117.634 114.22 117.338C114.22 117.338 114.22 117.042 114.22 117.338C114.516 117.634 114.812 117.634 115.108 117.93V117.634C115.404 117.338 115.7 117.634 115.996 117.634C111.556 113.785 107.116 109.641 102.972 105.497C101.492 104.312 103.564 102.24 105.044 103.424C118.956 116.154 132.868 128.883 147.076 141.316C161.284 153.749 175.492 166.182 189.7 178.32C193.844 181.872 197.692 185.128 201.836 188.68C203.908 190.457 205.98 191.937 207.756 193.713C209.532 195.193 211.012 196.673 212.492 198.153C212.788 196.673 213.38 195.489 213.972 194.305C214.268 193.713 215.156 193.121 215.748 192.529C215.748 192.529 215.748 192.529 215.452 192.529C213.38 191.049 211.604 189.273 209.828 187.496C208.052 185.72 205.98 183.944 204.204 182.464C196.804 175.655 189.404 168.551 181.708 161.446C166.908 147.533 152.108 133.619 137.012 119.41C132.868 115.561 128.724 111.713 124.58 107.569C122.508 105.497 120.436 103.72 118.364 101.648C116.292 99.576 113.924 97.7998 112.444 95.4315C112.148 94.5435 112.74 93.9514 113.628 94.2474C113.924 94.2474 114.22 94.5435 114.22 94.8395C113.924 93.6554 113.924 92.7673 113.628 91.5832C113.628 90.9911 113.924 90.6951 114.22 90.6951C111.556 92.1752 109.188 94.2474 107.412 96.3196C106.82 97.2077 106.228 98.0958 105.34 98.6879V98.9839C105.34 98.9839 105.34 98.9839 105.044 98.9839C104.156 99.872 103.268 101.056 102.676 101.944C102.676 102.536 102.676 103.72 101.788 103.424C100.9 106.089 101.196 108.457 102.972 110.825ZM123.988 128.883C123.988 128.883 123.988 129.179 124.284 129.179C123.988 129.179 123.988 129.179 123.988 128.883ZM91.4278 100.464C92.6118 101.648 93.7958 102.832 94.6838 104.016C95.8678 105.2 97.0518 106.681 98.2358 107.865C97.0518 106.681 95.8678 105.2 94.6838 103.72C93.2038 101.944 91.7238 100.168 90.5398 98.3918C89.9478 97.7998 90.8358 96.9117 91.4278 97.5037C92.6118 98.9839 93.7958 100.168 94.6838 101.648C94.6838 101.648 94.6838 101.352 94.6838 101.648C94.9798 101.944 95.2758 102.24 95.8678 102.24C94.3878 100.168 93.2038 98.0958 91.4278 96.6157C90.8358 96.0236 91.7238 95.4316 92.3158 95.7276C94.9798 97.7998 97.0518 100.76 98.8278 103.424C99.1238 102.832 99.4198 101.944 100.012 101.352C97.3478 98.3918 94.6838 95.4315 91.4278 93.0633C90.8358 92.4713 91.4278 91.2871 92.0198 91.8792C95.2758 93.9514 98.2358 96.6157 100.9 99.5759C100.604 98.9839 100.012 98.3918 99.7158 97.7998C99.1238 96.6157 98.2358 95.7276 97.3478 94.8395C95.5718 93.0633 93.4998 91.5832 91.4278 90.3991C90.8358 90.103 91.4278 89.511 91.7238 89.215C91.7238 89.511 91.4278 89.511 91.4278 89.807C90.8358 90.6951 90.2438 91.8792 89.9478 92.7673C89.3558 93.9514 88.4678 95.4315 88.7638 96.9117C88.7638 98.3918 90.5398 99.5759 91.4278 100.464Z" fill="#3F92D1"/>
<path d="M304.889 233.38C303.705 234.268 305.185 236.34 306.369 235.452C308.145 234.268 310.513 233.084 311.401 231.012C311.697 230.124 311.105 229.236 310.217 229.532C308.145 230.124 306.369 232.196 304.889 233.38Z" fill="#3F92D1"/>
<path d="M136.465 186.608C145.641 181.576 154.521 176.543 163.697 171.511C166.065 170.031 168.729 168.847 171.097 167.367C172.281 166.775 173.761 165.887 174.945 165.294C176.129 164.702 177.609 164.11 178.497 162.926C179.089 162.334 178.497 161.15 177.609 161.446C176.129 161.742 174.945 162.63 173.761 163.222C172.577 163.814 171.097 164.702 169.913 165.294C167.249 166.775 164.585 168.255 161.921 169.735C156.593 172.695 151.561 175.655 146.233 178.616C135.577 184.536 124.921 190.457 114.561 196.377C113.081 197.265 111.601 198.153 110.121 198.745C109.233 199.338 108.345 199.93 108.345 201.114C108.641 202.594 110.417 202.002 110.121 200.818C110.417 200.522 110.713 200.818 111.009 200.522C111.601 200.226 112.193 199.93 112.785 199.634C113.969 199.041 115.153 198.449 116.337 197.857C118.705 196.673 121.073 195.489 123.145 194.009C127.585 191.345 132.025 188.977 136.465 186.608Z" fill="#3F92D1"/>
<path d="M132.025 197.561C136.465 195.193 140.609 192.529 145.049 190.161C153.633 185.424 162.217 180.391 170.801 175.655C175.537 172.991 180.865 170.326 185.305 166.774C185.897 166.182 185.601 164.702 184.713 165.294C180.273 167.07 175.833 169.734 171.689 172.102C167.249 174.471 163.105 177.135 158.665 179.503C150.081 184.536 141.497 189.272 132.913 194.305C128.177 196.969 123.145 199.634 118.705 202.89C119.001 203.186 119.001 203.186 119.297 203.482C119.297 203.778 119.001 204.37 119.593 204.074C123.441 202.594 127.585 199.93 132.025 197.561Z" fill="#3F92D1"/>
<path d="M192.113 172.991C193.593 172.103 192.409 170.031 190.929 170.919C186.193 173.287 181.753 175.951 177.313 178.616C172.873 181.28 168.137 183.944 163.697 186.608C154.817 191.937 145.937 197.265 137.057 202.593C132.025 205.554 126.993 208.514 122.257 212.066C122.257 212.066 122.257 212.066 122.553 212.362C122.257 212.954 122.553 213.842 123.441 213.25C128.177 211.178 132.617 208.218 136.761 205.554C141.201 202.89 145.641 200.225 150.081 197.561C158.961 192.233 168.137 186.904 177.017 181.872C182.049 178.912 187.377 176.247 192.113 172.991Z" fill="#3F92D1"/>
<path d="M219.641 233.086C224.081 230.717 228.817 228.349 233.257 225.685C242.137 220.652 251.313 215.916 260.193 210.883C265.225 208.219 270.553 205.555 275.585 202.299C277.065 201.411 275.881 199.338 274.401 200.226C269.665 202.595 265.225 204.963 260.785 207.627C256.345 209.995 251.905 212.66 247.169 215.028C238.289 220.06 229.409 224.797 220.529 229.829C218.161 231.31 215.497 232.494 213.129 233.974C210.465 235.454 208.097 236.638 205.729 238.414C205.137 238.71 205.433 240.19 206.321 239.598C210.761 238.118 215.201 235.454 219.641 233.086Z" fill="#3F92D1"/>
<path d="M232.369 229.828C227.929 232.493 223.193 235.157 219.049 237.821C218.457 238.117 219.049 239.301 219.641 238.709C227.929 234.861 235.921 230.125 244.209 225.98C252.497 221.54 260.489 217.099 268.777 212.955C273.513 210.587 277.953 208.218 282.689 205.554C284.169 204.666 282.985 202.594 281.505 203.482C273.217 207.33 265.225 212.067 256.937 216.211C248.353 220.652 240.361 225.388 232.369 229.828Z" fill="#3F92D1"/>
<path d="M259.897 222.724C252.793 226.868 245.393 231.013 238.289 235.157C234.145 237.526 230.297 239.894 226.153 242.262C225.561 242.558 226.153 243.742 226.745 243.446C241.249 235.749 255.753 227.757 270.257 219.764C274.401 217.395 278.545 215.323 282.393 212.955C283.873 212.067 282.689 209.995 280.913 210.587C274.105 214.435 267.001 218.58 259.897 222.724Z" fill="#3F92D1"/>
<path d="M277.658 222.132C274.106 224.204 270.554 225.981 267.002 228.053C259.602 232.197 252.498 236.046 245.098 240.19C240.954 242.558 237.106 244.926 232.962 247.295C232.074 247.887 232.962 248.775 233.554 248.479C248.354 241.078 262.562 233.085 277.066 225.389C279.138 224.204 281.21 223.316 282.986 222.132C285.058 220.948 287.426 220.06 289.201 218.58C290.385 217.692 289.794 215.62 288.314 216.212C286.538 216.804 284.762 217.988 282.986 218.876C281.21 220.06 279.434 220.948 277.658 222.132Z" fill="#3F92D1"/>
<path d="M202.769 240.19C201.881 239.006 200.697 237.822 198.921 237.526C197.145 237.23 195.665 238.118 194.185 239.302C192.409 240.782 190.633 242.262 188.857 243.446C187.97 244.038 187.082 244.926 186.194 245.518C185.898 245.814 184.714 246.702 184.122 246.702C183.826 246.702 183.826 246.702 184.122 246.406C184.418 246.11 184.418 245.814 184.714 245.222C185.01 244.63 185.306 243.742 185.306 243.15C185.306 240.19 182.05 238.118 179.386 237.822C177.61 237.822 175.538 238.71 174.058 239.598C172.578 240.782 170.802 242.262 170.21 244.038C169.914 244.63 170.506 245.518 171.394 245.222C174.058 243.446 176.13 239.598 179.978 240.19C181.162 240.486 182.642 241.374 182.938 242.854C183.234 244.334 181.458 245.518 181.754 246.998C182.05 248.478 183.234 249.07 184.418 249.07C186.194 249.07 187.378 247.886 188.562 246.998C190.337 245.518 192.113 244.334 194.185 242.854C195.369 241.966 197.441 239.894 198.921 240.486C200.401 241.078 201.289 243.15 202.769 244.334C204.249 245.518 206.321 246.11 207.801 245.222C209.281 244.334 208.097 242.262 206.617 243.15C205.137 243.446 203.657 241.078 202.769 240.19Z" fill="#3F92D1"/>
<path d="M84.9613 190.752C84.6653 191.344 84.6653 191.937 85.2573 191.937C85.5533 191.937 86.1453 191.64 86.4413 191.344C87.0333 191.048 87.6253 190.752 88.2173 191.048C88.5133 191.048 88.2173 190.752 88.5133 190.752C89.6973 190.16 90.8813 189.864 91.7693 189.272C93.8412 188.384 95.9132 187.2 97.9852 186.016C102.129 183.944 106.273 181.872 110.417 179.504C114.561 177.431 118.705 175.063 122.849 172.991C124.921 171.807 126.993 170.919 129.065 169.735C130.249 169.143 131.137 168.551 132.321 167.959C133.209 167.367 134.097 167.071 134.393 165.886C134.393 165.59 134.393 164.998 133.801 164.998C132.617 164.702 131.729 165.294 130.841 165.886C129.657 166.479 128.769 167.071 127.585 167.663C125.513 168.847 123.441 170.031 121.665 170.919C117.521 173.287 113.673 175.359 109.529 177.431C105.385 179.504 101.241 181.872 97.0972 183.944C95.0252 185.128 92.9533 186.016 90.8813 187.2C89.6973 187.792 88.8093 188.384 87.6253 188.976C86.7373 189.568 85.8493 189.864 84.9613 190.752C84.6653 190.456 84.9613 190.456 84.9613 190.752C84.9613 190.456 84.9613 190.752 84.9613 190.752Z" fill="#3F92D1"/>
<path d="M138.241 162.63C138.537 162.63 138.537 162.63 138.241 162.63C138.537 162.63 138.537 162.334 138.833 162.334C139.129 162.334 139.425 162.038 139.721 161.742C140.017 161.446 140.017 160.854 140.017 160.558C139.721 159.965 139.425 159.669 138.833 159.373C138.537 159.373 138.537 159.373 138.241 159.373C137.945 159.373 138.241 159.373 138.241 159.373C137.945 159.373 137.945 159.373 137.649 159.373C137.353 159.373 137.057 159.373 137.057 159.669C136.169 159.965 135.577 160.854 135.577 161.742C135.281 162.63 135.873 163.519 136.761 163.519C137.353 163.519 138.241 163.223 138.241 162.63C138.537 162.63 138.241 162.63 138.241 162.63Z" fill="#3F92D1"/>
<path d="M293.938 241.374C292.162 242.558 290.386 243.742 288.314 244.926C284.762 247.294 281.21 249.366 277.658 251.735C270.554 256.175 263.154 260.911 256.05 265.352C253.978 266.536 252.202 267.72 250.13 269.2C249.242 269.792 248.058 270.384 247.17 270.976C246.282 271.568 245.394 272.161 245.098 273.049C245.098 273.345 245.098 273.345 245.394 273.345C245.986 273.641 246.578 273.345 247.466 273.049C248.65 272.457 249.538 271.865 250.722 271.272C252.498 270.088 254.274 269.2 256.05 268.016C259.602 265.944 263.45 263.576 267.002 261.208C274.402 256.767 281.506 252.031 288.906 247.59C290.978 246.406 292.754 244.926 294.826 243.742C296.898 242.558 298.97 241.078 301.042 239.598C302.226 238.709 300.746 236.933 299.562 237.525C297.49 239.005 295.714 240.19 293.938 241.374Z" fill="#3F92D1"/>
<path d="M294.655 115.345C291.991 113.273 289.623 110.609 287.847 107.648C284.591 102.32 283.111 95.8072 283.999 89.8866C285.775 77.1574 296.727 67.0925 309.455 65.9084C317.151 65.0203 325.143 67.9806 331.951 71.5329C337.871 74.7892 342.015 80.1177 344.087 86.6303C345.863 92.5508 345.863 99.0634 344.383 105.28C342.607 112.089 339.351 118.897 332.839 122.154C326.919 125.41 319.519 125.41 313.007 124.818C307.087 124.226 300.279 122.746 296.135 117.713C295.247 116.825 294.951 115.937 294.655 115.345ZM317.447 121.266C320.703 121.266 323.663 120.969 326.623 120.377C329.583 119.489 332.247 118.305 334.615 115.937C336.983 113.569 338.463 110.905 339.647 107.944C341.719 102.616 342.607 96.6952 341.719 91.0707C340.831 85.7422 338.759 80.4137 334.319 76.8614C331.655 74.4932 328.103 72.717 324.847 71.5329C322.479 70.6448 320.111 70.3488 317.743 69.7567C317.447 70.0528 317.447 70.3488 317.151 70.3488C307.679 70.9408 299.095 75.9733 294.655 84.5581C290.215 92.8469 291.695 103.208 297.319 110.609C298.799 112.681 300.575 114.457 302.647 116.233C304.719 117.713 307.383 118.897 309.455 120.377C309.751 120.377 309.455 120.673 309.455 120.673C307.087 120.673 304.719 119.489 302.647 118.009C300.575 116.529 298.503 115.049 297.023 112.977C293.767 109.128 291.399 104.688 290.511 99.6555C288.439 89.5906 292.879 79.2296 301.167 73.013C303.239 71.5329 305.607 70.0528 308.271 69.1647C299.095 70.6448 290.807 77.1574 287.847 86.3343C286.071 92.2548 286.663 98.7674 289.327 104.392C290.807 107.352 292.583 109.72 294.655 112.089C294.951 112.385 294.951 112.385 295.247 112.385C295.247 112.385 295.247 112.089 295.543 112.385C296.135 112.977 297.023 113.569 297.615 114.161C299.095 115.345 300.575 116.529 302.351 117.713C304.423 118.897 307.087 119.785 309.455 120.081C311.823 121.266 314.487 121.266 317.447 121.266Z" fill="#F47892"/>
<path d="M285.479 118.897C283.111 116.529 281.335 114.161 279.855 111.201C278.079 112.089 276.007 113.273 274.231 114.161C273.343 114.457 272.159 114.161 272.159 113.273C270.679 106.168 269.199 99.0636 268.015 92.2549C267.719 91.3668 268.607 90.4788 269.495 90.4788C272.159 90.4788 274.823 90.4788 277.191 90.4788C277.487 88.7026 277.487 86.9264 277.783 85.1503C276.007 85.1503 273.935 84.5582 272.751 83.3741C270.383 80.4138 270.679 76.8615 272.159 73.6052C273.047 71.829 274.231 70.0529 275.711 68.2767C276.895 66.5005 278.079 64.7244 279.263 63.2442C281.335 60.58 284.295 59.6919 287.255 61.7641C288.735 62.6522 289.623 63.8363 290.807 64.7244C291.695 65.6124 292.879 66.2045 294.063 66.5005C296.135 63.2442 299.391 61.172 302.943 59.6919C302.943 57.3237 302.351 55.2515 301.463 53.1793C300.871 51.9952 301.463 50.8111 302.647 50.515C310.935 48.1468 319.815 48.7389 328.103 51.6992C328.991 51.9952 329.287 52.5872 329.287 53.4753C329.583 56.1396 328.991 58.8038 328.103 61.4681C331.951 63.5403 335.799 65.3164 339.647 67.0926C341.127 65.0204 342.903 63.2442 344.679 61.7641C345.567 61.172 346.455 61.172 347.047 61.7641C349.119 63.5403 350.303 65.9085 351.783 67.9807C352.079 65.9085 352.375 63.5403 352.375 61.4681C348.823 60.284 345.863 57.9157 343.791 54.9555C342.607 56.1396 341.719 57.0276 340.535 58.2118C339.943 58.8038 339.647 59.3959 338.463 59.0998C337.871 59.0998 336.983 58.8038 336.391 58.5078C333.727 56.7316 332.839 53.4753 333.431 50.515C333.727 48.7389 334.023 47.2587 334.615 45.4826C334.615 45.1866 334.911 44.5945 335.207 44.2985C335.207 44.2985 334.911 44.2985 334.911 44.0024C334.911 41.9303 334.615 40.1541 334.615 38.0819C332.247 38.3779 330.175 37.4898 328.991 35.4176C326.919 32.4574 327.807 28.313 328.399 25.0567C328.399 24.4646 328.991 24.1686 329.583 23.8726C332.247 23.5765 334.911 24.1686 337.575 25.3527C338.463 24.1686 339.055 22.9845 339.055 21.8004C339.055 20.0242 338.463 18.8401 337.871 17.36C336.983 15.2878 338.167 13.5116 339.647 12.0315C341.127 10.2553 342.311 8.47913 343.791 6.70296C344.679 5.51886 345.863 3.74269 347.343 3.15063C348.823 2.55859 350.599 3.15063 351.487 4.33475C352.375 5.51886 352.671 6.99899 353.855 8.18311C354.743 9.07118 356.223 9.66324 357.407 9.36722C360.663 9.07118 362.143 5.22284 360.367 2.55858C359.775 1.6705 360.663 -0.105667 361.847 0.190369C367.471 0.782425 373.095 1.07845 378.719 1.6705C380.199 1.6705 380.791 3.44666 379.903 4.33475V4.63078C379.903 5.51886 379.607 6.40694 379.903 7.29503C380.199 8.18311 381.087 9.07118 381.975 9.36722C384.343 9.95927 386.711 8.47914 389.079 7.88708C389.375 7.88708 389.375 8.18311 389.375 8.47914C389.967 8.18311 390.559 7.29503 391.151 7.88708C393.815 10.5513 396.479 13.5116 399.439 16.1758C401.215 17.952 403.583 21.2083 401.807 23.8726C401.511 24.4646 400.919 25.0567 400.327 25.3527C400.031 25.3527 399.735 25.6487 399.439 25.6487C399.439 25.9448 399.143 26.5368 399.143 26.8328C399.143 28.017 399.439 29.4971 400.031 30.6812C400.919 32.7534 403.287 34.5296 405.655 35.1216C406.247 35.1216 405.951 36.0097 405.359 36.3057C405.951 37.1938 406.247 38.0819 406.839 38.674C407.431 39.562 408.023 40.4501 408.319 41.6342C408.319 42.2263 407.727 42.5223 407.135 42.2263C406.839 43.7064 405.951 44.8905 405.063 46.0746C403.879 47.5548 402.695 48.7389 401.511 50.219C400.327 51.4031 398.847 52.2912 397.071 52.2912C396.775 52.8833 396.479 53.4753 396.183 54.0674C396.183 54.9555 396.183 55.8435 396.183 56.7316C396.183 57.6197 396.479 58.5078 397.071 59.3959C397.367 59.6919 397.663 59.9879 397.959 60.58C398.255 60.876 398.255 61.172 398.551 61.4681L398.255 61.7641C398.847 62.0601 399.439 62.0601 399.735 62.3561C400.031 62.6522 400.327 63.2442 400.031 63.8363C397.959 67.0926 394.703 69.4608 391.151 70.6449C389.375 71.237 387.599 71.533 385.823 71.533C384.639 71.533 383.751 70.9409 382.863 70.6449C381.975 70.9409 381.383 71.829 380.495 72.1251C379.903 72.1251 379.311 72.1251 379.015 71.533C378.127 70.0529 377.239 68.2767 376.351 66.7966C373.095 66.7966 370.135 66.5005 367.175 65.6124C366.583 67.6846 365.991 69.4608 365.103 71.533C364.807 72.1251 364.215 72.7171 363.327 72.4211C361.551 71.829 359.479 71.237 357.703 70.6449L357.999 70.9409C358.887 71.829 359.775 72.7171 360.367 73.6052C361.255 74.4933 362.143 75.3814 362.735 76.2694C363.327 77.1575 364.511 77.7496 364.807 78.9337C365.695 81.0059 363.327 81.894 361.847 82.782C361.847 82.782 361.551 82.782 361.551 83.0781C361.551 83.0781 361.551 83.0781 361.255 83.0781C359.479 83.9662 357.999 85.1503 356.223 86.0383C356.223 86.6304 356.223 86.9264 356.223 87.5185C356.223 89.2947 356.815 91.3668 357.407 93.143C358.591 96.6953 360.959 99.9516 363.919 102.616C364.215 102.912 363.623 103.8 363.327 103.504C360.071 101.432 357.999 98.1755 356.519 94.9192C356.519 95.2152 356.519 95.5112 356.519 96.1033C356.519 98.1755 356.519 99.9517 357.407 101.728C357.999 102.912 359.479 104.688 360.959 104.096C361.551 103.8 361.551 104.688 361.847 104.984C361.847 104.688 361.551 104.392 361.847 104.392C362.439 104.096 363.031 104.096 363.623 104.096C364.511 104.096 365.103 103.8 365.695 103.504C366.583 102.912 367.471 103.8 367.175 104.688C365.991 109.425 364.215 114.161 361.255 118.009C361.551 118.009 361.847 118.305 361.847 118.601C362.143 120.082 360.663 120.97 359.775 121.858C358.887 122.746 357.999 123.93 357.111 124.818C356.815 125.706 356.519 126.594 356.223 127.482C355.631 128.666 354.151 128.37 353.559 127.482C352.375 125.41 349.415 125.114 347.343 125.706C347.047 126.594 346.751 127.482 346.455 128.074C345.863 129.258 345.567 130.442 345.271 131.627C344.679 134.291 344.975 136.659 345.863 139.027C346.159 139.619 345.567 140.211 345.271 140.211C344.087 140.507 342.903 140.507 341.719 140.803C341.423 141.099 341.719 141.396 341.127 141.692C337.575 141.692 334.319 142.58 331.063 143.172C329.287 143.468 327.807 143.764 326.031 143.764C324.551 144.06 322.775 144.356 320.999 144.06C318.335 143.764 316.855 141.692 316.855 139.027C316.855 137.251 317.743 135.179 317.151 133.403C312.415 132.515 307.975 131.627 303.535 130.146C302.647 132.515 301.463 134.883 299.687 136.955C299.095 137.547 298.207 137.843 297.615 137.547C292.287 134.291 286.959 130.739 281.631 127.482C281.039 127.186 280.743 126.298 281.039 125.706C281.927 123.042 283.703 120.97 285.479 118.897ZM381.087 11.1434C381.383 11.4394 381.383 11.7354 381.383 11.7354C383.159 12.9195 385.231 12.0315 387.007 10.8474C385.231 11.4394 383.159 12.0315 381.087 11.1434ZM401.807 35.4176C400.623 34.5296 399.439 33.3454 398.551 31.8653C398.255 31.5693 398.551 30.9772 398.255 30.6812C398.255 30.6812 398.255 30.6812 398.255 30.9772C398.255 33.6415 398.847 37.7859 402.399 38.0819C402.695 38.0819 402.695 38.3779 402.991 38.674C403.287 37.7859 403.879 36.8978 404.175 36.3057C403.287 35.7137 402.399 36.0097 401.807 35.4176ZM406.543 41.3382C406.247 40.7461 405.951 40.1541 405.655 39.8581C405.359 39.266 405.063 38.674 404.767 38.0819C404.471 38.674 404.175 39.266 403.879 39.562C404.175 41.9303 404.175 44.2985 403.583 46.6667C403.879 46.0746 404.175 45.7786 404.471 45.4826C405.063 44.0024 405.655 42.2263 406.543 41.3382ZM395.295 60.58C394.703 59.3959 394.111 58.2118 394.111 57.0276C394.111 56.7316 394.111 56.1396 394.407 55.8435C394.111 56.7316 393.519 57.0276 393.519 57.9157C393.519 58.8038 393.815 59.3959 394.111 59.9879C394.407 59.9879 394.703 60.58 395.295 60.58ZM385.823 69.7568C387.599 69.7568 389.079 69.4608 390.855 68.8688C393.519 67.9807 395.591 65.9085 397.071 63.8363C395.887 63.2442 394.999 62.3561 393.519 62.3561C393.223 62.9482 393.223 63.8363 392.631 64.4283C390.559 67.0926 387.303 68.2767 384.047 69.7568C384.935 69.4608 385.231 69.7568 385.823 69.7568ZM366.583 62.3561C370.135 63.5403 373.687 63.8363 377.239 63.8363C377.831 63.8363 378.127 64.1323 378.423 64.4283C379.311 65.9085 379.903 67.3886 380.791 68.8688C385.231 67.6846 388.783 65.0204 391.447 61.172C390.263 57.0276 390.855 52.5872 394.111 49.627C394.703 49.0349 395.295 49.0349 395.887 49.3309C397.663 50.219 399.735 48.7389 400.623 47.2587C401.807 45.1865 401.215 42.5223 400.919 40.1541C398.255 39.266 396.479 37.1938 395.591 34.5296C395.295 32.7534 395.295 31.2733 395.295 29.4971C395.295 28.017 395.295 25.9448 396.183 24.7607C396.479 24.1686 397.367 23.5765 397.959 23.2805C398.551 22.9845 399.439 22.9845 399.735 22.3924C400.327 21.5043 398.847 19.4322 398.255 18.8401C395.887 16.1759 392.927 13.8076 390.263 11.1434C387.895 14.3997 383.455 16.4719 379.607 14.1037C376.351 12.0315 375.759 7.88707 377.239 4.33475C372.799 4.03871 368.655 3.44667 364.215 3.15063C364.511 5.51886 364.511 7.88707 363.031 9.66324C360.959 12.3275 357.111 12.9196 354.151 11.4394C352.671 10.8474 351.487 9.66324 350.599 8.18311C350.303 7.59105 350.007 6.70297 349.415 6.40694C348.823 5.81488 348.527 5.81488 347.935 6.40694C346.455 7.88708 345.271 9.66325 344.087 11.4394C343.495 12.3275 342.607 13.2156 342.015 14.1037C341.719 14.3997 341.127 14.9917 341.127 15.2878C341.127 15.8798 341.423 16.1759 341.719 16.7679C343.495 20.3202 342.607 24.7607 339.943 27.7209C339.351 28.313 338.759 28.313 338.167 28.017C336.095 27.1289 334.023 26.8328 331.951 26.8328C331.359 28.905 330.767 30.9772 331.655 32.7534C332.247 34.2335 334.319 35.7137 336.095 34.8256C336.983 34.2335 338.167 35.1216 338.167 36.0097C338.167 37.7859 338.167 39.266 338.167 41.0422C339.647 41.0422 340.535 43.1144 339.055 43.4104C338.759 43.4104 339.055 43.1144 338.759 43.1144C338.759 43.4104 338.463 43.7064 338.463 44.0024C338.167 44.5945 338.167 45.4826 337.871 46.0746C337.575 47.2588 336.983 48.7389 336.983 49.923C336.687 51.9952 337.279 54.3634 339.351 55.2515C340.535 54.0674 342.015 52.5872 343.199 51.4031C343.791 50.8111 344.975 51.1071 345.271 51.6992C347.343 55.2515 350.599 57.9157 354.743 58.8038C355.335 58.8038 355.631 59.3959 355.631 59.9879C355.335 62.0601 355.039 64.4283 354.743 66.5005C357.703 67.3886 360.367 67.9807 363.327 68.8688C363.919 66.7966 364.511 65.0204 365.103 62.9482C365.103 62.6522 365.695 62.0601 366.583 62.3561ZM363.031 79.2297C362.735 78.9337 362.439 78.3416 362.143 78.0456C360.663 76.5655 359.479 75.0853 357.999 73.6052C357.407 73.0131 356.519 72.1251 355.927 71.237C355.335 70.6449 354.743 70.0529 354.447 69.1648C354.151 69.1648 353.855 68.8688 353.263 68.8688C356.223 72.7171 359.775 75.9734 362.143 80.4138C362.143 80.4138 362.439 80.4138 362.439 80.1178C363.031 80.1178 363.327 79.8218 363.031 79.2297ZM360.959 117.713C360.663 117.713 360.071 117.713 360.367 117.417C362.143 113.273 363.623 109.425 364.807 105.28C364.215 105.576 363.623 105.28 363.031 104.984C363.031 105.28 363.623 104.984 363.327 105.28C362.439 110.313 360.367 114.753 358.591 119.489C359.183 118.897 360.071 118.009 360.959 117.713ZM341.719 138.435C342.311 138.139 342.903 138.139 343.495 137.843C342.607 135.475 342.015 133.107 342.607 130.442C342.903 129.258 343.199 128.37 343.495 127.482C342.607 128.37 341.423 128.962 340.535 129.85C340.831 132.811 341.423 135.475 341.719 138.435ZM301.463 128.074C301.759 127.482 302.647 126.89 303.239 127.186C307.679 128.962 312.415 130.146 317.151 130.739C318.039 130.739 319.223 130.739 319.815 131.627C320.111 132.219 320.407 133.107 320.407 133.699C320.703 135.179 320.111 136.363 320.111 137.843C320.111 138.731 319.815 139.915 320.703 140.507C321.591 141.099 322.775 140.803 323.959 140.507C324.847 140.507 326.031 140.211 326.919 140.211C331.063 139.619 334.911 138.731 338.759 137.843C338.463 136.659 338.463 135.475 338.167 134.291C337.871 132.515 337.575 131.035 337.279 129.258C337.279 127.778 338.463 126.89 339.351 126.002C340.239 125.114 341.423 123.93 342.607 123.338C345.863 120.97 350.599 120.97 353.855 123.338C356.519 117.713 358.591 111.497 359.775 105.28C356.519 104.688 353.855 102.024 353.263 98.4715C352.671 94.6232 355.039 88.9986 351.783 85.7423C351.191 85.1503 351.191 83.6701 352.079 83.0781C352.967 82.486 353.855 82.19 354.743 81.5979C354.743 81.0059 354.743 80.4138 355.039 80.1178C355.335 79.5257 356.519 79.8218 356.519 80.4138V80.7099C357.111 80.4138 357.703 80.1178 358.591 79.8218C355.039 73.9012 350.599 68.5727 345.567 63.8363C344.087 65.3164 342.311 66.7966 341.127 68.5727C340.535 69.4608 339.647 69.4608 338.759 69.1648C334.319 66.7966 329.583 64.7244 325.143 62.3561C324.551 62.0601 324.255 61.172 324.255 60.284C325.143 57.9157 325.439 55.5475 325.439 53.1793C318.927 50.8111 311.823 50.8111 305.015 52.2912C305.607 54.3634 306.495 56.4356 306.495 58.5078C306.495 59.3959 305.903 59.9879 305.311 60.284C301.463 61.4681 297.911 64.1323 295.839 67.6846C295.543 68.2767 294.951 68.5727 294.359 68.5727C291.103 68.5727 289.031 66.2045 286.663 64.1323C285.775 63.5403 284.887 62.6522 283.703 62.6522C282.223 62.6522 281.335 64.7244 280.447 65.9085C279.263 67.6846 277.783 69.4608 276.599 71.237C275.415 73.0131 274.231 74.7893 273.935 76.8615C273.639 78.3416 274.231 79.5257 275.415 80.4138C276.303 81.0059 277.191 81.3019 278.375 80.7099C279.263 80.1178 280.743 81.0059 280.743 82.19C280.447 85.1503 280.151 88.1105 279.855 91.0708C279.855 91.9589 279.263 92.551 278.375 92.551C276.007 92.551 273.639 92.551 270.975 92.847C272.159 98.7675 273.343 104.392 274.527 110.313C276.007 109.721 277.191 109.129 278.671 108.24C279.263 107.944 279.559 108.536 279.855 108.536C280.447 107.944 281.335 107.352 281.927 108.536C283.703 111.793 285.775 114.753 288.439 117.121C289.031 117.713 289.031 118.601 288.439 119.193C286.663 120.674 285.775 122.746 284.887 124.818C289.327 127.778 293.767 130.442 298.207 133.403C299.391 132.219 300.871 130.442 301.463 128.074Z" fill="#F47892"/>
<path d="M359.182 57.6191C356.814 56.731 354.742 55.5469 352.67 54.0668C348.822 51.1065 345.566 46.9621 344.086 42.2256C340.83 32.4566 345.27 21.7995 353.558 15.8789C361.846 9.66232 373.094 10.2544 381.382 16.471C385.526 19.4313 388.782 23.5757 390.262 28.3122C391.743 33.0487 391.743 38.3772 390.262 43.1137C388.486 48.7382 384.934 53.4747 380.198 56.731C375.462 59.6913 368.358 61.4675 363.622 57.6191C361.846 57.9151 360.366 58.2112 359.182 57.6191ZM345.862 38.3772C346.75 43.4097 349.414 47.5541 352.966 51.1065C354.15 51.9946 355.334 52.8827 356.814 53.4747C355.63 52.5866 354.446 51.6985 353.262 50.5144C350.302 46.9621 348.23 42.2256 347.638 37.4891C346.75 28.0162 352.67 20.0234 360.958 16.175C359.774 16.471 358.59 16.175 357.406 16.767C349.71 20.9114 344.382 29.7923 345.862 38.3772ZM377.535 54.3628C381.382 51.9946 384.046 48.4422 385.822 44.5938C387.598 40.7454 388.19 36.009 387.302 31.8645C386.414 27.4241 384.046 23.5757 380.79 20.6154C378.718 18.5432 375.758 17.9511 373.094 16.767C372.502 16.767 371.614 16.471 371.022 16.471C368.95 16.471 366.582 16.767 364.51 17.3591C360.366 18.5432 356.814 20.9114 353.854 24.1678C347.934 30.9765 348.526 40.7454 353.262 47.8501C354.742 49.9224 356.518 51.6985 358.294 53.1787C359.774 54.0668 361.254 54.9549 362.734 55.5469C363.03 55.5469 363.031 55.2509 363.326 55.5469C368.359 58.2112 373.39 57.0271 377.535 54.3628Z" fill="#F47892"/>
<path d="M271.271 126.298C272.751 128.37 274.231 130.146 276.007 131.922C277.783 133.699 279.559 135.475 281.335 137.251C281.927 137.843 281.039 138.731 280.447 138.435C276.303 136.659 273.047 132.811 270.383 129.554C267.719 126.002 265.351 121.858 263.279 117.713C259.135 108.832 257.359 99.0634 257.063 88.9985C257.063 86.0382 257.063 83.374 257.063 80.4137C257.063 78.9335 257.359 77.4534 257.359 76.2693C257.655 74.7892 257.951 73.309 258.247 71.8289C258.247 71.2368 259.135 71.5329 259.135 71.8289C259.135 74.1971 259.135 76.8614 259.135 79.2296C259.135 81.5978 259.135 84.262 259.135 86.6303C259.431 91.6627 259.727 96.6952 260.911 101.432C262.687 110.609 266.239 119.193 271.271 126.298Z" fill="#F47892"/>
<path d="M289.327 142.579C289.919 143.467 289.919 144.355 289.919 145.54C289.919 146.428 289.031 147.02 288.143 146.724C287.847 146.724 287.255 146.428 286.959 146.132C286.663 145.836 286.367 145.54 286.367 144.947C286.367 144.947 286.367 144.947 286.367 144.651V144.947C286.367 144.947 286.367 144.947 286.071 144.947C284.295 144.059 284.887 141.691 286.663 141.099C287.847 141.099 288.735 141.691 289.327 142.579ZM286.959 143.467C286.959 143.467 286.959 143.171 286.959 143.467C286.959 143.171 286.959 143.467 286.959 143.467Z" fill="#F47892"/>
<path d="M298.503 147.315C298.799 147.907 299.391 148.795 299.687 149.388C299.983 149.98 299.983 150.868 299.095 151.164C298.503 151.46 297.615 151.164 297.319 150.572C296.727 149.98 296.431 149.091 296.135 148.203C295.839 147.611 296.135 146.723 296.727 146.427C297.319 146.427 297.911 146.723 298.503 147.315Z" fill="#F47892"/>
<path d="M411.574 46.9619C411.87 43.4096 411.87 39.5612 411.278 36.0088C410.094 28.9041 407.43 22.0955 402.99 16.1749C400.622 12.9186 397.662 9.95829 394.702 6.998C394.406 6.70197 394.702 6.40594 394.998 6.70197C401.51 10.5503 406.542 17.063 409.798 23.5756C413.054 30.3843 414.534 38.0811 414.534 45.4818C414.534 47.554 414.238 49.9222 413.942 51.9944C413.646 54.0666 413.054 56.4349 411.87 57.915C411.278 58.5071 410.094 57.915 410.094 57.0269C410.094 55.2507 410.686 53.4746 411.278 51.6984C411.278 50.5143 411.574 48.7381 411.574 46.9619Z" fill="#F47892"/>
<path d="M408.319 15.5833C406.839 12.9192 405.063 10.551 403.583 7.88688C403.287 7.29484 403.879 6.99882 404.175 7.29484C406.543 9.36696 408.023 12.0311 409.503 14.3993C410.391 15.5833 410.983 17.0634 411.871 18.2475C412.463 19.4316 413.647 20.9117 413.647 22.3917C413.647 22.9838 413.055 23.5758 412.463 22.9838C411.575 22.0957 410.983 20.6156 410.391 19.1355C409.799 18.2475 409.207 16.7674 408.319 15.5833Z" fill="#F47892"/>
<path d="M258.246 116.529C259.726 119.785 261.798 122.746 262.982 126.298C263.278 126.89 262.39 127.186 262.094 126.89C259.726 124.522 258.246 121.265 257.062 118.305C255.582 115.345 254.398 112.089 253.51 108.832C251.734 102.32 250.846 95.5109 251.142 88.9982C251.142 85.1498 251.734 81.3015 252.918 77.7491C252.918 77.4531 253.806 77.4531 253.51 77.7491C252.918 84.2618 252.326 90.7744 253.214 97.5831C254.102 104.096 255.582 110.312 258.246 116.529Z" fill="#F47892"/>
<path opacity="0.5" d="M23.0627 99.2659C19.3 100.199 16.4938 103.864 13.5601 106.263C13.3688 106.463 13.1137 106.596 12.9224 106.796C10.8178 104.397 8.52187 102.131 6.41728 99.7323C4.63156 97.7332 1.50655 100.665 3.03717 102.864C4.82288 105.396 7.11881 107.529 9.35096 109.794C6.6086 112.06 3.86625 114.459 1.31523 116.924C0.0397125 117.524 0.932571 120.323 2.59074 119.323C5.84329 117.324 8.9683 114.992 12.0295 112.593C14.8357 115.925 17.7693 119.19 21.7234 120.989C23.0627 121.589 24.2745 119.856 23.1265 118.79C20.3204 116.125 17.9607 112.993 15.5372 109.928C18.5346 107.595 21.277 105.13 24.6571 103.331C26.8255 102.131 25.3586 98.7328 23.0627 99.2659Z" fill="#3F92D1"/>
<path opacity="0.5" d="M405.918 202.191C402.155 203.124 399.349 206.789 396.416 209.188C396.224 209.388 395.969 209.521 395.778 209.721C393.674 207.322 391.378 205.057 389.273 202.658C387.487 200.658 384.362 203.591 385.893 205.79C387.679 208.322 389.975 210.454 392.207 212.72C389.464 214.986 386.722 217.385 384.171 219.85C382.896 220.45 383.789 223.249 385.447 222.249C388.699 220.25 391.824 217.918 394.885 215.519C397.691 218.851 400.625 222.116 404.579 223.915C405.918 224.515 407.13 222.782 405.982 221.716C403.176 219.051 400.816 215.919 398.393 212.853C401.39 210.521 404.132 208.055 407.512 206.256C409.681 205.057 408.214 201.658 405.918 202.191Z" fill="#3F92D1"/>
<path opacity="0.5" d="M239.064 28.41C236.543 29.035 234.663 31.4906 232.698 33.0978C232.57 33.2317 232.399 33.321 232.271 33.455C230.861 31.8477 229.322 30.3298 227.912 28.7225C226.716 27.3832 224.622 29.3476 225.648 30.8209C226.844 32.5174 228.382 33.9461 229.878 35.464C228.041 36.982 226.203 38.5892 224.494 40.2411C223.64 40.6429 224.238 42.518 225.349 41.8483C227.528 40.509 229.622 38.9464 231.672 37.3391C233.552 39.5714 235.518 41.759 238.167 42.9645C239.064 43.3663 239.876 42.2055 239.107 41.4912C237.227 39.7053 235.646 37.607 234.022 35.5533C236.031 33.9907 237.868 32.3388 240.132 31.1334C241.585 30.3298 240.602 28.0528 239.064 28.41Z" fill="#3F92D1"/>
</svg>
