<svg width="65" height="48" viewBox="0 0 65 48" fill="none" xmlns="http://www.w3.org/2000/svg">
<g filter="url(#filter0_d)">
<rect x="7.14258" y="7.57599" width="50.6963" height="33.4002" rx="6" fill="white"/>
</g>
<path d="M26.3688 36.46C33.0544 36.46 38.4752 31.0424 38.4752 24.3581C38.4752 17.6738 33.0544 12.2562 26.3688 12.2562C19.6833 12.2562 14.2625 17.6738 14.2625 24.3581C14.2625 31.0424 19.6833 36.46 26.3688 36.46Z" fill="#41B4E6" stroke="#ECEFF1" stroke-width="3"/>
<g clip-path="url(#clip0)">
<path d="M26.3696 34.9816C32.2273 34.9816 36.976 30.2329 36.976 24.3752C36.976 18.5174 32.2273 13.7688 26.3696 13.7688C20.5118 13.7688 15.7632 18.5174 15.7632 24.3752C15.7632 30.2329 20.5118 34.9816 26.3696 34.9816Z" fill="#F0F0F0"/>
<path d="M17.9556 17.9178C17.1224 19.0018 16.4942 20.2511 16.1284 21.6084H21.6461L17.9556 17.9178Z" fill="#0052B4"/>
<path d="M36.6104 21.6084C36.2446 20.2512 35.6164 19.0018 34.7833 17.9178L31.0928 21.6084H36.6104Z" fill="#0052B4"/>
<path d="M16.1284 27.1422C16.4943 28.4994 17.1225 29.7487 17.9556 30.8326L21.646 27.1422H16.1284Z" fill="#0052B4"/>
<path d="M32.8268 15.9614C31.7428 15.1282 30.4935 14.5 29.1362 14.1342V19.6519L32.8268 15.9614Z" fill="#0052B4"/>
<path d="M19.9121 32.789C20.9961 33.6222 22.2454 34.2504 23.6026 34.6162V29.0986L19.9121 32.789Z" fill="#0052B4"/>
<path d="M23.6026 14.1342C22.2454 14.5 20.996 15.1282 19.9121 15.9613L23.6026 19.6518V14.1342Z" fill="#0052B4"/>
<path d="M29.1362 34.6162C30.4934 34.2504 31.7428 33.6222 32.8267 32.7891L29.1362 29.0986V34.6162Z" fill="#0052B4"/>
<path d="M31.0928 27.1422L34.7833 30.8327C35.6164 29.7488 36.2446 28.4994 36.6104 27.1422H31.0928Z" fill="#0052B4"/>
<path d="M36.8862 22.9918H27.7531H27.753V13.8586C27.3002 13.7996 26.8385 13.7688 26.3696 13.7688C25.9006 13.7688 25.439 13.7996 24.9861 13.8586V22.9917V22.9917H15.853C15.794 23.4446 15.7632 23.9063 15.7632 24.3752C15.7632 24.8441 15.794 25.3058 15.853 25.7586H24.9861H24.9861V34.8918C25.439 34.9508 25.9006 34.9816 26.3696 34.9816C26.8385 34.9816 27.3002 34.9508 27.753 34.8918V25.7587V25.7587H36.8862C36.9451 25.3058 36.976 24.8441 36.976 24.3752C36.976 23.9063 36.9451 23.4446 36.8862 22.9918Z" fill="#D80027"/>
<path d="M29.1365 27.1421L33.8694 31.8751C34.0871 31.6575 34.2947 31.43 34.4929 31.1942L30.4408 27.1421H29.1365V27.1421Z" fill="#D80027"/>
<path d="M23.6026 27.1422H23.6025L18.8696 31.875C19.0872 32.0927 19.3147 32.3004 19.5506 32.4985L23.6026 28.4464V27.1422Z" fill="#D80027"/>
<path d="M23.6025 21.6084V21.6083L18.8696 16.8753C18.6519 17.0929 18.4442 17.3204 18.2461 17.5563L22.2982 21.6084H23.6025V21.6084Z" fill="#D80027"/>
<path d="M29.1365 21.6084L33.8695 16.8754C33.6519 16.6577 33.4244 16.45 33.1885 16.252L29.1365 20.3041V21.6084Z" fill="#D80027"/>
</g>
<path d="M42.9393 20.5851C42.5907 20.1568 41.9608 20.0923 41.5325 20.4409C41.1042 20.7896 41.0396 21.4195 41.3883 21.8478L42.9393 20.5851ZM46.542 26.5945L45.7665 27.2258C45.9564 27.4591 46.2412 27.5945 46.542 27.5945C46.8428 27.5945 47.1276 27.4591 47.3175 27.2258L46.542 26.5945ZM51.6956 21.8478C52.0442 21.4195 51.9797 20.7896 51.5514 20.4409C51.1231 20.0923 50.4932 20.1568 50.1445 20.5851L51.6956 21.8478ZM41.3883 21.8478L45.7665 27.2258L47.3175 25.9632L42.9393 20.5851L41.3883 21.8478ZM47.3175 27.2258L51.6956 21.8478L50.1445 20.5851L45.7665 25.9632L47.3175 27.2258Z" fill="#3A4D57"/>
<defs>
<filter id="filter0_d" x="0.142578" y="0.575989" width="64.6963" height="47.4002" filterUnits="userSpaceOnUse" color-interpolation-filters="sRGB">
<feFlood flood-opacity="0" result="BackgroundImageFix"/>
<feColorMatrix in="SourceAlpha" type="matrix" values="0 0 0 0 0 0 0 0 0 0 0 0 0 0 0 0 0 0 127 0"/>
<feOffset/>
<feGaussianBlur stdDeviation="3.5"/>
<feColorMatrix type="matrix" values="0 0 0 0 0.0313726 0 0 0 0 0.298039 0 0 0 0 0.580392 0 0 0 0.28 0"/>
<feBlend mode="normal" in2="BackgroundImageFix" result="effect1_dropShadow"/>
<feBlend mode="normal" in="SourceGraphic" in2="effect1_dropShadow" result="shape"/>
</filter>
<clipPath id="clip0">
<rect width="21.2128" height="21.2128" fill="white" transform="translate(15.7632 13.7688)"/>
</clipPath>
</defs>
</svg>
