<svg width="20" height="20" viewBox="0 0 20 20" fill="none" xmlns="http://www.w3.org/2000/svg">
<g clip-path="url(#clip0)">
<path d="M13.8565 19.5142C13.2432 19.5142 12.6351 19.4057 12.0404 19.1897C9.42069 18.238 6.98901 16.688 5.00819 14.7072C3.02737 12.7265 1.47738 10.2948 0.525749 7.67501C0.219943 6.83311 0.129697 5.96404 0.257607 5.09186C0.377429 4.27489 0.693884 3.48179 1.1728 2.79826C1.65383 2.11173 2.29513 1.54071 3.02734 1.14696C3.80816 0.727085 4.66042 0.51416 5.56051 0.51416C5.84045 0.51416 6.08239 0.709756 6.14106 0.983463L7.07298 5.33247C7.11518 5.5294 7.05465 5.73431 6.91227 5.87673L5.31986 7.4691C6.82206 10.4558 9.2596 12.8933 12.2463 14.3955L13.8386 12.8031C13.981 12.6607 14.186 12.6003 14.3829 12.6424L18.7319 13.5743C19.0056 13.633 19.2012 13.8749 19.2012 14.1549C19.2012 15.0549 18.9883 15.9072 18.5684 16.6881C18.1746 17.4203 17.6036 18.0616 16.9171 18.5426C16.2336 19.0215 15.4405 19.338 14.6235 19.4578C14.3675 19.4954 14.1115 19.5141 13.8565 19.5142ZM5.08612 1.72759C3.89885 1.85865 2.84506 2.48095 2.14528 3.47971C1.35837 4.60278 1.17488 5.98412 1.64184 7.26961C3.47141 12.3061 7.40933 16.244 12.4458 18.0736C13.7313 18.5406 15.1127 18.3571 16.2357 17.5702C17.2345 16.8704 17.8568 15.8166 17.9879 14.6293L14.45 13.8712L12.7869 15.5342C12.61 15.7112 12.3411 15.7582 12.1146 15.6518C8.58235 13.9923 5.72311 11.1331 4.06365 7.6008C3.95726 7.37433 4.00424 7.10544 4.18121 6.92851L5.84423 5.26549L5.08612 1.72759Z" fill="#3F92D1"/>
<path d="M18.607 10.6075C18.2791 10.6075 18.0133 10.3417 18.0133 10.0138C18.0133 5.43043 14.2845 1.70161 9.70115 1.70161C9.37326 1.70161 9.10742 1.43577 9.10742 1.10789C9.10742 0.780001 9.37326 0.51416 9.70115 0.51416C12.2386 0.51416 14.6242 1.50227 16.4184 3.29651C18.2126 5.09075 19.2008 7.4763 19.2008 10.0138C19.2008 10.3417 18.935 10.6075 18.607 10.6075Z" fill="#3F92D1"/>
<path d="M16.2321 10.6076C15.9042 10.6076 15.6384 10.3418 15.6384 10.0139C15.6384 6.74007 12.975 4.07661 9.70115 4.07661C9.37326 4.07661 9.10742 3.81077 9.10742 3.48289C9.10742 3.155 9.37326 2.88916 9.70115 2.88916C13.6297 2.88916 16.8259 6.0853 16.8259 10.0139C16.8259 10.3418 16.5601 10.6076 16.2321 10.6076Z" fill="#3F92D1"/>
<path d="M13.8572 10.6077C13.5293 10.6077 13.2635 10.3419 13.2635 10.014C13.2635 8.04966 11.6655 6.45161 9.70115 6.45161C9.37326 6.45161 9.10742 6.18577 9.10742 5.85789C9.10742 5.53 9.37326 5.26416 9.70115 5.26416C12.3202 5.26416 14.451 7.39489 14.451 10.014C14.451 10.3419 14.1851 10.6077 13.8572 10.6077Z" fill="#3F92D1"/>
</g>
<defs>
<clipPath id="clip0">
<rect width="19" height="19" fill="white" transform="translate(0.200806 0.51416)"/>
</clipPath>
</defs>
</svg>
