<svg width="507" height="360" viewBox="0 0 507 360" fill="none" xmlns="http://www.w3.org/2000/svg">
<g clip-path="url(#clip0)">
<path d="M311.327 200.261C311.338 193.024 311.468 185.709 310.95 178.571C310.373 171.217 309.189 163.844 310.357 156.43C310.513 155.645 310.022 155.038 309.375 154.705C309.1 154.548 308.825 154.392 308.315 154.392C258.877 156.898 209.399 158.579 159.862 160.555C158.842 160.556 158.353 161.479 158.511 162.224C158.491 162.322 158.472 162.42 158.452 162.518C159.151 191.817 160.654 221.174 161.862 250.472C160.862 250.375 159.667 251.259 160.158 252.377C162.321 257.395 173.791 255.088 177.831 254.769C181.576 254.393 185.243 253.898 188.93 253.306C195.361 252.24 201.97 252.331 208.442 252.089C225.621 251.325 242.839 250.874 260.097 250.228C277.139 249.641 293.963 247.583 310.965 246.682C311.81 248.073 314.32 247.757 314.2 245.796C313.556 230.578 311.226 215.636 311.327 200.261ZM303.436 157.908C299.634 160.619 296.383 164.152 292.168 166.373C286.151 169.459 280.114 172.642 274.097 175.728C267.962 178.892 262.141 182.526 256.399 186.278C253.224 188.4 250.147 190.541 247.071 192.682C244.21 194.764 241.173 197.729 237.939 199.125C226.752 191.292 213.703 185.129 201.263 179.494C194.906 176.599 188.432 174.291 181.84 172.063C178.308 170.851 174.894 169.56 171.52 168.073C169.263 167.115 164.908 165.433 163.101 163.238C209.814 161.619 256.586 160.214 303.436 157.908ZM217.949 248.372C206.752 248.796 195.652 249.239 184.534 250.801C180.553 251.334 176.592 251.77 172.553 252.088C171.415 252.168 167.748 252.662 165.257 252.371C165.056 247.233 164.854 242.095 164.652 236.957C165.044 237.035 165.397 236.799 165.671 236.446C170.526 228.439 175.813 220.824 180.393 212.661C180.707 212.111 179.961 211.759 179.667 212.21C174.655 219.472 169.171 226.538 164.61 234.094C164.549 232.348 164.469 230.701 164.408 228.956C167.914 224.657 171.086 219.986 174.415 215.55C176.785 212.351 180.507 209.013 181.856 205.305C182.013 205.03 181.463 204.717 181.307 204.991C175.941 211.979 169.751 218.497 164.287 225.465C164.167 223.504 164.145 221.562 164.025 219.601C164.418 219.679 164.751 219.542 165.025 219.188C167.395 215.989 169.764 212.79 172.33 209.63C172.859 209.021 172.014 208.139 171.387 208.728C168.782 211.575 166.373 214.46 163.944 217.444C163.845 215.895 163.863 214.267 163.763 212.718C168.562 207.555 172.753 201.863 177.101 196.406C177.512 195.876 176.746 195.112 176.335 195.642C172.104 200.51 167.873 205.379 163.642 210.247C163.077 195.657 162.414 181.047 161.653 166.417C164.657 169.258 169.424 170.919 172.799 172.406C180.039 175.477 187.553 177.685 194.812 180.658C202.072 183.631 208.979 187.35 215.926 190.873C223.441 194.61 230.721 198.505 237.492 203.42C238.827 204.399 240.139 202.927 239.903 201.554C241.255 200.906 242.45 200.022 243.881 198.981C246.977 196.742 250.054 194.601 253.131 192.46C259.264 188.276 265.633 183.935 272.239 180.456C278.825 177.076 285.332 173.578 291.918 170.197C297.386 167.309 301.343 162.794 306.654 159.67C306.654 159.67 306.654 159.67 306.674 159.572C306.13 164.867 306.587 170.26 307.064 175.555C307.68 183.222 307.688 190.871 307.579 198.598C307.439 213.66 309.494 228.444 310.393 243.407C295.45 244.208 280.508 246.028 265.584 246.731C249.876 247.278 233.893 247.668 217.949 248.372Z" fill="#F47892"/>
<path d="M262.03 188.724C254.563 192.948 245.94 198.371 240.357 204.907C240.201 205.182 240.456 205.437 240.711 205.182C247.078 198.801 255.408 194.85 262.659 189.664C263.247 189.272 262.716 188.35 262.03 188.724Z" fill="#F47892"/>
<path d="M256.879 195.142C254.586 195.91 252.744 197.481 250.745 198.816C248.374 200.486 246.316 202.116 244.279 204.158C244.142 204.335 244.299 204.57 244.534 204.413C248.552 201.643 252.627 198.069 257.253 196.338C257.939 195.965 257.546 194.867 256.879 195.142Z" fill="#F47892"/>
<path d="M156.446 229.513C156.535 238.809 157.447 248.065 157.536 257.361C157.537 258.38 159.263 258.418 159.183 257.28C158.702 247.907 157.967 238.788 157.074 229.434C157.152 229.042 156.446 229.003 156.446 229.513Z" fill="#F47892"/>
<path d="M188.932 255.856C179.697 257.18 170.421 257.17 161.145 258.18C160.734 258.201 160.715 258.809 161.126 258.788C170.423 259.21 179.699 259.219 188.935 257.895C190.19 257.737 190.187 255.697 188.932 255.856Z" fill="#F47892"/>
<path d="M194.639 255.359C194.129 255.36 193.698 255.478 193.247 255.694C192.561 256.067 193.189 257.008 193.856 256.733C194.189 256.595 194.522 256.457 194.856 256.32C195.404 256.123 195.149 255.359 194.639 255.359Z" fill="#F47892"/>
<path d="M200.541 254.902C200.071 254.706 199.541 254.805 199.012 254.903L197.227 255.16C196.6 255.239 196.62 256.161 197.228 256.18C197.738 256.179 198.229 256.277 198.739 256.276C199.347 256.295 199.935 256.412 200.484 256.216C201.15 255.94 201.208 255.136 200.541 254.902Z" fill="#F47892"/>
<path d="M166.817 243.505C171.868 235.537 176.369 227.256 181.597 219.425C181.91 218.876 181.086 218.406 180.675 218.936C175.369 226.649 169.376 234.226 165.247 242.683C164.757 243.605 166.229 244.408 166.817 243.505Z" fill="#F47892"/>
<path d="M179.724 228.331C175.025 235.043 170.6 241.912 166.352 248.918C165.608 250.096 167.55 251.094 168.196 249.897C172.248 242.852 176.496 235.846 181.019 228.996C181.587 228.192 180.292 227.526 179.724 228.331Z" fill="#F47892"/>
<path d="M183.867 232.621C182.869 235.074 180.636 237.077 179.089 239.216C177.405 241.532 175.799 243.966 174.194 246.399C173.469 247.479 175.255 248.751 175.96 247.77C177.762 245.376 179.112 242.687 180.639 240.136C182.127 237.781 184.164 235.739 185.024 232.953C185.396 232.11 184.219 231.876 183.867 232.621Z" fill="#F47892"/>
<path d="M186.891 236.384C185.051 239.484 182.936 242.428 181.096 245.529C180.489 246.53 182.138 247.469 182.744 246.468C184.408 243.231 186.327 240.248 188.069 237.127C188.44 236.284 187.341 235.657 186.891 236.384Z" fill="#F47892"/>
<path d="M190.757 238.478C189.935 240.047 189.113 241.617 188.193 243.168C187.136 244.895 185.804 246.465 184.923 248.329C184.591 248.977 185.474 249.662 185.983 249.152C188.648 246.521 189.996 242.303 191.581 238.947C191.777 238.477 191.051 238.026 190.757 238.478Z" fill="#F47892"/>
<path d="M194.365 238.278C193.662 241.299 191.626 243.85 190.256 246.637C189.904 247.382 191.022 247.911 191.355 247.263C192.548 244.34 194.506 241.67 195.13 238.532C195.228 238.041 194.463 237.787 194.365 238.278Z" fill="#F47892"/>
<path d="M197.563 239.118C197.036 241.766 195.176 243.945 193.903 246.241C193.414 247.163 194.788 247.946 195.277 247.023C196.588 244.531 198.37 242.235 198.818 239.469C198.994 238.586 197.738 238.235 197.563 239.118Z" fill="#F47892"/>
<path d="M200.35 240.997C200.155 241.978 199.862 242.939 199.49 243.783C199.118 244.627 200.335 245.175 200.687 244.429C201.098 243.389 201.41 242.33 201.527 241.231C201.565 240.525 200.506 240.213 200.35 240.997Z" fill="#F47892"/>
<path d="M171.714 166.583C177.109 168.165 182.799 170.316 187.998 172.37C194.806 175.049 201.849 177.062 208.657 179.741C209.599 180.132 210.225 178.523 209.283 178.132C202.946 175.648 196.432 173.537 190.056 171.25C186.721 170.077 183.425 168.708 179.933 167.809C177.324 167.086 174.537 165.717 171.772 165.779C171.36 165.799 171.341 166.407 171.714 166.583Z" fill="#F47892"/>
<path d="M212.444 181.718C212.7 181.972 213.072 182.148 213.504 182.03C213.719 181.971 213.837 181.893 214.072 181.736C214.562 181.323 214.385 180.676 214.051 180.304C213.639 179.814 213.109 179.913 212.58 180.011C212.168 180.031 211.855 180.581 211.875 180.993C212.012 181.326 212.17 181.561 212.444 181.718Z" fill="#F47892"/>
<path d="M307.215 224.525C307.032 218.779 306.536 213.072 305.941 207.346C305.902 207.032 305.49 207.053 305.431 207.347C305.418 213.054 305.503 218.78 305.587 224.507C305.691 229.625 305.089 235.215 305.82 240.255C306.038 241.725 308.155 241.331 307.722 239.919C306.423 235.175 307.358 229.447 307.215 224.525Z" fill="#F47892"/>
<path d="M302.364 218.156C302.27 222.216 302.294 226.197 302.397 230.296C302.518 233.786 302.15 237.69 302.918 241.003C303.057 241.846 304.527 241.629 304.389 240.786C303.836 237.413 304.185 233.608 304.044 230.215C303.824 226.195 303.702 222.195 303.698 218.115C303.775 217.213 302.442 217.254 302.364 218.156Z" fill="#F47892"/>
<path d="M298.702 223.24C298.702 222.73 297.898 222.672 297.879 223.28C297.961 226.457 297.944 229.614 298.026 232.791C298.088 235.046 297.541 237.283 298.445 239.4C298.78 240.282 300.074 239.928 299.857 238.967C298.812 233.967 299.12 228.318 298.702 223.24Z" fill="#F47892"/>
<path d="M294.238 230.305C294.3 233.07 293.99 236.169 294.562 238.933C294.759 239.992 296.17 239.559 296.248 238.657C296.48 235.95 296.046 233.009 295.866 230.322C295.787 229.185 294.139 229.265 294.238 230.305Z" fill="#F47892"/>
<path d="M313.017 149.72C312.88 149.386 312.624 149.132 312.33 149.073C312.173 148.838 311.898 148.681 311.486 148.701C306.113 149.06 300.701 149.615 295.308 150.072C289.916 150.529 284.483 150.163 279.268 151.776C278.621 151.954 278.936 152.934 279.563 152.855C284.681 151.731 290.172 152.314 295.33 152.014C300.605 151.635 305.9 151.159 311.155 150.879C311.846 154.585 311.733 158.742 312.109 162.488C312.585 166.763 313.158 171.057 313.633 175.332C313.732 175.861 314.458 175.801 314.457 175.292C314.511 170.408 314.368 165.486 313.931 160.505C313.79 157.112 314.197 153.013 313.017 149.72Z" fill="#F47892"/>
<path d="M317.21 146.067C317.287 145.165 316.228 144.852 315.542 145.226C315.444 145.206 315.444 145.206 315.346 145.187C306.796 145.628 298.108 145.735 289.519 146.372C288.793 146.432 288.912 147.373 289.52 147.392C298.169 147.99 306.543 147.412 315.191 146.991C316.258 154.442 316.678 162.071 317.412 169.66C317.413 170.17 318.138 170.11 318.236 169.62C318.247 161.873 316.767 153.932 317.21 146.067Z" fill="#F47892"/>
<path d="M442.509 200.451C436.115 181.337 422.525 164.054 403.473 156.289C387.62 149.874 366.649 144.582 350.085 151.483C349.765 145.914 350.073 140.266 349.243 134.697C348.354 128.402 346.268 121.972 344.202 115.954C340.071 103.916 333.175 92.9611 324.144 84.0281C306.141 66.3776 278.695 57.7588 254.333 53.6277C228.107 49.126 201.523 57.7056 180.536 73.5158C170.346 81.1755 162.258 91.0882 155.268 101.627C148.826 111.46 142.445 122.528 139.222 134.122C124.568 130.902 109.365 127.368 94.265 127.934C96.2227 124.755 98.0038 121.439 98.9411 117.751C99.0191 117.358 98.5482 117.163 98.3721 117.535C96.6111 121.264 94.3988 124.698 91.9902 128.093C91.7746 128.153 91.4803 128.094 91.2647 128.153C88.8723 128.391 86.48 128.629 84.0486 129.063C85.8107 126.355 87.6709 123.666 89.6096 121.095C90.5887 119.76 88.7826 118.075 87.7054 119.391C85.1007 122.747 82.6727 126.241 80.2447 129.734C70.245 131.824 60.6393 135.521 52.0161 140.943C28.5963 155.658 14.2153 186.444 16.5396 213.722C17.6323 226.684 22.1796 242.27 31.6426 251.595C42.0089 262.017 56.981 269.786 70.2841 275.695C77.3085 278.825 84.5675 281.288 91.963 283.065C100.614 285.193 109.695 285.673 118.521 286.919C135.959 289.469 153.26 292.705 170.697 295.256C206.357 300.512 241.664 306.004 276.738 314.203C293.981 318.243 311.342 321.696 328.585 325.737C344.553 329.524 359.341 330.527 375.497 327.215C389.399 324.474 403.022 318.517 414.015 309.385C424.615 300.686 431.995 288.695 437.238 276.177C447.487 251.298 451.186 226.545 442.509 200.451ZM421.487 291.295C413.38 303.346 401.603 311.301 388.154 316.376C383.195 318.244 378.117 319.681 373.039 320.609C378.878 316.366 383.637 310.379 388.554 305.138C389.592 304.019 387.865 302.452 386.827 303.571C381.714 308.773 376.542 313.76 370.938 318.356C369.958 319.18 370.214 320.455 370.921 321.003C364.705 322.01 358.293 322.468 351.938 322.122C356.189 318.176 359.871 313.504 363.966 309.322C367.942 305.219 371.821 301.096 374.816 296.288C375.267 295.562 374.07 294.916 373.619 295.642C366.943 305.632 356.339 311.782 348.897 321.008C348.642 321.263 348.584 321.557 348.525 321.851C345.015 321.561 341.641 321.094 338.208 320.411C329.969 318.773 321.672 316.919 313.472 315.084C318.584 309.372 323.814 303.581 328.927 297.868C331.943 294.492 334.803 290.88 337.466 287.229C339.424 284.56 341.697 282.361 342.752 279.104C343.084 277.947 341.181 277.262 340.751 278.4C339.48 281.716 336.521 284.288 334.426 287.134C331.586 290.648 328.57 294.025 325.455 297.381C320.421 302.702 313.562 307.965 309.549 314.304C307.313 313.757 305.057 313.309 302.918 312.782C304.799 310.505 306.502 308.09 308.402 305.715C311.457 301.633 315.219 298.099 318.705 294.408C326.208 286.418 333.651 278.212 340.722 269.83C341.78 268.613 339.954 267.027 338.916 268.146C331.669 276.39 324.166 284.38 316.467 292.331C312.882 296.003 309.219 299.556 306.007 303.404C303.715 306.211 301.62 309.057 299.25 311.746C296.916 311.18 294.581 310.614 292.227 310.146C300.726 298.683 309.971 288.083 320.119 278.07C321.373 276.892 319.371 275.168 318.235 276.268C307.557 286.379 296.861 297.099 288.441 309.189C287.951 309.091 287.46 308.994 286.891 308.779C284.165 308.134 281.536 307.51 278.79 306.964C279.534 306.296 280.181 305.609 280.808 305.02C283.668 302.428 286.371 299.601 288.977 296.754C294.383 291.1 299.515 285.29 305.158 279.989C306.412 278.81 304.429 276.989 303.175 278.167C297.846 282.919 292.85 288.043 287.874 293.069C283.408 297.584 278.647 301.531 274.023 305.812C271.002 305.109 268.06 304.524 265.019 303.919C269.37 301.522 273.288 297.203 276.559 293.571C280.731 288.997 285.375 285.129 288.409 279.615C289.192 278.241 287.053 277.204 286.29 278.479C283.314 283.699 278.69 287.47 274.498 291.632C270.815 295.284 266.896 298.583 262.722 301.627C262.115 302.118 261.9 302.687 262.116 303.138C259.762 302.67 257.31 302.182 254.956 301.714C257.856 299.436 260.559 296.609 263.283 294.194C267.613 290.365 271.766 286.399 275.841 282.315C276.859 281.294 275.211 279.845 274.192 280.866C270.058 284.734 265.748 288.464 261.457 292.097C258.028 294.984 253.932 297.636 250.837 300.895C248.09 300.349 245.344 299.803 242.598 299.256C245.401 297.979 247.83 295.505 250.064 293.502C254.178 289.732 257.801 285.355 263.074 282.937C264.309 282.367 263.719 280.21 262.366 280.859C258.151 282.57 254.84 285.378 251.49 288.382C249.511 290.13 247.63 291.897 245.573 293.527C243.515 295.157 241.202 296.022 238.987 297.417C238.635 297.653 238.459 298.025 238.381 298.418C219.412 294.849 200.346 291.772 181.124 288.969C163.588 286.399 145.994 283.614 128.517 280.75C111.039 277.886 93.996 276.943 77.3581 270.372C62.9962 264.661 48.0826 256.597 36.4808 246.236C30.9449 241.26 28.2494 233.281 26.0454 226.42C23.5266 218.578 22.4979 210.42 22.8028 202.222C23.4331 186.748 30.8287 170.58 40.4254 158.724C49.5129 147.379 62.3312 140.344 76.0746 136.348C75.6438 136.976 75.3306 137.525 74.8999 138.153C73.8622 139.782 76.531 141.23 77.5686 139.602C78.4692 138.149 79.2521 136.776 80.1527 135.323C82.7212 134.713 85.3487 134.318 87.9762 133.922C85.9789 136.788 83.9622 139.751 82.3968 143.009C81.5553 144.677 84.2631 145.929 84.8889 144.32C86.3557 140.533 88.4894 136.981 90.7804 133.664C106.645 132.333 122.828 135.551 138.481 138.358C138.266 139.437 138.052 140.516 137.935 141.615C137.624 143.694 140.547 144.377 141.153 142.356C144.904 129.644 151.148 118.243 158.059 107.076C164.852 95.9883 173.45 86.075 183.699 78.1211C203.94 62.4686 229.898 55.4978 255.104 60.0006C277.544 64.0554 301.107 72.7176 318.226 88.1529C327.217 96.2624 333.367 106.866 337.439 118.177C339.602 124.215 341.473 130.704 342.342 137.097C343.291 143.607 342.298 150.139 343.344 156.668C343.581 158.041 344.425 158.922 345.328 159.51C346.447 160.548 348.016 160.86 349.624 159.956C360.971 153.139 375.349 155.692 387.473 158.817C399.89 162 410.859 166.832 419.929 176.079C438.934 195.356 444.237 220.473 438.872 245.915C435.457 262.059 430.728 277.636 421.487 291.295Z" fill="#3F92D1"/>
<path d="M68.4553 217.215C67.863 213.528 65.5849 210.628 62.4842 208.788C61.4243 207.966 60.0116 207.379 58.5599 206.988C57.3044 206.637 56.1275 206.403 54.931 206.267C49.4196 205.782 44.8522 207.729 41.659 210.968C40.0524 212.382 38.8582 214.286 37.9978 216.561C36.1398 221.29 36.3616 226.84 39.2304 231.896C39.4661 232.249 39.7214 232.504 40.1137 232.582C40.5456 232.974 40.9774 233.365 41.5269 233.679C42.4102 234.364 43.5481 234.794 44.6861 235.224C50.3373 238.082 58.0834 237.583 63.7854 233.007C67.528 230.081 69.0878 221.725 68.4553 217.215ZM62.8787 228.85C60.8051 233.638 52.6082 234.353 48.2927 233.495C42.3885 232.423 40.0881 227.071 39.9254 221.737C39.9242 220.717 40.0407 219.619 40.2163 218.736L40.2358 218.638C40.2943 218.344 40.3333 218.147 40.4899 217.873C40.5094 217.775 40.5484 217.579 40.666 217.5C41.5654 215.028 43.2696 213.124 45.3861 211.709C47.6792 210.432 50.3458 209.841 52.8557 209.524C58.1893 208.852 61.3892 211.731 64.394 215.591C66.9864 218.962 64.3655 225.476 62.8787 228.85Z" fill="#3F92D1"/>
<path d="M73.4975 236.978C72.8694 236.547 72.2219 236.214 71.5353 236.078C70.3779 235.746 69.1424 235.806 68.0251 236.297L67.9075 236.376C65.3981 237.202 63.1055 238.99 62.2055 240.952C60.2099 245.347 63.0799 251.423 67.7291 252.654C73.3592 254.079 77.4334 249.486 77.7806 244.151C77.8954 241.523 76.0487 238.505 73.4975 236.978ZM68.1393 251.104C64.3532 250.147 62.5833 245.717 63.3836 242.206C63.8718 240.263 65.9487 238.535 68.1249 237.847C68.2229 237.866 68.321 237.886 68.4386 237.807C68.6543 237.748 68.8699 237.689 69.0856 237.63C69.3993 237.59 69.7131 237.551 70.0268 237.511C73.1843 237.527 76.091 241.368 76.1138 244.329C76.393 248.565 72.3177 252.139 68.1393 251.104Z" fill="#3F92D1"/>
<path d="M58.9506 205.537C59.7944 205.908 60.4597 204.613 59.616 204.241C50.1196 200.212 36.7128 207.13 34.331 217.056C34.2725 217.35 34.6648 217.428 34.8214 217.153C37.7343 208.658 50.1999 201.859 58.9506 205.537Z" fill="#3F92D1"/>
<path d="M36.2842 209.797C37.1251 207.62 40.9279 205.929 42.8684 204.887C45.9846 203.06 49.122 202.664 52.7109 202.562C53.5345 202.522 53.69 201.228 52.7878 201.15C49.277 200.86 46.0615 201.648 42.9843 203.279C40.593 204.537 36.379 206.757 35.6172 209.563C35.4216 210.034 36.0886 210.268 36.2842 209.797Z" fill="#3F92D1"/>
<path d="M37.8084 204.697C40.0804 201.988 44.728 201.689 48.0025 201.116C48.7476 200.959 48.7465 199.939 47.9424 199.881C45.8047 199.864 43.5895 200.748 41.6095 201.476C39.9628 202.066 38.2771 202.853 37.3765 204.305C37.2004 204.678 37.6518 204.971 37.8084 204.697Z" fill="#3F92D1"/>
<path d="M89.5333 285.028C71.8768 279.478 52.9826 271.948 37.948 260.903C30.4701 255.44 24.1083 248.465 20.4315 239.781C16.8137 231.313 15.1564 222.215 12.2837 213.589C12.1461 213.256 11.6952 213.472 11.8524 213.707C14.0006 223.413 15.5994 232.805 19.3749 242.018C22.6193 249.8 28.7253 256.011 35.1244 261.26C42.4853 267.312 50.9814 271.244 59.4385 275.373C69.1122 280.05 78.8633 283.824 89.1432 286.99C90.4578 287.557 90.8674 285.498 89.5333 285.028Z" fill="#3F92D1"/>
<path d="M49.5131 273.501C41.4087 269.137 33.7357 264.654 27.6091 257.522C24.7224 254.093 21.8163 250.762 19.5176 246.94C17.5331 243.589 16.7045 239.04 14.3283 236.121C13.9159 235.631 13.2104 236.102 13.5052 236.671C15.0578 239.63 15.3169 243.454 16.948 246.531C19.1687 250.746 21.9183 254.351 24.9621 258.015C31.5601 265.853 39.5084 271.002 48.2999 276.013C49.6931 276.698 50.9848 274.304 49.5131 273.501Z" fill="#3F92D1"/>
<path d="M166.467 102.223C166.878 101.693 165.897 100.988 165.485 101.518C160.374 108.25 155.636 115.669 151.702 123.145C147.612 130.896 145.326 139.312 142.864 147.591C142.454 149.141 144.808 149.609 145.316 148.078C147.955 139.937 150.064 131.894 153.743 124.163C157.284 116.608 161.63 109.112 166.467 102.223Z" fill="#3F92D1"/>
<path d="M163.418 111.914C155.156 124.749 150.308 139.385 147.52 154.43C147.227 155.901 149.562 156.468 149.874 154.898C153.113 140.147 157 125.728 164.713 112.58C165.085 111.736 163.887 111.09 163.418 111.914Z" fill="#3F92D1"/>
<path d="M217.599 52.746C231.891 48.5531 246.914 48.8898 261.606 50.8938C269.844 52.0223 278.063 54.2686 285.833 57.2411C292.17 59.7249 297.999 63.229 304.199 65.8894C305.513 66.4568 306.609 64.5336 305.216 63.8487C298.388 60.7575 291.854 57.215 284.83 54.5947C277.531 51.8178 269.724 50.0612 261.976 49.0302C247.108 46.8892 231.36 47.1221 217.245 51.9619C216.716 52.0605 217.05 52.9427 217.599 52.746Z" fill="#3F92D1"/>
<path d="M228.69 44.6539C239.827 42.4845 252.047 43.589 263.227 44.7928C274.995 46.1135 284.963 50.8487 295.832 55.1514C297.343 55.7577 298.498 53.5404 296.987 52.934C285.058 48.3187 274.541 43.7803 261.538 42.5197C250.613 41.5706 239.061 41.2106 228.435 43.8893C227.905 43.988 228.161 44.7526 228.69 44.6539Z" fill="#3F92D1"/>
<path d="M347.487 286.571C341.452 292.304 335.851 298.939 330.602 305.338C328.31 308.145 324.195 311.405 322.728 314.682C322.395 315.33 322.691 316.408 323.593 316.485C326.771 316.913 329.745 310.674 331.292 308.534C336.638 301.135 342.769 294.401 348.448 287.374C348.762 286.825 347.996 286.061 347.487 286.571Z" fill="#3F92D1"/>
<path d="M354.728 290.662C349.773 297.12 344.053 302.813 338.313 308.605C336.158 310.725 332.003 313.672 331.281 316.791C331.125 317.575 331.656 318.496 332.46 318.554C332.558 318.574 332.558 318.574 332.656 318.593C333.558 318.671 334.166 318.18 334.302 317.493C336.221 314.51 339.218 311.742 341.569 309.151C346.564 303.517 351.735 298.02 356.2 291.974C356.807 290.974 355.531 289.7 354.728 290.662Z" fill="#3F92D1"/>
<path d="M363.418 293.104C358.762 303.189 347.294 308.046 341.401 317.172C340.657 318.349 342.071 319.956 343.384 319.503C347.031 318.087 350.222 312.808 352.827 309.962C357.41 304.858 362.917 300.753 365.538 294.239C366.124 292.826 364.103 291.711 363.418 293.104Z" fill="#3F92D1"/>
<path d="M378.663 298.991C375.569 302.759 372.238 306.175 368.633 309.435C365.146 312.616 360.737 315.817 358.467 320.056C357.664 321.528 359.568 322.722 360.704 321.622C364.113 318.324 367.129 314.437 370.459 311.021C373.907 307.527 377.374 303.934 379.585 299.48C379.879 299.028 379.074 298.461 378.663 298.991Z" fill="#3F92D1"/>
<path d="M245.853 281.348C243.345 283.194 240.935 285.06 238.682 287.16C235.841 289.654 232.706 292.089 230.218 294.857C229.297 295.898 230.751 297.818 231.868 296.817C234.297 294.853 236.236 292.282 238.411 290.063C240.977 287.413 243.72 284.9 246.639 282.523C247.266 281.934 246.578 280.778 245.853 281.348Z" fill="#3F92D1"/>
<path d="M232.461 283.068C230.481 284.306 228.502 285.544 226.444 286.664C224.465 287.902 222.328 288.904 220.506 290.377C219.154 291.535 220.391 293.515 221.979 292.709C224.037 291.589 225.879 290.018 227.682 288.643C229.582 287.288 231.503 285.835 233.306 284.46C234.344 283.851 233.401 282.44 232.461 283.068Z" fill="#3F92D1"/>
<path d="M340.476 170.066C339.888 170.459 340.438 171.282 341.007 170.987C373.386 153.772 424.825 169.915 428.791 209.958C429.03 212.86 433.56 212.64 433.321 209.737C428.901 166.851 374.421 149.594 340.476 170.066Z" fill="#3F92D1"/>
<path d="M400.947 177.708C394.922 174.164 387.802 172.544 381.015 171.297C373.737 169.951 365.738 171.725 358.324 171.576C357.501 171.616 357.345 172.911 358.228 173.087C363.838 174.1 369.486 173.898 375.193 173.911C382.312 174.002 389.708 176.288 396.085 179.086C408.74 184.661 414.95 195.48 418.533 208.224C419.261 210.714 422.77 209.474 422.238 207.023C419.577 194.259 411.956 184.383 400.947 177.708Z" fill="#3F92D1"/>
<path d="M456.267 335.325C454.52 333.856 452.655 332.465 450.908 330.996C453.22 329.111 455.454 327.108 457.746 325.321C459.902 323.711 457.741 320.222 455.487 321.813C452.665 323.699 450.177 325.957 447.669 328.313C447.316 328.039 446.963 327.765 446.609 327.491C444.509 325.747 440.406 321.771 437.406 322.5C436.877 322.598 436.505 323.442 436.917 323.932C439.038 326.597 441.963 328.81 444.456 331.141C444.554 331.16 444.633 331.278 444.633 331.278C442.223 333.653 439.813 336.029 437.246 338.17C436.012 339.25 437.23 341.327 438.641 340.384C441.679 338.439 444.461 336.24 447.263 333.942C449.227 335.862 451.269 337.899 453.486 339.054C455.919 340.15 458.387 336.97 456.267 335.325Z" fill="#3F92D1"/>
<path d="M121.158 94.8169C119.637 93.538 118.014 92.3276 116.493 91.0487C118.506 89.4074 120.45 87.6638 122.446 86.1079C124.323 84.7059 122.441 81.6688 120.479 83.0539C118.023 84.6957 115.856 86.6615 113.673 88.7127C113.366 88.474 113.058 88.2353 112.75 87.9966C110.922 86.4791 107.35 83.017 104.738 83.6516C104.277 83.7374 103.954 84.472 104.313 84.8984C106.159 87.2184 108.705 89.145 110.876 91.1744C110.961 91.1913 111.03 91.2937 111.03 91.2937C108.932 93.3619 106.834 95.4301 104.599 97.2936C103.525 98.2338 104.585 100.042 105.814 99.2216C108.458 97.5284 110.881 95.6135 113.32 93.6132C115.029 95.2846 116.807 97.0583 118.737 98.0635C120.855 99.0174 123.004 96.2491 121.158 94.8169Z" fill="#3F92D1"/>
<path d="M415.08 116.896C414.195 114.681 413.604 112.524 413.131 110.289C413.974 110.151 414.817 110.013 415.68 109.776C417.366 109.5 419.072 109.126 420.66 108.83C422.052 108.495 423.032 107.67 423.187 106.375C423.48 104.904 422.655 103.415 421.379 102.651C420.751 102.22 419.966 102.064 419.123 102.203C417.672 102.322 416.28 102.657 414.358 103.09C413.613 103.248 412.868 103.406 412.123 103.563L411.378 103.721C410.965 102.212 410.512 100.898 410.04 99.6826C409.961 99.0551 410 98.3491 409.92 97.7216C409.919 96.1919 409.231 95.0356 407.955 94.2721C406.582 93.4891 404.66 93.4128 403.366 94.2771C402.21 94.9648 401.564 96.1618 401.664 97.711C401.784 100.182 402.179 102.809 402.869 105.495C402.124 105.653 401.477 105.83 400.751 105.89C399.065 106.166 397.653 106.599 396.418 107.17C395.987 107.288 395.536 107.504 395.203 107.642C394.752 107.858 394.282 108.172 394.008 108.525C393.753 108.781 393.596 109.055 393.538 109.35C392.931 110.86 393.679 112.742 395.229 113.662C396.23 114.269 397.348 114.288 398.465 113.796C400.386 112.853 402.621 112.379 404.837 112.004C405.801 114.847 407.079 117.65 408.376 120.355C408.75 121.041 409.24 121.649 409.79 121.962C410.967 122.706 412.634 122.527 413.869 121.447C415.221 120.289 415.689 118.445 415.08 116.896ZM413.063 120.37C412.319 121.037 411.26 121.234 410.534 120.784C410.161 120.608 409.827 120.236 409.611 119.785C408.137 116.943 406.898 113.944 405.954 111.003L405.659 110.435L405.13 110.533C402.698 110.967 400.149 111.48 397.895 112.561C397.091 113.013 396.424 112.778 395.973 112.485C395.07 111.897 394.5 110.662 394.872 109.819L394.93 109.525L395.048 109.446C395.205 109.171 395.44 109.014 395.773 108.876C396.106 108.739 396.557 108.523 396.988 108.404C398.106 107.913 399.4 107.558 401.105 107.184C402.066 106.967 402.909 106.829 403.87 106.612L404.517 106.435L404.34 105.788C403.69 102.906 403.216 100.161 403.017 97.5722C402.957 96.3368 403.584 95.7477 404.054 95.4334C404.975 94.9029 406.309 94.8622 407.31 95.4691C407.859 95.7823 408.546 96.4287 408.587 97.7623C408.548 98.4683 408.608 99.1939 408.668 99.9195L408.727 100.135C409.277 101.468 409.71 102.88 410.163 104.703L410.341 105.35L412.36 104.936C413.105 104.778 413.85 104.621 414.595 104.463C416.419 104.01 417.889 103.793 419.262 103.556C420.831 103.358 422.068 104.827 421.893 106.22C421.795 106.71 421.463 107.358 420.384 107.653C418.678 108.028 417.09 108.324 415.404 108.6C414.345 108.797 413.188 108.975 412.129 109.172L411.482 109.35L411.66 109.997C412.231 112.251 412.92 114.937 413.864 117.368C414.317 118.682 413.788 119.8 413.063 120.37Z" fill="#3F92D1"/>
</g>
<path d="M146.547 328.861C144.976 327.02 143.64 325.021 142.402 323.043C143.206 322.591 144.009 322.139 144.813 321.688C146.322 320.765 147.91 319.959 149.419 319.036C150.693 318.27 151.339 317.074 151.102 315.702C150.884 314.232 149.608 312.959 148.039 312.647C147.254 312.491 146.411 312.629 145.627 312.983C144.275 313.631 142.903 314.378 141.256 315.477C140.57 315.85 139.865 316.322 139.179 316.695L138.493 317.068C137.55 315.658 136.647 314.561 135.822 313.582C135.547 312.915 135.252 312.347 135.075 311.7C134.544 310.27 133.425 309.232 131.953 308.94C130.286 308.608 128.424 309.257 127.464 310.493C126.524 311.631 126.349 313.023 126.998 314.375C127.961 316.707 129.297 319.215 130.849 321.664C130.163 322.037 129.576 322.43 128.988 322.822C127.38 323.726 126.185 324.609 125.186 325.532C124.814 325.865 124.461 326.101 124.089 326.435C123.716 326.768 123.423 327.219 123.227 327.69C123.07 327.965 122.992 328.357 123.032 328.671C123.014 330.298 124.408 332.002 126.174 332.353C127.351 332.587 128.449 332.193 129.33 331.349C130.858 329.819 132.936 328.601 135.013 327.383C136.977 329.812 139.059 332.162 141.356 334.453C141.964 334.982 142.592 335.412 143.279 335.549C144.75 335.841 146.22 335.114 147.121 333.663C147.943 332.094 147.803 330.231 146.547 328.861ZM145.825 332.998C145.238 333.9 144.317 334.43 143.532 334.274C143.14 334.196 142.689 333.903 142.335 333.629C139.94 331.318 137.682 328.831 135.757 326.206L135.325 325.815L134.757 326.109C132.464 327.386 130.151 328.761 128.368 330.547C127.722 331.234 126.898 331.274 126.408 331.176C125.329 330.962 124.328 329.845 124.425 328.845L124.483 328.551L124.522 328.355C124.581 328.061 124.835 327.806 125.09 327.551C125.462 327.217 125.717 326.962 126.089 326.628C127.088 325.706 128.166 324.901 129.754 324.096C130.577 323.546 131.381 323.094 132.302 322.564L132.89 322.171L132.497 321.583C130.866 319.017 129.451 316.392 128.409 313.943C127.937 312.728 128.289 311.982 128.701 311.453C129.386 310.57 130.7 310.117 131.877 310.351C132.563 310.488 133.505 310.879 133.957 312.192C134.233 312.858 134.488 313.622 134.764 314.288L134.823 314.504C135.726 315.601 136.689 316.913 137.808 318.461L138.201 319.048L140.043 317.988C140.729 317.615 141.435 317.143 142.121 316.77C143.767 315.671 145.139 314.924 146.374 314.354C147.844 313.627 149.571 314.684 149.808 316.056C149.906 316.585 149.75 317.369 148.829 317.9C147.32 318.823 145.732 319.628 144.223 320.551C143.185 321.16 142.263 321.69 141.225 322.299L140.539 322.672L140.932 323.26C142.248 325.356 143.819 327.707 145.645 329.803C146.451 330.88 146.295 332.174 145.825 332.998Z" fill="#3F92D1"/>
<defs>
<clipPath id="clip0">
<rect width="460.8" height="274" fill="white" transform="translate(54.0796 0.855347) rotate(11.2475)"/>
</clipPath>
</defs>
</svg>
