<svg width="216" height="68" viewBox="0 0 216 68" fill="none" xmlns="http://www.w3.org/2000/svg">
<rect x="54.0269" y="11.5601" width="161.13" height="41.1634" rx="6" fill="#41B4E6"/>
<path d="M92.3506 38.6418H90.6543V27.2336H84.3438V38.6418H82.6562V25.8449H92.3506V38.6418ZM94.7412 33.799C94.7412 32.8673 94.9229 32.0294 95.2861 31.2853C95.6553 30.5412 96.165 29.9669 96.8154 29.5627C97.4717 29.1584 98.2188 28.9562 99.0566 28.9562C100.352 28.9562 101.397 29.4044 102.194 30.3009C102.997 31.1974 103.398 32.3898 103.398 33.8781V33.9923C103.398 34.9181 103.22 35.7502 102.862 36.4884C102.511 37.2209 102.004 37.7921 101.342 38.2023C100.686 38.6125 99.9297 38.8175 99.0742 38.8175C97.7852 38.8175 96.7393 38.3693 95.9365 37.4728C95.1396 36.5763 94.7412 35.3898 94.7412 33.9132V33.799ZM96.376 33.9923C96.376 35.047 96.6191 35.8937 97.1055 36.5324C97.5977 37.1711 98.2539 37.4904 99.0742 37.4904C99.9004 37.4904 100.557 37.1681 101.043 36.5236C101.529 35.8732 101.772 34.965 101.772 33.799C101.772 32.756 101.523 31.9123 101.025 31.2677C100.533 30.6173 99.877 30.2921 99.0566 30.2921C98.2539 30.2921 97.6064 30.6115 97.1143 31.2502C96.6221 31.8888 96.376 32.8029 96.376 33.9923ZM113.216 38.6418H111.59V30.4767H107.213V38.6418H105.578V29.132H113.216V38.6418ZM123.859 33.9923C123.859 35.4396 123.528 36.6056 122.866 37.4904C122.204 38.3752 121.308 38.8175 120.177 38.8175C119.022 38.8175 118.114 38.4513 117.452 37.7189V42.298H115.826V29.132H117.312L117.391 30.1867C118.053 29.3664 118.973 28.9562 120.15 28.9562C121.293 28.9562 122.195 29.3869 122.857 30.2482C123.525 31.1095 123.859 32.3078 123.859 33.8429V33.9923ZM122.233 33.8078C122.233 32.7355 122.005 31.8888 121.548 31.2677C121.091 30.6466 120.464 30.3361 119.667 30.3361C118.683 30.3361 117.944 30.7726 117.452 31.6457V36.1896C117.938 37.0568 118.683 37.4904 119.685 37.4904C120.464 37.4904 121.082 37.1828 121.539 36.5675C122.002 35.9464 122.233 35.0265 122.233 33.8078ZM125.503 33.799C125.503 32.8673 125.685 32.0294 126.048 31.2853C126.417 30.5412 126.927 29.9669 127.577 29.5627C128.233 29.1584 128.98 28.9562 129.818 28.9562C131.113 28.9562 132.159 29.4044 132.956 30.3009C133.759 31.1974 134.16 32.3898 134.16 33.8781V33.9923C134.16 34.9181 133.981 35.7502 133.624 36.4884C133.272 37.2209 132.766 37.7921 132.104 38.2023C131.447 38.6125 130.691 38.8175 129.836 38.8175C128.547 38.8175 127.501 38.3693 126.698 37.4728C125.901 36.5763 125.503 35.3898 125.503 33.9132V33.799ZM127.138 33.9923C127.138 35.047 127.381 35.8937 127.867 36.5324C128.359 37.1711 129.016 37.4904 129.836 37.4904C130.662 37.4904 131.318 37.1681 131.805 36.5236C132.291 35.8732 132.534 34.965 132.534 33.799C132.534 32.756 132.285 31.9123 131.787 31.2677C131.295 30.6173 130.639 30.2921 129.818 30.2921C129.016 30.2921 128.368 30.6115 127.876 31.2502C127.384 31.8888 127.138 32.8029 127.138 33.9923ZM140.374 29.6769C141.569 29.6769 142.524 30.0783 143.239 30.881C143.96 31.6779 144.32 32.7296 144.32 34.0363V34.1857C144.32 35.0822 144.147 35.8849 143.802 36.5939C143.456 37.297 142.958 37.8449 142.308 38.2375C141.663 38.6242 140.919 38.8175 140.075 38.8175C138.798 38.8175 137.77 38.3927 136.99 37.5431C136.211 36.6877 135.821 35.5421 135.821 34.1066V33.3156C135.821 31.3175 136.19 29.7296 136.929 28.5519C137.673 27.3742 138.769 26.6564 140.216 26.3986C141.036 26.2521 141.59 26.0734 141.877 25.8625C142.164 25.6515 142.308 25.3615 142.308 24.9923H143.644C143.644 25.7248 143.477 26.2961 143.143 26.7062C142.814 27.1164 142.287 27.4064 141.561 27.5763L140.348 27.8488C139.381 28.0773 138.654 28.464 138.168 29.0089C137.688 29.548 137.374 30.2687 137.228 31.1711C138.089 30.175 139.138 29.6769 140.374 29.6769ZM140.058 31.0128C139.261 31.0128 138.628 31.2824 138.159 31.8214C137.69 32.3546 137.456 33.0959 137.456 34.0451V34.1857C137.456 35.2052 137.69 36.0138 138.159 36.6115C138.634 37.2033 139.272 37.4992 140.075 37.4992C140.884 37.4992 141.522 37.2003 141.991 36.6027C142.46 36.005 142.694 35.132 142.694 33.9836C142.694 33.0871 142.457 32.3693 141.982 31.8302C141.514 31.2853 140.872 31.0128 140.058 31.0128ZM145.718 33.799C145.718 32.8673 145.899 32.0294 146.263 31.2853C146.632 30.5412 147.142 29.9669 147.792 29.5627C148.448 29.1584 149.195 28.9562 150.033 28.9562C151.328 28.9562 152.374 29.4044 153.171 30.3009C153.974 31.1974 154.375 32.3898 154.375 33.8781V33.9923C154.375 34.9181 154.196 35.7502 153.839 36.4884C153.487 37.2209 152.98 37.7921 152.318 38.2023C151.662 38.6125 150.906 38.8175 150.051 38.8175C148.762 38.8175 147.716 38.3693 146.913 37.4728C146.116 36.5763 145.718 35.3898 145.718 33.9132V33.799ZM147.353 33.9923C147.353 35.047 147.596 35.8937 148.082 36.5324C148.574 37.1711 149.23 37.4904 150.051 37.4904C150.877 37.4904 151.533 37.1681 152.02 36.5236C152.506 35.8732 152.749 34.965 152.749 33.799C152.749 32.756 152.5 31.9123 152.002 31.2677C151.51 30.6173 150.854 30.2921 150.033 30.2921C149.23 30.2921 148.583 30.6115 148.091 31.2502C147.599 31.8888 147.353 32.8029 147.353 33.9923ZM156.563 38.6418V29.132H160.272C161.538 29.132 162.508 29.3546 163.182 29.8C163.861 30.2394 164.201 30.8869 164.201 31.7423C164.201 32.1818 164.069 32.5802 163.806 32.9377C163.542 33.2892 163.152 33.5587 162.637 33.7462C163.211 33.881 163.671 34.1447 164.017 34.5373C164.368 34.9298 164.544 35.3986 164.544 35.9435C164.544 36.8166 164.222 37.4845 163.577 37.9474C162.938 38.4103 162.033 38.6418 160.861 38.6418H156.563ZM158.189 34.4669V37.3322H160.879C161.559 37.3322 162.065 37.2062 162.399 36.9543C162.739 36.7023 162.909 36.3478 162.909 35.8908C162.909 34.9416 162.212 34.4669 160.817 34.4669H158.189ZM158.189 33.1662H160.29C161.813 33.1662 162.575 32.7209 162.575 31.8302C162.575 30.9396 161.854 30.4796 160.413 30.4503H158.189V33.1662ZM172.568 38.6418C172.475 38.4543 172.398 38.1203 172.34 37.6398C171.584 38.425 170.682 38.8175 169.633 38.8175C168.695 38.8175 167.925 38.5539 167.321 38.0265C166.724 37.4933 166.425 36.8195 166.425 36.005C166.425 35.0148 166.8 34.2472 167.55 33.7023C168.306 33.1515 169.366 32.8761 170.731 32.8761H172.313V32.1291C172.313 31.5607 172.144 31.1095 171.804 30.7755C171.464 30.4357 170.963 30.2658 170.301 30.2658C169.721 30.2658 169.234 30.4123 168.842 30.7052C168.449 30.9982 168.253 31.3527 168.253 31.7687H166.618C166.618 31.2941 166.785 30.8371 167.119 30.3976C167.459 29.9523 167.916 29.6007 168.49 29.3429C169.07 29.0851 169.706 28.9562 170.397 28.9562C171.493 28.9562 172.352 29.2316 172.973 29.7824C173.594 30.3273 173.916 31.0802 173.939 32.0412V36.4181C173.939 37.2912 174.051 37.9855 174.273 38.5011V38.6418H172.568ZM169.87 37.4025C170.38 37.4025 170.863 37.2707 171.32 37.007C171.777 36.7433 172.108 36.4005 172.313 35.9787V34.0275H171.039C169.047 34.0275 168.051 34.6105 168.051 35.7765C168.051 36.2863 168.221 36.6847 168.561 36.9718C168.9 37.2589 169.337 37.4025 169.87 37.4025ZM183.414 30.4503H180.224V38.6418H178.598V30.4503H175.469V29.132H183.414V30.4503ZM186.771 32.4103H189.241C190.319 32.422 191.172 32.7033 191.799 33.2541C192.426 33.8048 192.739 34.5519 192.739 35.4953C192.739 36.4445 192.417 37.2062 191.772 37.7804C191.128 38.3546 190.261 38.6418 189.171 38.6418H185.146V29.132H186.771V32.4103ZM186.771 33.7375V37.3146H189.188C189.798 37.3146 190.27 37.1593 190.604 36.8488C190.938 36.5324 191.104 36.1017 191.104 35.5568C191.104 35.0294 190.94 34.5988 190.612 34.2648C190.29 33.925 189.836 33.7492 189.25 33.7375H186.771Z" fill="white"/>
<path d="M33.9571 63.7824C50.4705 63.7824 63.8598 50.401 63.8598 33.891C63.8598 17.381 50.4705 3.99951 33.9571 3.99951C17.4437 3.99951 4.05444 17.381 4.05444 33.891C4.05444 50.401 17.4437 63.7824 33.9571 63.7824Z" fill="#41B4E6" stroke="#ECEFF1" stroke-width="7"/>
<path d="M60.36 33.8908C60.36 33.2477 60.3358 32.6105 60.2906 31.9788L49.3479 21.041L18.5662 33.144L30.3434 44.9164L30.4979 45.4723L30.6979 45.2707L30.6988 45.2716L30.4979 45.4723L43.5259 58.4947C53.3775 54.6637 60.36 45.0929 60.36 33.8908Z" fill="#0091C8"/>
<path d="M31.3935 37.736L43.3255 46.7408L49.3486 21.041L18.5667 33.1441L27.9332 36.2452L45.0275 24.7837L31.3935 37.736Z" fill="white"/>
<path d="M27.9326 36.2453L30.4979 45.4725L31.3929 37.736L45.0269 24.7838L27.9326 36.2453Z" fill="#D2D2D7"/>
<path d="M35.2716 40.6626L30.4988 45.4725L31.3937 37.736L35.2716 40.6626Z" fill="#B9B9BE"/>
</svg>
