<svg width="64" height="91" viewBox="0 0 64 91" fill="none" xmlns="http://www.w3.org/2000/svg">
<circle cx="31.7804" cy="44.0606" r="31.5704" fill="#4CAF50"/>
<path d="M35.8486 52.5004H27.8506L26.5908 23.35H37.1084L35.8486 52.5004ZM26.2979 61.5825C26.2979 60.1371 26.8154 58.9555 27.8506 58.0375C28.9053 57.1 30.2139 56.6313 31.7764 56.6313C33.3389 56.6313 34.6377 57.1 35.6729 58.0375C36.7275 58.9555 37.2549 60.1371 37.2549 61.5825C37.2549 63.0278 36.7275 64.2192 35.6729 65.1567C34.6377 66.0746 33.3389 66.5336 31.7764 66.5336C30.2139 66.5336 28.9053 66.0746 27.8506 65.1567C26.8154 64.2192 26.2979 63.0278 26.2979 61.5825Z" fill="white"/>
</svg>
