<svg width="64" height="91" viewBox="0 0 64 91" fill="none" xmlns="http://www.w3.org/2000/svg">
<circle cx="31.5902" cy="44.1209" r="31.5704" fill="#3F92D1"/>
<path d="M26.1683 52.5607C26.1683 49.7092 26.4906 47.4631 27.1351 45.8224C27.7797 44.1623 28.8246 42.7267 30.2699 41.5158C31.7152 40.3049 32.809 39.2014 33.5511 38.2053C34.3129 37.1896 34.6937 36.0764 34.6937 34.8654C34.6937 31.9162 33.4242 30.4416 30.8851 30.4416C29.7133 30.4416 28.766 30.8713 28.0433 31.7307C27.3207 32.59 26.9398 33.7521 26.9008 35.217H16.9984C17.0375 31.3107 18.2679 28.2736 20.6898 26.1057C23.1117 23.9182 26.5101 22.8244 30.8851 22.8244C35.2406 22.8244 38.6097 23.8303 40.9926 25.842C43.3949 27.8537 44.5961 30.715 44.5961 34.426C44.5961 36.0471 44.2738 37.5217 43.6293 38.8498C42.9847 40.1779 41.9496 41.5353 40.5238 42.9221L37.1547 46.0568C36.1976 46.9748 35.5336 47.9221 35.1625 48.8986C34.7914 49.8557 34.5863 51.0764 34.5472 52.5607H26.1683ZM24.9672 61.467C24.9672 60.0217 25.4847 58.84 26.5199 57.9221C27.5746 56.9846 28.8832 56.5158 30.4457 56.5158C32.0082 56.5158 33.307 56.9846 34.3422 57.9221C35.3969 58.84 35.9242 60.0217 35.9242 61.467C35.9242 62.9123 35.3969 64.1037 34.3422 65.0412C33.307 65.9592 32.0082 66.4182 30.4457 66.4182C28.8832 66.4182 27.5746 65.9592 26.5199 65.0412C25.4847 64.1037 24.9672 62.9123 24.9672 61.467Z" fill="white"/>
</svg>
