<svg width="211" height="64" viewBox="0 0 211 64" fill="none" xmlns="http://www.w3.org/2000/svg">
<rect x="49.2573" y="9.56005" width="161.13" height="41.1634" rx="6" fill="#4CAF50"/>
<path d="M87.5809 36.6417H85.8846V25.2335H79.5741V36.6417H77.8866V23.8449H87.5809V36.6417ZM89.9716 31.799C89.9716 30.8673 90.1532 30.0294 90.5165 29.2853C90.8856 28.5412 91.3954 27.9669 92.0458 27.5626C92.702 27.1583 93.4491 26.9562 94.287 26.9562C95.5819 26.9562 96.6278 27.4044 97.4247 28.3009C98.2274 29.1974 98.6288 30.3898 98.6288 31.8781V31.9923C98.6288 32.9181 98.4501 33.7501 98.0927 34.4884C97.7411 35.2208 97.2343 35.7921 96.5721 36.2023C95.9159 36.6124 95.16 36.8175 94.3046 36.8175C93.0155 36.8175 91.9696 36.3693 91.1669 35.4728C90.37 34.5763 89.9716 33.3898 89.9716 31.9132V31.799ZM91.6063 31.9923C91.6063 33.047 91.8495 33.8937 92.3358 34.5324C92.828 35.171 93.4843 35.4904 94.3046 35.4904C95.1307 35.4904 95.787 35.1681 96.2733 34.5236C96.7596 33.8732 97.0028 32.965 97.0028 31.799C97.0028 30.756 96.7538 29.9123 96.2557 29.2677C95.7635 28.6173 95.1073 28.2921 94.287 28.2921C93.4843 28.2921 92.8368 28.6115 92.3446 29.2501C91.8524 29.8888 91.6063 30.8029 91.6063 31.9923ZM108.446 36.6417H106.82V28.4767H102.443V36.6417H100.808V27.132H108.446V36.6417ZM119.09 31.9923C119.09 33.4396 118.759 34.6056 118.097 35.4904C117.434 36.3751 116.538 36.8175 115.407 36.8175C114.253 36.8175 113.345 36.4513 112.682 35.7189V40.298H111.057V27.132H112.542L112.621 28.1867C113.283 27.3664 114.203 26.9562 115.381 26.9562C116.523 26.9562 117.426 27.3869 118.088 28.2482C118.756 29.1095 119.09 30.3078 119.09 31.8429V31.9923ZM117.464 31.8078C117.464 30.7355 117.235 29.8888 116.778 29.2677C116.321 28.6466 115.694 28.3361 114.897 28.3361C113.913 28.3361 113.175 28.7726 112.682 29.6457V34.1896C113.169 35.0568 113.913 35.4904 114.915 35.4904C115.694 35.4904 116.312 35.1828 116.769 34.5675C117.232 33.9464 117.464 33.0265 117.464 31.8078ZM120.733 31.799C120.733 30.8673 120.915 30.0294 121.278 29.2853C121.647 28.5412 122.157 27.9669 122.807 27.5626C123.464 27.1583 124.211 26.9562 125.049 26.9562C126.344 26.9562 127.39 27.4044 128.186 28.3009C128.989 29.1974 129.391 30.3898 129.391 31.8781V31.9923C129.391 32.9181 129.212 33.7501 128.854 34.4884C128.503 35.2208 127.996 35.7921 127.334 36.2023C126.678 36.6124 125.922 36.8175 125.066 36.8175C123.777 36.8175 122.731 36.3693 121.929 35.4728C121.132 34.5763 120.733 33.3898 120.733 31.9132V31.799ZM122.368 31.9923C122.368 33.047 122.611 33.8937 123.098 34.5324C123.59 35.171 124.246 35.4904 125.066 35.4904C125.892 35.4904 126.549 35.1681 127.035 34.5236C127.521 33.8732 127.765 32.965 127.765 31.799C127.765 30.756 127.516 29.9123 127.017 29.2677C126.525 28.6173 125.869 28.2921 125.049 28.2921C124.246 28.2921 123.599 28.6115 123.106 29.2501C122.614 29.8888 122.368 30.8029 122.368 31.9923ZM135.604 27.6769C136.8 27.6769 137.755 28.0783 138.47 28.881C139.19 29.6779 139.551 30.7296 139.551 32.0363V32.1857C139.551 33.0822 139.378 33.8849 139.032 34.5939C138.686 35.297 138.188 35.8449 137.538 36.2374C136.893 36.6242 136.149 36.8175 135.306 36.8175C134.028 36.8175 133 36.3927 132.221 35.5431C131.441 34.6876 131.052 33.5421 131.052 32.1066V31.3156C131.052 29.3175 131.421 27.7296 132.159 26.5519C132.903 25.3742 133.999 24.6564 135.446 24.3986C136.266 24.2521 136.82 24.0734 137.107 23.8624C137.394 23.6515 137.538 23.3615 137.538 22.9923H138.874C138.874 23.7248 138.707 24.296 138.373 24.7062C138.045 25.1164 137.517 25.4064 136.791 25.5763L135.578 25.8488C134.611 26.0773 133.885 26.464 133.398 27.0089C132.918 27.548 132.604 28.2687 132.458 29.171C133.319 28.1749 134.368 27.6769 135.604 27.6769ZM135.288 29.0128C134.491 29.0128 133.858 29.2824 133.39 29.8214C132.921 30.3546 132.686 31.0958 132.686 32.0451V32.1857C132.686 33.2052 132.921 34.0138 133.39 34.6115C133.864 35.2033 134.503 35.4992 135.306 35.4992C136.114 35.4992 136.753 35.2003 137.222 34.6027C137.69 34.005 137.925 33.132 137.925 31.9835C137.925 31.0871 137.687 30.3693 137.213 29.8302C136.744 29.2853 136.102 29.0128 135.288 29.0128ZM140.948 31.799C140.948 30.8673 141.13 30.0294 141.493 29.2853C141.862 28.5412 142.372 27.9669 143.022 27.5626C143.679 27.1583 144.426 26.9562 145.264 26.9562C146.558 26.9562 147.604 27.4044 148.401 28.3009C149.204 29.1974 149.605 30.3898 149.605 31.8781V31.9923C149.605 32.9181 149.427 33.7501 149.069 34.4884C148.718 35.2208 148.211 35.7921 147.549 36.2023C146.892 36.6124 146.137 36.8175 145.281 36.8175C143.992 36.8175 142.946 36.3693 142.143 35.4728C141.347 34.5763 140.948 33.3898 140.948 31.9132V31.799ZM142.583 31.9923C142.583 33.047 142.826 33.8937 143.312 34.5324C143.805 35.171 144.461 35.4904 145.281 35.4904C146.107 35.4904 146.764 35.1681 147.25 34.5236C147.736 33.8732 147.979 32.965 147.979 31.799C147.979 30.756 147.73 29.9123 147.232 29.2677C146.74 28.6173 146.084 28.2921 145.264 28.2921C144.461 28.2921 143.813 28.6115 143.321 29.2501C142.829 29.8888 142.583 30.8029 142.583 31.9923ZM151.794 36.6417V27.132H155.503C156.768 27.132 157.738 27.3546 158.412 27.7999C159.092 28.2394 159.432 28.8869 159.432 29.7423C159.432 30.1818 159.3 30.5802 159.036 30.9376C158.772 31.2892 158.383 31.5587 157.867 31.7462C158.441 31.881 158.901 32.1447 159.247 32.5373C159.599 32.9298 159.774 33.3986 159.774 33.9435C159.774 34.8166 159.452 35.4845 158.807 35.9474C158.169 36.4103 157.264 36.6417 156.092 36.6417H151.794ZM153.42 32.4669V35.3322H156.109C156.789 35.3322 157.296 35.2062 157.63 34.9542C157.97 34.7023 158.14 34.3478 158.14 33.8908C158.14 32.9416 157.442 32.4669 156.048 32.4669H153.42ZM153.42 31.1662H155.52C157.044 31.1662 157.806 30.7208 157.806 29.8302C157.806 28.9396 157.085 28.4796 155.643 28.4503H153.42V31.1662ZM167.799 36.6417C167.705 36.4542 167.629 36.1203 167.57 35.6398C166.814 36.4249 165.912 36.8175 164.863 36.8175C163.926 36.8175 163.155 36.5539 162.552 36.0265C161.954 35.4933 161.655 34.8195 161.655 34.005C161.655 33.0148 162.03 32.2472 162.78 31.7023C163.536 31.1515 164.597 30.8761 165.962 30.8761H167.544V30.1291C167.544 29.5607 167.374 29.1095 167.034 28.7755C166.694 28.4357 166.193 28.2658 165.531 28.2658C164.951 28.2658 164.465 28.4123 164.072 28.7052C163.68 28.9982 163.483 29.3527 163.483 29.7687H161.849C161.849 29.2941 162.016 28.8371 162.349 28.3976C162.689 27.9523 163.146 27.6007 163.721 27.3429C164.301 27.0851 164.936 26.9562 165.628 26.9562C166.724 26.9562 167.582 27.2316 168.203 27.7824C168.824 28.3273 169.146 29.0802 169.17 30.0412V34.4181C169.17 35.2912 169.281 35.9855 169.504 36.5011V36.6417H167.799ZM165.1 35.4025C165.61 35.4025 166.094 35.2707 166.551 35.007C167.008 34.7433 167.339 34.4005 167.544 33.9787V32.0275H166.269C164.277 32.0275 163.281 32.6105 163.281 33.7765C163.281 34.2863 163.451 34.6847 163.791 34.9718C164.131 35.2589 164.567 35.4025 165.1 35.4025ZM178.644 28.4503H175.454V36.6417H173.828V28.4503H170.699V27.132H178.644V28.4503ZM182.002 30.4103H184.472C185.55 30.422 186.402 30.7033 187.029 31.2541C187.656 31.8048 187.97 32.5519 187.97 33.4953C187.97 34.4445 187.647 35.2062 187.003 35.7804C186.358 36.3546 185.491 36.6417 184.401 36.6417H180.376V27.132H182.002V30.4103ZM182.002 31.7374V35.3146H184.419C185.028 35.3146 185.5 35.1593 185.834 34.8488C186.168 34.5324 186.335 34.1017 186.335 33.5568C186.335 33.0294 186.171 32.5988 185.843 32.2648C185.52 31.9249 185.066 31.7492 184.48 31.7374H182.002Z" fill="white"/>
<g clip-path="url(#clip0)">
<path d="M55.0544 9.93733C49.0455 4.18205 41.1391 0.931 32.7188 0.931C8.55157 0.931 -6.62344 26.8741 5.44436 47.5111L0.974609 63.6019L17.6703 59.288C24.9442 63.1815 30.9029 62.8368 32.7346 63.0666C60.7575 63.0666 74.707 29.475 55.0148 10.0392L55.0544 9.93733Z" fill="#ECEFF1"/>
<path d="M32.7768 57.7291L32.7609 57.7265H32.7188C24.3327 57.7265 18.9748 53.7913 18.4477 53.5641L8.56473 56.1101L11.2134 46.5919L10.5835 45.6127C7.97439 41.4973 6.58813 36.7578 6.58813 31.8773C6.58813 8.91631 34.9062 -2.56552 51.2935 13.6636C67.6413 29.723 56.1639 57.7291 32.7768 57.7291Z" fill="#4CAF50"/>
<path d="M47.1136 38.2907L47.0899 38.4865C46.2966 38.0948 42.4331 36.2225 41.7136 35.964C40.098 35.3713 40.554 35.87 37.452 39.39C36.9908 39.8992 36.5323 39.9384 35.7495 39.5859C34.9589 39.1942 32.4209 38.3716 29.4165 35.7081C27.0762 33.6321 25.5055 31.0861 25.0416 30.3027C24.2694 28.9814 25.885 28.7934 27.3556 26.0359C27.6191 25.4875 27.4847 25.0567 27.2897 24.6676C27.092 24.2759 25.5186 20.4373 24.8598 18.9071C24.2273 17.3821 23.5763 17.5753 23.0887 17.5753C21.5707 17.4448 20.4612 17.4657 19.4834 18.4736C15.2298 23.106 16.3024 27.8847 19.942 32.9663C27.0947 42.2415 30.9055 43.9493 37.8737 46.3204C39.7554 46.9131 41.4711 46.8296 42.8284 46.6363C44.3411 46.3987 47.4852 44.7536 48.1415 42.9126C48.8135 41.0717 48.8135 39.5441 48.6159 39.1916C48.4208 38.839 47.9043 38.6432 47.1136 38.2907Z" fill="#FAFAFA"/>
</g>
<defs>
<clipPath id="clip0">
<rect width="63.2512" height="62.6709" fill="white" transform="translate(0.974609 0.931)"/>
</clipPath>
</defs>
</svg>
